<svg xmlns="http://www.w3.org/2000/svg" width="83.95" height="6.18" viewBox="0 0 83.95 6.18"><defs><style>.cls-1{fill:#4ca0d9;}.cls-1,.cls-3,.cls-4,.cls-5,.cls-6,.cls-7,.cls-8{fill-rule:evenodd;}.cls-2{opacity:0.15;}.cls-4{fill:#0089d9;}.cls-5{fill:#787878;}.cls-6{fill:#282828;}.cls-7{fill:#dce5cf;}.cls-8{fill:#fff;}</style></defs><title>Arrow Medium</title><g id="Blue_Disabled" data-name="Blue Disabled"><polygon class="cls-1" points="83.95 0.71 83.24 0 79.47 3.77 75.71 0 75 0.71 79.47 5.19 80.18 4.48 80.18 4.48 83.95 0.71"/></g><g id="Blue"><g class="cls-2"><polygon class="cls-3" points="68.95 1.71 68.25 1 64.48 4.77 60.71 1 60 1.71 64.48 6.18 65.19 5.48 65.19 5.47 68.95 1.71"/></g><polygon class="cls-4" points="68.95 0.71 68.25 0 64.48 3.77 60.71 0 60 0.71 64.48 5.18 65.19 4.48 65.19 4.47 68.95 0.71"/></g><g id="Grey_Disabled" data-name="Grey Disabled"><polygon class="cls-5" points="54 0.71 53.29 0 49.52 3.77 45.76 0 45.05 0.71 49.53 5.18 50.23 4.48 50.23 4.47 54 0.71"/></g><g id="Grey"><g class="cls-2"><polygon class="cls-3" points="39.03 1.71 38.32 1 34.56 4.77 30.79 1 30.08 1.71 34.56 6.18 35.26 5.48 35.26 5.47 39.03 1.71"/></g><polygon class="cls-6" points="39.03 0.71 38.32 0 34.56 3.77 30.79 0 30.08 0.71 34.56 5.18 35.26 4.48 35.26 4.47 39.03 0.71"/></g><g id="White_Disabled" data-name="White Disabled"><polygon class="cls-7" points="24.01 0.71 23.3 0 19.53 3.77 15.77 0 15.06 0.71 19.54 5.18 20.24 4.48 20.24 4.47 24.01 0.71"/></g><g id="White"><g class="cls-2"><polygon class="cls-3" points="8.95 1.71 8.24 1 4.47 4.77 0.71 1 0 1.71 4.48 6.18 5.18 5.48 5.18 5.47 8.95 1.71"/></g><polygon class="cls-8" points="8.95 0.71 8.24 0 4.47 3.77 0.71 0 0 0.71 4.48 5.18 5.18 4.48 5.18 4.47 8.95 0.71"/></g></svg>