<?xml version="1.0" encoding="utf-8"?>
<!-- Generator: Adobe Illustrator 19.2.0, SVG Export Plug-In . SVG Version: 6.00 Build 0)  -->
<!DOCTYPE svg PUBLIC "-//W3C//DTD SVG 1.1//EN" "http://www.w3.org/Graphics/SVG/1.1/DTD/svg11.dtd">
<svg version="1.1" xmlns="http://www.w3.org/2000/svg" xmlns:xlink="http://www.w3.org/1999/xlink" x="0px" y="0px" width="47px"
	 height="20px" viewBox="0 0 47 20" style="enable-background:new 0 0 47 20;" xml:space="preserve">
<style type="text/css">
	.st0{fill:#737373;}
	.st1{fill:#FFFFFF;}
</style>
<g id="Search_Large_1_">
	<g>
		<g>
			<path class="st0" d="M31.6,12.9c-1.4-3.6,0.3-7.4,2.3-8.6C29.7,4.6,28.8,11,31.6,12.9z M46.7,18.2L44,15.4c1.3-1.6,2-3.7,2-5.9
				C46,4.3,41.7,0,36.5,0S27,4.3,27,9.5s4.3,9.5,9.5,9.5c2.2,0,4.3-0.8,5.9-2.1l2.8,2.8c0.4,0.4,1.1,0.3,1.4-0.1
				C47.1,19.3,47.1,18.6,46.7,18.2z M36.5,17c-4.2,0-7.5-3.3-7.5-7.5S32.3,2,36.5,2S44,5.3,44,9.5S40.7,17,36.5,17z"/>
		</g>
	</g>
</g>
<g id="Search_Large">
	<g>
		<g>
			<path class="st1" d="M4.6,12.9C3.2,9.3,4.9,5.5,6.9,4.3C2.7,4.6,1.8,11,4.6,12.9z M19.7,18.2L17,15.4c1.3-1.6,2-3.7,2-5.9
				C19,4.3,14.7,0,9.5,0S0,4.3,0,9.5S4.3,19,9.5,19c2.2,0,4.3-0.8,5.9-2.1l2.8,2.8c0.4,0.4,1.1,0.3,1.4-0.1
				C20.1,19.3,20.1,18.6,19.7,18.2z M9.5,17C5.3,17,2,13.7,2,9.5S5.3,2,9.5,2S17,5.3,17,9.5S13.7,17,9.5,17z"/>
		</g>
	</g>
</g>
</svg>
