<svg xmlns="http://www.w3.org/2000/svg" width="82" height="24"><g><path fill="#39A6E6" fill-rule="evenodd" d="M71.5 11.1L67.4 7c-.4-.4-1-.4-1.4 0-.4.4-.4 1 0 1.4l3.6 3.6-3.6 3.5c-.4.4-.4 1 0 1.4.4.4 1 .4 1.4 0l4-4c.1 0 .2-.1.2-.2.2-.2.3-.5.3-.7 0-.3-.1-.5-.3-.7 0-.1-.1-.2-.1-.2zM70 0c-6.6 0-12 5.4-12 12s5.4 12 12 12 12-5.4 12-12S76.6 0 70 0zm0 22c-5.5 0-10-4.5-10-10S64.5 2 70 2s10 4.5 10 10-4.5 10-10 10zm4-15c-.6 0-1 .4-1 1v8c0 .6.4 1 1 1s1-.4 1-1V8c0-.5-.4-1-1-1z" clip-rule="evenodd"/><path fill="#C8C8C8" fill-rule="evenodd" d="M42.5 11.1L38.4 7c-.4-.4-1-.4-1.4 0-.4.4-.4 1 0 1.4l3.6 3.6-3.6 3.5c-.4.4-.4 1 0 1.4.4.4 1 .4 1.4 0l4-4c.1 0 .2-.1.2-.2.2-.2.3-.5.3-.7 0-.3-.1-.5-.3-.7 0-.1-.1-.2-.1-.2zM41 0c-6.6 0-12 5.4-12 12s5.4 12 12 12 12-5.4 12-12S47.6 0 41 0zm0 22c-5.5 0-10-4.5-10-10S35.5 2 41 2s10 4.5 10 10-4.5 10-10 10zm4-15c-.6 0-1 .4-1 1v8c0 .6.4 1 1 1s1-.4 1-1V8c0-.5-.4-1-1-1z" clip-rule="evenodd"/><path fill="#0089D9" fill-rule="evenodd" d="M8 8.4l3.6 3.6L8 15.5c-.4.4-.4 1 0 1.4.4.4 1 .4 1.4 0l4-4c.1 0 .2-.1.2-.2.2-.2.3-.5.3-.7 0-.3-.1-.5-.3-.7-.1-.1-.1-.1-.2-.2L9.4 7c-.4-.4-1-.4-1.4 0-.4.4-.4 1 0 1.4zM0 12c0 6.6 5.4 12 12 12s12-5.4 12-12S18.6 0 12 0 0 5.4 0 12zm2 0C2 6.5 6.5 2 12 2s10 4.5 10 10-4.5 10-10 10S2 17.5 2 12zm13-4v8c0 .6.4 1 1 1s1-.4 1-1V8c0-.6-.4-1-1-1s-1 .5-1 1z" clip-rule="evenodd"/></g></svg>