<svg xmlns="http://www.w3.org/2000/svg" width="82" height="24"><g><path fill="#0089D9" fill-rule="evenodd" d="M15.7 11.3c-.1-.1-.2-.1-.3-.2L11 7.2c-.2-.2-.5-.2-.8-.2-.1 0-.1 0-.2 0-.6 0-1 .5-1 1v8c0 .6.4 1 1 1 .1 0 .2 0 .3-.1.3.1.6 0 .9-.2l4.3-3.9c.1 0 .2-.1.3-.2.2-.2.2-.4.2-.6 0 0 0-.1 0-.1 0-.2-.1-.4-.3-.6zM11 14.5V9.6l2.8 2.4-2.8 2.5zM12 0C5.4 0 0 5.4 0 12s5.4 12 12 12 12-5.4 12-12S18.6 0 12 0zm0 22C6.5 22 2 17.5 2 12S6.5 2 12 2s10 4.5 10 10-4.5 10-10 10z" clip-rule="evenodd"/><path fill="#C8C8C8" fill-rule="evenodd" d="M41 0c-6.6 0-12 5.4-12 12s5.4 12 12 12 12-5.4 12-12S47.6 0 41 0zm0 22c-5.5 0-10-4.5-10-10S35.5 2 41 2s10 4.5 10 10-4.5 10-10 10zm3.7-10.7c-.1-.1-.2-.1-.3-.2L40 7.2c-.2-.2-.5-.2-.8-.2-.1 0-.1 0-.2 0-.6 0-1 .4-1 1v8c0 .6.4 1 1 1 .1 0 .2 0 .3-.1.3.1.6 0 .9-.2l4.3-3.9c.1 0 .2-.1.3-.2.2-.2.2-.4.2-.6 0 0 0-.1 0-.1 0-.2-.1-.4-.3-.6zM40 14.5V9.6l2.8 2.4-2.8 2.5z" clip-rule="evenodd"/><path fill="#39A6E6" fill-rule="evenodd" d="M70 0c-6.6 0-12 5.4-12 12s5.4 12 12 12 12-5.4 12-12S76.6 0 70 0zm0 22c-5.5 0-10-4.5-10-10S64.5 2 70 2s10 4.5 10 10-4.5 10-10 10zm3.7-10.7c-.1-.1-.2-.1-.3-.2L69 7.2c-.2-.2-.5-.2-.8-.2-.1 0-.1 0-.2 0-.6 0-1 .4-1 1v8c0 .6.4 1 1 1 .1 0 .2 0 .3-.1.3.1.6 0 .9-.2l4.3-3.9c.1 0 .2-.1.3-.2.2-.2.2-.4.2-.6 0 0 0-.1 0-.1 0-.2-.1-.4-.3-.6zM69 14.5V9.6l2.8 2.4-2.8 2.5z" clip-rule="evenodd"/></g></svg>