<svg xmlns="http://www.w3.org/2000/svg" width="58" height="16"><g><path fill="#0089D9" fill-rule="evenodd" d="M7.5 6.4c-.6 0-1.1.5-1.1 1.1 0 .6.5 1.1 1.1 1.1.6 0 1.1-.5 1.1-1.1 0-.6-.5-1.1-1.1-1.1zm0-6.4C3.4 0 0 3.4 0 7.5S3.4 15 7.5 15 15 11.6 15 7.5 11.7 0 7.5 0zm0 14C3.9 14 1 11.1 1 7.5S3.9 1 7.5 1 14 3.9 14 7.5 11.1 14 7.5 14zm3-7.6c-.6 0-1.1.5-1.1 1.1 0 .6.5 1.1 1.1 1.1s1.1-.5 1.1-1.1c0-.6-.5-1.1-1.1-1.1zm-6 0c-.6 0-1.1.5-1.1 1.1 0 .6.5 1.1 1.1 1.1.6 0 1.1-.5 1.1-1.1 0-.6-.5-1.1-1.1-1.1z" clip-rule="evenodd"/><path fill="#C8C8C8" fill-rule="evenodd" d="M28.5 6.4c-.6 0-1.1.5-1.1 1.1s.5 1.1 1.1 1.1c.6 0 1.1-.5 1.1-1.1s-.5-1.1-1.1-1.1zm0-6.4C24.4 0 21 3.4 21 7.5s3.4 7.5 7.5 7.5S36 11.6 36 7.5 32.7 0 28.5 0zm0 14c-3.6 0-6.5-2.9-6.5-6.5S24.9 1 28.5 1 35 3.9 35 7.5 32.1 14 28.5 14zm3-7.6c-.6 0-1.1.5-1.1 1.1 0 .6.5 1.1 1.1 1.1s1.1-.5 1.1-1.1c0-.6-.5-1.1-1.1-1.1zm-6 0c-.6 0-1.1.5-1.1 1.1s.5 1.1 1.1 1.1c.6 0 1.1-.5 1.1-1.1s-.5-1.1-1.1-1.1z" clip-rule="evenodd"/><path fill="#39A6E6" fill-rule="evenodd" d="M49.5 6.4c-.6 0-1.1.5-1.1 1.1s.5 1.1 1.1 1.1c.6 0 1.1-.5 1.1-1.1s-.5-1.1-1.1-1.1zm0-6.4C45.4 0 42 3.4 42 7.5s3.4 7.5 7.5 7.5S57 11.6 57 7.5 53.7 0 49.5 0zm0 14c-3.6 0-6.5-2.9-6.5-6.5S45.9 1 49.5 1 56 3.9 56 7.5 53.1 14 49.5 14zm3-7.6c-.6 0-1.1.5-1.1 1.1 0 .6.5 1.1 1.1 1.1s1.1-.5 1.1-1.1c0-.6-.5-1.1-1.1-1.1zm-6 0c-.6 0-1.1.5-1.1 1.1s.5 1.1 1.1 1.1c.6 0 1.1-.5 1.1-1.1s-.5-1.1-1.1-1.1z" clip-rule="evenodd"/></g></svg>