<svg id="Breadcrumbs_Folder" data-name="Breadcrumbs Folder" xmlns="http://www.w3.org/2000/svg" width="82" height="24" viewBox="0 0 82 24"><defs><style>.cls-1{fill:#0089d9;}.cls-1,.cls-2,.cls-3{fill-rule:evenodd;}.cls-2{fill:#d7d7d7;}.cls-3{fill:#39a6e6;}</style></defs><title>24</title><path class="cls-1" d="M12,17l5-5H7ZM23,8V6a2.15,2.15,0,0,0-2-2H12.5S11,1,9,1H4A3.23,3.23,0,0,0,1,4V8A1,1,0,0,0,0,9C0,9.57,1,19,1,19a3.4,3.4,0,0,0,3,3H20a3.4,3.4,0,0,0,3-3s1-9.5,1-10A1.08,1.08,0,0,0,23,8ZM3,4A1.08,1.08,0,0,1,4,3H9c1,0,2.5,3,2.5,3H20a1.08,1.08,0,0,1,1,1V8H3V4ZM21,19a1.08,1.08,0,0,1-1,1H4a1.08,1.08,0,0,1-1-1s-1-8.44-1-9A1,1,0,0,1,3,9H21a1.08,1.08,0,0,1,1,1C22,10.5,21,19,21,19Z"/><path class="cls-2" d="M41,17l5-5H36ZM52,8V6a2.15,2.15,0,0,0-2-2H41.5S40,1,38,1H33a3.23,3.23,0,0,0-3,3V8a1,1,0,0,0-1,1c0,0.57,1,10,1,10a3.4,3.4,0,0,0,3,3H49a3.4,3.4,0,0,0,3-3s1-9.5,1-10A1.08,1.08,0,0,0,52,8ZM32,4a1.08,1.08,0,0,1,1-1h5c1,0,2.5,3,2.5,3H49a1.08,1.08,0,0,1,1,1V8H32V4ZM50,19a1.08,1.08,0,0,1-1,1H33a1.08,1.08,0,0,1-1-1s-1-8.44-1-9a1,1,0,0,1,1-1H50a1.08,1.08,0,0,1,1,1C51,10.5,50,19,50,19Z"/><path class="cls-3" d="M70,17l5-5H65ZM81,8V6a2.15,2.15,0,0,0-2-2H70.5S69,1,67,1H62a3.23,3.23,0,0,0-3,3V8a1,1,0,0,0-1,1c0,0.57,1,10,1,10a3.4,3.4,0,0,0,3,3H78a3.4,3.4,0,0,0,3-3s1-9.5,1-10A1.08,1.08,0,0,0,81,8ZM61,4a1.08,1.08,0,0,1,1-1h5c1,0,2.5,3,2.5,3H78a1.08,1.08,0,0,1,1,1V8H61V4ZM79,19a1.08,1.08,0,0,1-1,1H62a1.08,1.08,0,0,1-1-1s-1-8.44-1-9a1,1,0,0,1,1-1H79a1.08,1.08,0,0,1,1,1C80,10.5,79,19,79,19Z"/></svg>