<svg xmlns="http://www.w3.org/2000/svg" width="82" height="24"><g><path fill="#39A6E6" fill-rule="evenodd" d="M65.8 12l3.6-3.6c.4-.4.4-1 0-1.4-.4-.4-1-.4-1.4 0l-4.1 4.1c-.1 0-.2.1-.2.2-.2.2-.3.5-.3.7 0 .3.1.5.3.7.1.1.2.1.2.2l4 4c.4.4 1 .4 1.4 0 .4-.4.4-1 0-1.4L65.8 12zM70 0c-6.6 0-12 5.4-12 12s5.4 12 12 12 12-5.4 12-12S76.6 0 70 0zm0 22c-5.5 0-10-4.5-10-10S64.5 2 70 2s10 4.5 10 10-4.5 10-10 10zm4.4-15c-.4-.4-1-.4-1.4 0l-4.1 4.1c-.1 0-.2.1-.2.2-.2.2-.3.5-.3.7 0 .3.1.5.3.7.1.1.2.1.2.2l4 4c.4.4 1 .4 1.4 0 .4-.4.4-1 0-1.4L70.8 12l3.6-3.6c.4-.4.4-1 0-1.4z" clip-rule="evenodd"/><path fill="#C8C8C8" fill-rule="evenodd" d="M36.8 12l3.6-3.6c.4-.4.4-1 0-1.4-.4-.4-1-.4-1.4 0l-4.1 4.1c-.1 0-.2.1-.2.2-.2.2-.3.5-.3.7 0 .3.1.5.3.7.1.1.2.1.2.2l4 4c.4.4 1 .4 1.4 0 .4-.4.4-1 0-1.4L36.8 12zm8.6-5c-.4-.4-1-.4-1.4 0l-4.1 4.1c-.1 0-.2.1-.2.2-.2.2-.3.5-.3.7 0 .3.1.5.3.7.1.1.2.1.2.2l4 4c.4.4 1 .4 1.4 0 .4-.4.4-1 0-1.4L41.8 12l3.6-3.6c.4-.4.4-1 0-1.4zM41 0c-6.6 0-12 5.4-12 12s5.4 12 12 12 12-5.4 12-12S47.6 0 41 0zm0 22c-5.5 0-10-4.5-10-10S35.5 2 41 2s10 4.5 10 10-4.5 10-10 10z" clip-rule="evenodd"/><path fill="#0089D9" fill-rule="evenodd" d="M0 12c0 6.6 5.4 12 12 12s12-5.4 12-12S18.6 0 12 0 0 5.4 0 12zm2 0C2 6.5 6.5 2 12 2s10 4.5 10 10-4.5 10-10 10S2 17.5 2 12zm8.9.9l4 4c.4.4 1 .4 1.4 0 .4-.4.4-1 0-1.4L12.8 12l3.6-3.6c.4-.4.4-1 0-1.4-.4-.4-1-.4-1.4 0l-4.1 4.1c-.1 0-.2.1-.2.2-.2.2-.3.5-.3.7 0 .3.1.5.3.7.1.1.1.2.2.2zm-5.2-1.6c-.2.2-.3.5-.3.7 0 .3.1.5.3.7.1.1.2.1.2.2l4 4c.4.4 1 .4 1.4 0 .4-.4.4-1 0-1.4L7.8 12l3.6-3.6c.4-.4.4-1 0-1.4-.4-.4-1-.4-1.4 0l-4.1 4.1c-.1 0-.1.1-.2.2z" clip-rule="evenodd"/></g></svg>