<svg xmlns="http://www.w3.org/2000/svg" width="82" height="24"><g><path fill="#D6565A" fill-rule="evenodd" d="M12 0C5.4 0 0 5.4 0 12s5.4 12 12 12 12-5.4 12-12S18.6 0 12 0zm0 22C6.5 22 2 17.5 2 12S6.5 2 12 2s10 4.5 10 10-4.5 10-10 10zm4.1-14.1c-.4-.4-1-.4-1.4 0L12 10.6 9.4 8c-.4-.4-1-.4-1.4 0-.4.4-.4 1 0 1.4l2.6 2.6L8 14.6c-.4.4-.4 1 0 1.4.4.4 1 .4 1.4 0l2.6-2.6 2.6 2.6c.4.4 1 .4 1.4 0 .4-.4.4-1 0-1.4L13.4 12l2.7-2.7c.4-.3.4-1 0-1.4z" clip-rule="evenodd"/><path fill="#C8C8C8" fill-rule="evenodd" d="M45.1 7.9c-.4-.4-1-.4-1.4 0L41 10.6 38.4 8c-.4-.4-1-.4-1.4 0-.4.4-.4 1 0 1.4l2.6 2.6-2.6 2.6c-.4.4-.4 1 0 1.4.4.4 1 .4 1.4 0l2.6-2.6 2.6 2.6c.4.4 1 .4 1.4 0 .4-.4.4-1 0-1.4L42.4 12l2.7-2.7c.4-.3.4-1 0-1.4zM41 0c-6.6 0-12 5.4-12 12s5.4 12 12 12 12-5.4 12-12S47.6 0 41 0zm0 22c-5.5 0-10-4.5-10-10S35.5 2 41 2s10 4.5 10 10-4.5 10-10 10z" clip-rule="evenodd"/><path fill="#E57377" fill-rule="evenodd" d="M70 0c-6.6 0-12 5.4-12 12s5.4 12 12 12 12-5.4 12-12S76.6 0 70 0zm0 22c-5.5 0-10-4.5-10-10S64.5 2 70 2s10 4.5 10 10-4.5 10-10 10zm4.1-14.1c-.4-.4-1-.4-1.4 0L70 10.6 67.4 8c-.4-.4-1-.4-1.4 0-.4.4-.4 1 0 1.4l2.6 2.6-2.6 2.6c-.4.4-.4 1 0 1.4.4.4 1 .4 1.4 0l2.6-2.6 2.6 2.6c.4.4 1 .4 1.4 0 .4-.4.4-1 0-1.4L71.4 12l2.7-2.7c.4-.3.4-1 0-1.4z" clip-rule="evenodd"/></g></svg>