<svg id="Cut" xmlns="http://www.w3.org/2000/svg" width="82" height="24" viewBox="0 0 82 24"><defs><style>.cls-1{fill:#0089d9;}.cls-1,.cls-2,.cls-3{fill-rule:evenodd;}.cls-2{fill:#d7d7d7;}.cls-3{fill:#39a6e6;}</style></defs><title>24</title><path class="cls-1" d="M19.36,18.37a4.08,4.08,0,0,0-4.24-2.27L13,14h1c5-4,5-14,5-14H18s-1.67,8.3-6.51,12.8C6.69,8.3,5,0,5,0H4S4,10,9,14h1L7.93,16.1a4.08,4.08,0,0,0-4.24,2.27c-1.16,2-.83,4.37.73,5.28s3.75,0,4.91-2a4.42,4.42,0,0,0,.27-4.21l1.35-1.35,0.58-.3,0.58,0.3,1.35,1.35a4.42,4.42,0,0,0,.27,4.21c1.16,2,3.35,2.91,4.91,2S20.51,20.38,19.36,18.37ZM7.65,20.92c-0.48,1-1.39,1.38-2,1a2,2,0,0,1-.3-2.5c0.48-1,1.52-1.68,2.17-1.25S8.13,20,7.65,20.92ZM12,15H11V14h1v1Zm5.42,6.87c-0.65.43-1.56,0-2-1s-0.48-2.37.17-2.8,1.69,0.3,2.17,1.25A2,2,0,0,1,17.44,21.88Z"/><path class="cls-2" d="M48.61,18.37a4.08,4.08,0,0,0-4.24-2.27L42.28,14h1c5-4,5-14,5-14h-1S45.6,8.3,40.77,12.8C35.94,8.3,34.28,0,34.28,0h-1s0,10,5,14h1L37.18,16.1a4.08,4.08,0,0,0-4.24,2.27c-1.16,2-.83,4.37.73,5.28s3.75,0,4.91-2a4.42,4.42,0,0,0,.27-4.21l1.35-1.35,0.58-.3,0.58,0.3,1.35,1.35A4.42,4.42,0,0,0,43,21.64c1.16,2,3.35,2.91,4.91,2S49.76,20.38,48.61,18.37ZM36.9,20.92c-0.48,1-1.39,1.38-2,1a2,2,0,0,1-.3-2.5c0.48-1,1.52-1.68,2.17-1.25S37.38,20,36.9,20.92ZM41.28,15h-1V14h1v1Zm5.42,6.87c-0.65.43-1.56,0-2-1s-0.48-2.37.17-2.8,1.69,0.3,2.17,1.25A2,2,0,0,1,46.69,21.88Z"/><path class="cls-3" d="M77.74,18.37A4.08,4.08,0,0,0,73.5,16.1L71.41,14h1c5-4,5-14,5-14h-1S74.73,8.3,69.9,12.8C65.07,8.3,63.41,0,63.41,0h-1s0,10,5,14h1L66.31,16.1a4.08,4.08,0,0,0-4.24,2.27c-1.16,2-.83,4.37.73,5.28s3.75,0,4.91-2A4.42,4.42,0,0,0,68,17.43l1.35-1.35,0.58-.3,0.58,0.3,1.35,1.35a4.42,4.42,0,0,0,.27,4.21c1.16,2,3.35,2.91,4.91,2S78.9,20.38,77.74,18.37ZM66,20.92c-0.48,1-1.39,1.38-2,1a2,2,0,0,1-.3-2.5c0.48-1,1.52-1.68,2.17-1.25S66.51,20,66,20.92ZM70.41,15h-1V14h1v1Zm5.42,6.87c-0.65.43-1.56,0-2-1s-0.48-2.37.17-2.8,1.69,0.3,2.17,1.25A2,2,0,0,1,75.82,21.88Z"/></svg>