<svg id="Email" xmlns="http://www.w3.org/2000/svg" width="82" height="24" viewBox="0 0 82 24"><defs><style>.cls-1{fill:#0089d9;}.cls-1,.cls-2,.cls-3{fill-rule:evenodd;}.cls-2{fill:#d7d7d7;}.cls-3{fill:#39a6e6;}</style></defs><title>24</title><path class="cls-1" d="M22,3H2A2,2,0,0,0,0,5V19a2,2,0,0,0,2,2H22a2,2,0,0,0,2-2V5A2,2,0,0,0,22,3ZM20.42,5L12,13,3.58,5H20.42ZM7.89,11.69L2,18.79V6.35ZM2.22,19L9.43,13.1c1,0.94,1.79,1.65,2,1.89a0.75,0.75,0,0,0,1.09,0c0.24-.24,1-0.95,2-1.88L21.78,19H2.22ZM22,18.78l-5.85-7.1L22,6.36V18.78Z"/><path class="cls-2" d="M51,3H31a2,2,0,0,0-2,2V19a2,2,0,0,0,2,2H51a2,2,0,0,0,2-2V5A2,2,0,0,0,51,3ZM49.42,5L41,13,32.58,5H49.42Zm-12.53,6.7L31,18.79V6.35ZM31.22,19l7.21-5.89c1,0.94,1.79,1.65,2,1.89a0.76,0.76,0,0,0,1.09,0c0.24-.24,1-0.95,2-1.88L50.78,19H31.22ZM51,18.78l-5.85-7.1L51,6.36V18.78Z"/><path class="cls-3" d="M80,3H60a2,2,0,0,0-2,2V19a2,2,0,0,0,2,2H80a2,2,0,0,0,2-2V5A2,2,0,0,0,80,3ZM78.42,5L70,13,61.58,5H78.42Zm-12.53,6.7L60,18.79V6.35ZM60.22,19l7.21-5.89c1,0.94,1.79,1.65,2,1.89a0.76,0.76,0,0,0,1.09,0c0.24-.24,1-0.95,2-1.88L79.78,19H60.22ZM80,18.78l-5.85-7.1L80,6.36V18.78Z"/></svg>