<svg id="Evaluate" xmlns="http://www.w3.org/2000/svg" width="82" height="24" viewBox="0 0 82 24"><defs><style>.cls-1{fill:#0089d9;}.cls-1,.cls-2,.cls-3{fill-rule:evenodd;}.cls-2{fill:#d7d7d7;}.cls-3{fill:#39a6e6;}</style></defs><title>24</title><path class="cls-1" d="M14,2a2,2,0,1,0-2,2A2,2,0,0,0,14,2Zm0,14a5.85,5.85,0,0,0,5,2,5.93,5.93,0,0,0,5-2l-1.3,0-3-10.05A1.4,1.4,0,0,0,21,4.5a0.5,0.5,0,0,0-1,0,0.72,0.72,0,0,1-.65.45,0.52,0.52,0,0,0-.69,0A0.79,0.79,0,0,1,18,4.5,0.5,0.5,0,0,0,17.5,4H6.5a0.5,0.5,0,0,0-.5.5A0.72,0.72,0,0,1,5.35,5a0.53,0.53,0,0,0-.69,0A0.79,0.79,0,0,1,4,4.5a0.5,0.5,0,0,0-1,0A1.4,1.4,0,0,0,4.28,5.93L1.28,16,0,16a5.93,5.93,0,0,0,5,2,5.86,5.86,0,0,0,5-2L8.7,16l-3-10A1.28,1.28,0,0,0,6.94,5H11V22H10c-1,0-3,.89-3,1.44S7.45,24,8,24h8c0.55,0,1,0,1-.56S15,22,14,22H13V5h4.06a1.28,1.28,0,0,0,1.21,1l-3,10ZM7.28,16H2.61L5,8ZM19,8l2.28,8H16.61Z"/><path class="cls-2" d="M43,2a2,2,0,1,0-2,2A2,2,0,0,0,43,2Zm0,14a5.85,5.85,0,0,0,5,2,5.93,5.93,0,0,0,5-2l-1.3,0-3-10.05A1.4,1.4,0,0,0,50,4.5a0.5,0.5,0,0,0-1,0,0.72,0.72,0,0,1-.65.45,0.52,0.52,0,0,0-.69,0A0.79,0.79,0,0,1,47,4.5,0.5,0.5,0,0,0,46.5,4h-11a0.5,0.5,0,0,0-.5.5,0.72,0.72,0,0,1-.65.45,0.53,0.53,0,0,0-.69,0A0.79,0.79,0,0,1,33,4.5a0.5,0.5,0,0,0-1,0,1.4,1.4,0,0,0,1.28,1.43L30.28,16,29,16a5.93,5.93,0,0,0,5,2,5.86,5.86,0,0,0,5-2l-1.3,0-3-10a1.28,1.28,0,0,0,1.21-1H40V22H39c-1,0-3,.89-3,1.44S36.45,24,37,24h8c0.55,0,1,0,1-.56S44,22,43,22H42V5h4.06a1.28,1.28,0,0,0,1.21,1l-3,10Zm-6.72,0H31.61L34,8ZM48,8l2.28,8H45.61Z"/><path class="cls-3" d="M72,2a2,2,0,1,0-2,2A2,2,0,0,0,72,2Zm0,14a5.85,5.85,0,0,0,5,2,5.93,5.93,0,0,0,5-2l-1.3,0-3-10.05A1.4,1.4,0,0,0,79,4.5a0.5,0.5,0,0,0-1,0,0.72,0.72,0,0,1-.65.45,0.52,0.52,0,0,0-.69,0A0.79,0.79,0,0,1,76,4.5,0.5,0.5,0,0,0,75.5,4h-11a0.5,0.5,0,0,0-.5.5,0.72,0.72,0,0,1-.65.45,0.53,0.53,0,0,0-.69,0A0.79,0.79,0,0,1,62,4.5a0.5,0.5,0,0,0-1,0,1.4,1.4,0,0,0,1.28,1.43L59.28,16,58,16a5.93,5.93,0,0,0,5,2,5.86,5.86,0,0,0,5-2l-1.3,0-3-10a1.28,1.28,0,0,0,1.21-1H69V22H68c-1,0-3,.89-3,1.44S65.45,24,66,24h8c0.55,0,1,0,1-.56S73,22,72,22H71V5h4.06a1.28,1.28,0,0,0,1.21,1l-3,10Zm-6.72,0H60.61L63,8ZM77,8l2.28,8H74.61Z"/></svg>