<svg id="Filter" xmlns="http://www.w3.org/2000/svg" width="82" height="24" viewBox="0 0 82 24"><defs><style>.cls-1{fill:#0089d9;}.cls-1,.cls-2,.cls-3{fill-rule:evenodd;}.cls-2{fill:#d7d7d7;}.cls-3{fill:#39a6e6;}</style></defs><title>24</title><path class="cls-1" d="M0,1V4c0,7,9,7,9,12v8l6-3V16c0-5,9-5,9-12V1H0ZM22,4.41c0,5-9,5.59-9,11.59v3.5l-2,1.22S11,18,11,16c0-6-9-6.47-9-11.47V3H22V4.41Z"/><path class="cls-2" d="M29,1V4c0,7,9,7,9,12v8l6-3V16c0-5,9-5,9-12V1H29ZM51,4.41c0,5-9,5.59-9,11.59v3.5l-2,1.22S40,18,40,16c0-6-9-6.47-9-11.47V3H51V4.41Z"/><path class="cls-3" d="M58,1V4c0,7,9,7,9,12v8l6-3V16c0-5,9-5,9-12V1H58ZM80,4.41c0,5-9,5.59-9,11.59v3.5l-2,1.22S69,18,69,16c0-6-9-6.47-9-11.47V3H80V4.41Z"/></svg>