<svg xmlns="http://www.w3.org/2000/svg" width="82" height="24"><g><path fill="#0089D9" fill-rule="evenodd" d="M10.7 11.3c-.1-.1-.1-.1-.2-.2L7.4 8c-.4-.4-1-.4-1.4 0-.4.4-.4 1 0 1.4L8.5 12 6 14.5c-.4.4-.4 1 0 1.4.4.4 1 .4 1.4 0l3-3c.1 0 .2-.1.2-.2.2-.2.3-.5.3-.7.1-.3 0-.5-.2-.7zm4.8-.2L12.4 8c-.4-.4-1-.4-1.4 0-.4.4-.4 1 0 1.4l2.6 2.6-2.6 2.5c-.4.4-.4 1 0 1.4.4.4 1 .4 1.4 0l3-3c.1 0 .2-.1.2-.2.2-.2.3-.5.3-.7 0-.3-.1-.5-.3-.7 0-.1-.1-.2-.1-.2zM12 0C5.4 0 0 5.4 0 12s5.4 12 12 12 12-5.4 12-12S18.6 0 12 0zm0 22C6.5 22 2 17.5 2 12S6.5 2 12 2s10 4.5 10 10-4.5 10-10 10zm6-14c-.6 0-1 .4-1 1v6c0 .6.4 1 1 1s1-.4 1-1V9c0-.5-.4-1-1-1z" clip-rule="evenodd"/><path fill="#C8C8C8" fill-rule="evenodd" d="M44.5 11.1L41.4 8c-.4-.4-1-.4-1.4 0-.4.4-.4 1 0 1.4l2.6 2.6-2.6 2.5c-.4.4-.4 1 0 1.4.4.4 1 .4 1.4 0l3-3c.1 0 .2-.1.2-.2.2-.2.3-.5.3-.7 0-.3-.1-.5-.3-.7 0-.1-.1-.2-.1-.2zm-4.8.2c-.1-.1-.1-.1-.2-.2L36.4 8c-.4-.4-1-.4-1.4 0-.4.4-.4 1 0 1.4l2.6 2.6-2.6 2.5c-.4.4-.4 1 0 1.4.4.4 1 .4 1.4 0l3-3c.1 0 .2-.1.2-.2.2-.2.3-.5.3-.7.1-.3 0-.5-.2-.7zM41 0c-6.6 0-12 5.4-12 12s5.4 12 12 12 12-5.4 12-12S47.6 0 41 0zm0 22c-5.5 0-10-4.5-10-10S35.5 2 41 2s10 4.5 10 10-4.5 10-10 10zm6-14c-.6 0-1 .4-1 1v6c0 .6.4 1 1 1s1-.4 1-1V9c0-.5-.4-1-1-1z" clip-rule="evenodd"/><path fill="#39A6E6" fill-rule="evenodd" d="M73.5 11.1L70.4 8c-.4-.4-1-.4-1.4 0-.4.4-.4 1 0 1.4l2.6 2.6-2.6 2.5c-.4.4-.4 1 0 1.4.4.4 1 .4 1.4 0l3-3c.1 0 .2-.1.2-.2.2-.2.3-.5.3-.7 0-.3-.1-.5-.3-.7 0-.1-.1-.2-.1-.2zm-4.8.2c-.1-.1-.1-.1-.2-.2L65.4 8c-.4-.4-1-.4-1.4 0-.4.4-.4 1 0 1.4l2.6 2.6-2.6 2.5c-.4.4-.4 1 0 1.4.4.4 1 .4 1.4 0l3-3c.1 0 .2-.1.2-.2.2-.2.3-.5.3-.7.1-.3 0-.5-.2-.7zM76 8c-.6 0-1 .4-1 1v6c0 .6.4 1 1 1s1-.4 1-1V9c0-.5-.4-1-1-1zm-6-8c-6.6 0-12 5.4-12 12s5.4 12 12 12 12-5.4 12-12S76.6 0 70 0zm0 22c-5.5 0-10-4.5-10-10S64.5 2 70 2s10 4.5 10 10-4.5 10-10 10z" clip-rule="evenodd"/></g></svg>