<svg xmlns="http://www.w3.org/2000/svg" width="140" height="24"><path fill="#0089D9" d="M128 0c-6.6 0-12 5.4-12 12s5.4 12 12 12 12-5.4 12-12-5.4-12-12-12zm1 18h-2v-2h2v2zm1.1-5.3c-.6.5-1.4 1.1-1.4 2.3h-1.4c0-1.5.7-2.7 1.8-3.5.6-.4.7-1 .7-1.6 0-.8-.8-1.6-1.8-1.6-1.8 0-2.4 1.6-2.4 1.6s-1.8.7-1.3-1c.5-1.5 1.9-2.7 3.7-2.8 2-.1 3.7 1.5 3.8 3.6 0 1.5-.8 2.2-1.7 3z"/><path fill="#0089D9" fill-rule="evenodd" d="M99 0c-6.6 0-12 5.4-12 12s5.4 12 12 12 12-5.4 12-12-5.4-12-12-12zm.4 6c.8 0 1.5.7 1.5 1.5S100.2 9 99.4 9s-1.5-.7-1.5-1.5.6-1.5 1.5-1.5zm1.6 10.3c-.7 1.1-1.5 1.6-2.7 1.6-1 0-1.9-1-1.7-1.6L98 12c0-.1 0-.3-.1-.3-.9.1-1.8.6-1.8.6 0-.2 0-.1 0-.3.7-1.1 2.2-2.1 3.4-2 .7.1.8.9.7 1.6L99 16c0 .3.2.5.5.5.5 0 1.5-1.1 1.5-1.1 0 .3 0 .8 0 .9z" clip-rule="evenodd"/><path fill="#FF8B00" d="M81.5 20.9c-.6-1.1-9-16.8-10-18.9 0 0-.4-1.1-1.6-1.1C68.7.9 68.3 2 68.3 2c-1 2-9.4 17.8-10 18.9-.8 1.8-.2 3.1 1.7 3.1h20c1.9 0 2.5-1.3 1.5-3.1zM70 8c.6 0 1.3.4 1.3 1l-.5 6.2c0 .5-.3.8-.8.8-.6 0-.9-.3-.9-.8L68.7 9c0-.5.7-1 1.3-1zm0 12c-.8 0-1.5-.7-1.5-1.5S69.2 17 70 17s1.5.7 1.5 1.5S70.8 20 70 20z"/><path fill="#D6565A" d="M41 0c-6.6 0-12 5.4-12 12s5.4 12 12 12 12-5.4 12-12S47.6 0 41 0zm0 6c.6 0 1.3.4 1.3 1l-.4 6.2c0 .5-.3.8-.8.8-.6 0-.9-.3-.9-.8L39.7 7c0-.5.7-1 1.3-1zm0 12c-.8 0-1.5-.7-1.5-1.5S40.2 15 41 15s1.5.7 1.5 1.5S41.8 18 41 18z"/><path fill="#68A611" fill-rule="evenodd" d="M12 0C5.4 0 0 5.4 0 12s5.4 12 12 12 12-5.4 12-12S18.7 0 12 0zm-1.8 16.8c-1.6-2-3.3-4-3.3-4l.9-.9s1.3 1.1 2.5 2.5c3.8-4.5 7.1-6.7 7.1-6.7l.5.6s-3.6 3.5-7.7 8.5z" clip-rule="evenodd"/></svg>