<svg id="Link" xmlns="http://www.w3.org/2000/svg" width="82" height="24" viewBox="0 0 82 24"><defs><style>.cls-1{fill:#0089d9;}.cls-1,.cls-2,.cls-3{fill-rule:evenodd;}.cls-2{fill:#d7d7d7;}.cls-3{fill:#39a6e6;}</style></defs><title>24</title><path class="cls-1" d="M10,17.52h0L7.54,20A2.5,2.5,0,0,1,4,16.46L6.48,14h0l3-3a4.49,4.49,0,0,0-4.06,1.23L2.59,15A4.5,4.5,0,0,0,9,21.41l2.83-2.83A4.49,4.49,0,0,0,13,14.52ZM21.68,2.32a4.5,4.5,0,0,0-6.36,0L12.49,5.15a4.49,4.49,0,0,0-1.23,4.06l2.29-2.29a2,2,0,0,1,.2-0.16,2.45,2.45,0,0,1,.16-0.19l2.83-2.83a2.5,2.5,0,1,1,3.54,3.54L17.44,10.1a2.45,2.45,0,0,1-.19.16,2,2,0,0,1-.16.2L14.8,12.74a4.49,4.49,0,0,0,4.06-1.23l2.83-2.83A4.5,4.5,0,0,0,21.68,2.32ZM10,15.56l5.9-5.78a1.21,1.21,0,0,0-1.71-1.71L8.44,14A1.12,1.12,0,1,0,10,15.56Z"/><path class="cls-2" d="M39,17.52h0L36.54,20A2.5,2.5,0,0,1,33,16.46L35.48,14h0l3-3a4.49,4.49,0,0,0-4.06,1.23L31.59,15A4.5,4.5,0,0,0,38,21.41l2.83-2.83A4.49,4.49,0,0,0,42,14.52ZM50.68,2.32a4.5,4.5,0,0,0-6.36,0L41.49,5.15a4.49,4.49,0,0,0-1.23,4.06l2.29-2.29a2,2,0,0,1,.2-0.16,2.44,2.44,0,0,1,.16-0.19l2.83-2.83a2.5,2.5,0,0,1,3.54,3.54L46.44,10.1a2.46,2.46,0,0,1-.19.16,2,2,0,0,1-.16.2L43.8,12.74a4.49,4.49,0,0,0,4.06-1.23l2.83-2.83A4.5,4.5,0,0,0,50.68,2.32ZM39,15.56l5.9-5.78a1.21,1.21,0,0,0-1.71-1.71L37.44,14A1.12,1.12,0,1,0,39,15.56Z"/><path class="cls-3" d="M68,17.52h0L65.54,20A2.5,2.5,0,0,1,62,16.46L64.48,14h0l3-3a4.49,4.49,0,0,0-4.06,1.23L60.59,15A4.5,4.5,0,1,0,67,21.41l2.83-2.83A4.49,4.49,0,0,0,71,14.52ZM79.68,2.32a4.5,4.5,0,0,0-6.36,0L70.49,5.15a4.49,4.49,0,0,0-1.23,4.06l2.29-2.29a2,2,0,0,1,.2-0.16,2.44,2.44,0,0,1,.16-0.19l2.83-2.83a2.5,2.5,0,1,1,3.54,3.54L75.44,10.1a2.46,2.46,0,0,1-.19.16,2,2,0,0,1-.16.2L72.8,12.74a4.49,4.49,0,0,0,4.06-1.23l2.83-2.83A4.5,4.5,0,0,0,79.68,2.32ZM68,15.56l5.9-5.78a1.21,1.21,0,0,0-1.71-1.71L66.44,14A1.12,1.12,0,1,0,68,15.56Z"/></svg>