<svg id="Note_Blank" data-name="Note Blank" xmlns="http://www.w3.org/2000/svg" width="82" height="24" viewBox="0 0 82 24"><defs><style>.cls-1{fill:#0089d9;}.cls-1,.cls-2,.cls-3{fill-rule:evenodd;}.cls-2{fill:#d7d7d7;}.cls-3{fill:#39a6e6;}</style></defs><title>24</title><path class="cls-1" d="M24,2a2.15,2.15,0,0,0-2-2H2A2.15,2.15,0,0,0,0,2C0,2.46,0,21.49,0,22a2.15,2.15,0,0,0,2,2H18l6-6S24,2.49,24,2ZM16,22H2V2H22V16H16v6Zm2,0h0V18h4Z"/><path class="cls-2" d="M53,2a2.15,2.15,0,0,0-2-2H31a2.15,2.15,0,0,0-2,2c0,0.46,0,19.49,0,20a2.15,2.15,0,0,0,2,2H47l6-6S53,2.49,53,2ZM45,22H31V2H51V16H45v6Zm2,0h0V18h4Z"/><path class="cls-3" d="M82,2a2.15,2.15,0,0,0-2-2H60a2.15,2.15,0,0,0-2,2c0,0.46,0,19.49,0,20a2.15,2.15,0,0,0,2,2H76l6-6S82,2.49,82,2ZM74,22H60V2H80V16H74v6Zm2,0h0V18h4Z"/></svg>