<svg id="Note" xmlns="http://www.w3.org/2000/svg" width="111" height="24" viewBox="0 0 111 24"><defs><style>.cls-1{fill:#0089d9;}.cls-1,.cls-2,.cls-3{fill-rule:evenodd;}.cls-2{fill:#d7d7d7;}.cls-3{fill:#39a6e6;}</style></defs><title>24</title><path class="cls-1" d="M17.56,5.39h0l-0.15.15-0.35.35h0l-3.5,3.5v1h1l3.5-3.5L19,7.84l-7.73,7.71,2.13,2.13L24.2,7,22,4.82l-2,2-2-1.95Zm-7.09,11L8.8,20.17l3.8-1.69,0.1-.1-2.13-2.13ZM18,22H2V8H8V2H18V3l2,2V0H6V0.28l-6,6V24H20V13l-2,2v7ZM6,2.49V6H2.41Z"/><path class="cls-2" d="M39.47,16.36L37.8,20.17l3.8-1.69,0.1-.1-2.13-2.13Zm7.09-11h0l-0.15.15-0.35.35h0l-3.5,3.5v1h1l3.5-3.5L48,7.84l-7.73,7.71,2.13,2.13L53.2,7,51,4.82l-2,2-2-1.95ZM47,22H31V8h6V2H47V3l2,2V0H35V0.28l-6,6V24H49V13l-2,2v7ZM35,2.49V6H31.41Z"/><path class="cls-3" d="M75.56,5.39h0l-0.15.15-0.35.35h0l-3.5,3.5v1h1l3.5-3.5L77,7.84l-7.73,7.71,2.13,2.13L82.2,7,80,4.82l-2,2-2-1.95ZM76,22H60V8h6V2H76V3l2,2V0H64V0.28l-6,6V24H78V13l-2,2v7ZM64,2.49V6H60.41Zm4.47,13.87L66.8,20.17l3.8-1.69,0.1-.1-2.13-2.13Z"/><path class="cls-1" d="M104.06,5.89h0l-3.5,3.5v1h1l3.5-3.5L106,7.84l-7.73,7.71,2.13,2.13L111.2,7,109,4.82l-2,2-2-1.95ZM97.47,16.36L95.8,20.17l3.8-1.69,0.1-.1-2.13-2.13ZM93,0.28L87.25,6H93V0.28ZM94,22l2-6,4-4H99V9l6-6,2,2V0H94V7H87V6.25h0V24h20V13l-7,7Z"/></svg>