<svg xmlns="http://www.w3.org/2000/svg" width="82" height="24"><g><path fill="#68A611" fill-rule="evenodd" d="M12 0C5.4 0 0 5.4 0 12s5.4 12 12 12 12-5.4 12-12S18.6 0 12 0zm0 22C6.5 22 2 17.5 2 12S6.5 2 12 2s10 4.5 10 10-4.5 10-10 10zm3.8-13.7l-5.2 5.2-2.1-2.1c-.4-.4-1-.4-1.4 0-.4.4-.4 1 0 1.4l2.6 2.6c0 .1.1.2.1.2.3.3.8.4 1.1.2.1 0 .2-.1.3-.2l5.9-5.9c.4-.4.4-1 0-1.4-.3-.4-.9-.4-1.3 0z" clip-rule="evenodd"/><path fill="#C8C8C8" fill-rule="evenodd" d="M41 0c-6.6 0-12 5.4-12 12s5.4 12 12 12 12-5.4 12-12S47.6 0 41 0zm0 22c-5.5 0-10-4.5-10-10S35.5 2 41 2s10 4.5 10 10-4.5 10-10 10zm3.8-13.7l-5.2 5.2-2.1-2.1c-.4-.4-1-.4-1.4 0-.4.4-.4 1 0 1.4l2.6 2.6c0 .1.1.2.1.2.3.3.8.4 1.1.2.1 0 .2-.1.3-.2l5.9-5.9c.4-.4.4-1 0-1.4-.3-.4-.9-.4-1.3 0z" clip-rule="evenodd"/><path fill="#8EC928" fill-rule="evenodd" d="M73.8 8.3l-5.2 5.2-2.1-2.1c-.4-.4-1-.4-1.4 0-.4.4-.4 1 0 1.4l2.6 2.6c0 .1.1.2.1.2.3.3.8.4 1.1.2.1 0 .2-.1.3-.2l5.9-5.9c.4-.4.4-1 0-1.4-.3-.4-.9-.4-1.3 0zM70 0c-6.6 0-12 5.4-12 12s5.4 12 12 12 12-5.4 12-12S76.6 0 70 0zm0 22c-5.5 0-10-4.5-10-10S64.5 2 70 2s10 4.5 10 10-4.5 10-10 10z" clip-rule="evenodd"/></g></svg>