<svg id="PDF" xmlns="http://www.w3.org/2000/svg" width="82" height="24" viewBox="0 0 82 24"><defs><style>.cls-1{fill:#0089d9;}.cls-1,.cls-3,.cls-5{fill-rule:evenodd;}.cls-2{fill:#d6565a;}.cls-3,.cls-4{fill:#d7d7d7;}.cls-5{fill:#39a6e6;}.cls-6{fill:#e57377;}</style></defs><title>24</title><path class="cls-1" d="M16,0.28V0H2V24H22V6.25ZM19.59,6H16V2.49ZM4,22V2H14V8h6V22H4Z"/><path class="cls-2" d="M5.95,20.19a1.08,1.08,0,0,1-.49-0.12l-0.34-.17a0.58,0.58,0,0,1-.23-0.65c0.14-.67.8-1.16,2-1.9l0.79-.43,0.13,0.18c0.4-.67.85-1.48,1.37-2.48l0.07-.13c0.4-.78.85-1.66,1.21-2.54l0.13-.31c-0.51-1.94-.79-3.44-0.51-4.45A0.86,0.86,0,0,1,11,6.65h0.2a0.84,0.84,0,0,1,.71.94,5,5,0,0,1-.1,1.13l-0.24-.15a2.2,2.2,0,0,0-.13-0.9,2,2,0,0,0-.28-0.48,0.6,0.6,0,0,0,0,.12,5.06,5.06,0,0,0-.07.82,8.31,8.31,0,0,0,.2,1.69l0.31-1.21,0.24,0.06A16.53,16.53,0,0,1,11.73,11l-0.07.28a7.52,7.52,0,0,0,1.86,2.88,5.5,5.5,0,0,0,1,.71,3.33,3.33,0,0,0,2.11.09h0.12a8.41,8.41,0,0,1,1.88.2,0.56,0.56,0,0,1,.25.56,1.51,1.51,0,0,1,0,.32L18.58,16l0.28,0.13a2.1,2.1,0,0,1-.16.5,0.89,0.89,0,0,1-.46.32,1.73,1.73,0,0,1-.44,0,8.73,8.73,0,0,1-3.69-1.17c-1.6.24-3.48,0.8-5,1.19C7.7,19.45,6.83,20.19,5.95,20.19Zm1.4-2.38a5.22,5.22,0,0,0-1.52,1.62,4.08,4.08,0,0,0,1.66-1.74ZM16,15.61a6.44,6.44,0,0,0,2.09.55,0.68,0.68,0,0,0,.27,0A0.76,0.76,0,0,0,18.5,16h0a1.39,1.39,0,0,0-.54-0.27,4.12,4.12,0,0,0-1.16-.12Zm-4.85-2.77a21.32,21.32,0,0,1-1,2.26l-0.56,1a8.38,8.38,0,0,1,3.54-1L12.88,15A7.7,7.7,0,0,1,11.15,12.84Z"/><path class="cls-2" d="M6.09,20a1.08,1.08,0,0,1-.49-0.12l-0.34-.17A0.58,0.58,0,0,1,5,19.12c0.14-.67.8-1.16,2-1.9l0.79-.43L8,17c0.4-.67.85-1.48,1.37-2.48l0.07-.13c0.4-.78.85-1.66,1.21-2.54l0.13-.3C10.24,9.58,10,8.08,10.23,7.07a0.87,0.87,0,0,1,.88-0.56h0.2a0.84,0.84,0,0,1,.71.94,5,5,0,0,1-.1,1.13l-0.24-.15a2.2,2.2,0,0,0-.13-0.9,2,2,0,0,0-.28-0.48,0.59,0.59,0,0,0,0,.12,5.07,5.07,0,0,0-.07.82,8.33,8.33,0,0,0,.2,1.69l0.31-1.21,0.24,0.06a16.59,16.59,0,0,1-.05,2.33l-0.07.28A7.52,7.52,0,0,0,13.67,14a5.51,5.51,0,0,0,1,.71,3.34,3.34,0,0,0,2.11.09h0.12a8.42,8.42,0,0,1,1.88.2,0.56,0.56,0,0,1,.25.56,1.51,1.51,0,0,1,0,.32l-0.28-.07L19,16a2.11,2.11,0,0,1-.16.5,0.89,0.89,0,0,1-.46.32,1.74,1.74,0,0,1-.44,0,8.74,8.74,0,0,1-3.69-1.17c-1.6.24-3.48,0.8-5,1.19C7.84,19.3,7,20,6.09,20Zm1.4-2.39A5.23,5.23,0,0,0,6,19.28a4.08,4.08,0,0,0,1.66-1.74Zm8.65-2.2a6.43,6.43,0,0,0,2.09.55,0.68,0.68,0,0,0,.27,0,0.75,0.75,0,0,0,.15-0.15h0a1.38,1.38,0,0,0-.54-0.27,4.09,4.09,0,0,0-1.16-.12ZM11.29,12.7a21.33,21.33,0,0,1-1,2.26L9.69,16a8.37,8.37,0,0,1,3.54-1L13,14.82A7.69,7.69,0,0,1,11.29,12.7Z"/><path class="cls-3" d="M45,0.28V0H31V24H51V6.25ZM48.59,6H45V2.49ZM33,22V2H43V8h6V22H33Z"/><path class="cls-4" d="M34.95,20.19a1.08,1.08,0,0,1-.49-0.12l-0.34-.17a0.58,0.58,0,0,1-.23-0.65c0.14-.67.8-1.16,2-1.9l0.79-.43,0.13,0.18c0.4-.67.85-1.48,1.37-2.48l0.07-.13c0.4-.78.85-1.66,1.21-2.54l0.13-.31c-0.51-1.94-.79-3.44-0.51-4.45A0.86,0.86,0,0,1,40,6.65h0.2a0.84,0.84,0,0,1,.71.94,5,5,0,0,1-.1,1.13l-0.24-.15a2.2,2.2,0,0,0-.13-0.9,2,2,0,0,0-.28-0.48,0.6,0.6,0,0,0,0,.12,5.06,5.06,0,0,0-.07.82,8.31,8.31,0,0,0,.2,1.69l0.31-1.21,0.24,0.06A16.53,16.53,0,0,1,40.73,11l-0.07.28a7.52,7.52,0,0,0,1.86,2.88,5.5,5.5,0,0,0,1,.71,3.33,3.33,0,0,0,2.11.09h0.12a8.41,8.41,0,0,1,1.88.2,0.56,0.56,0,0,1,.25.56,1.51,1.51,0,0,1,0,.32L47.58,16l0.28,0.13a2.1,2.1,0,0,1-.16.5,0.89,0.89,0,0,1-.46.32,1.73,1.73,0,0,1-.44,0,8.73,8.73,0,0,1-3.69-1.17c-1.6.24-3.48,0.8-5,1.19C36.7,19.45,35.83,20.19,34.95,20.19Zm1.4-2.38a5.22,5.22,0,0,0-1.52,1.62,4.08,4.08,0,0,0,1.66-1.74ZM45,15.61a6.44,6.44,0,0,0,2.09.55,0.68,0.68,0,0,0,.27,0A0.76,0.76,0,0,0,47.5,16h0a1.39,1.39,0,0,0-.54-0.27,4.12,4.12,0,0,0-1.16-.12Zm-4.85-2.77a21.32,21.32,0,0,1-1,2.26l-0.56,1a8.38,8.38,0,0,1,3.54-1L41.88,15A7.7,7.7,0,0,1,40.15,12.84Z"/><path class="cls-4" d="M35.09,20a1.08,1.08,0,0,1-.49-0.12l-0.34-.17A0.58,0.58,0,0,1,34,19.12c0.14-.67.8-1.16,2-1.9l0.79-.43L37,17c0.4-.67.85-1.48,1.37-2.48l0.07-.13c0.4-.78.85-1.66,1.21-2.54l0.13-.3C39.24,9.58,39,8.08,39.23,7.07a0.87,0.87,0,0,1,.88-0.56h0.2a0.84,0.84,0,0,1,.71.94,5,5,0,0,1-.1,1.13l-0.24-.15a2.2,2.2,0,0,0-.13-0.9,2,2,0,0,0-.28-0.48,0.59,0.59,0,0,0,0,.12,5.07,5.07,0,0,0-.07.82,8.33,8.33,0,0,0,.2,1.69l0.31-1.21,0.24,0.06a16.59,16.59,0,0,1-.05,2.33l-0.07.28A7.52,7.52,0,0,0,42.67,14a5.51,5.51,0,0,0,1,.71,3.34,3.34,0,0,0,2.11.09h0.12a8.42,8.42,0,0,1,1.88.2,0.56,0.56,0,0,1,.25.56,1.51,1.51,0,0,1,0,.32l-0.28-.07L48,16a2.11,2.11,0,0,1-.16.5,0.89,0.89,0,0,1-.46.32,1.74,1.74,0,0,1-.44,0,8.74,8.74,0,0,1-3.69-1.17c-1.6.24-3.48,0.8-5,1.19C36.84,19.3,36,20,35.09,20Zm1.4-2.39A5.23,5.23,0,0,0,35,19.28a4.08,4.08,0,0,0,1.66-1.74Zm8.65-2.2a6.43,6.43,0,0,0,2.09.55,0.68,0.68,0,0,0,.27,0,0.75,0.75,0,0,0,.15-0.15h0a1.38,1.38,0,0,0-.54-0.27,4.09,4.09,0,0,0-1.16-.12ZM40.29,12.7a21.33,21.33,0,0,1-1,2.26l-0.56,1a8.37,8.37,0,0,1,3.54-1L42,14.82A7.69,7.69,0,0,1,40.29,12.7Z"/><path class="cls-5" d="M74,0.28V0H60V24H80V6.25ZM77.59,6H74V2.49ZM62,22V2H72V8h6V22H62Z"/><path class="cls-6" d="M63.95,20.19a1.08,1.08,0,0,1-.49-0.12l-0.34-.17a0.58,0.58,0,0,1-.23-0.65c0.14-.67.8-1.16,2-1.9l0.79-.43,0.13,0.18c0.4-.67.85-1.48,1.37-2.48l0.07-.13c0.4-.78.85-1.66,1.21-2.54l0.13-.31c-0.51-1.94-.79-3.44-0.51-4.45A0.86,0.86,0,0,1,69,6.65h0.2a0.84,0.84,0,0,1,.71.94,5,5,0,0,1-.1,1.13l-0.24-.15a2.2,2.2,0,0,0-.13-0.9,2,2,0,0,0-.28-0.48,0.6,0.6,0,0,0,0,.12,5.06,5.06,0,0,0-.07.82,8.31,8.31,0,0,0,.2,1.69l0.31-1.21,0.24,0.06A16.53,16.53,0,0,1,69.73,11l-0.07.28a7.52,7.52,0,0,0,1.86,2.88,5.5,5.5,0,0,0,1,.71,3.33,3.33,0,0,0,2.11.09h0.12a8.41,8.41,0,0,1,1.88.2,0.56,0.56,0,0,1,.25.56,1.51,1.51,0,0,1,0,.32L76.58,16l0.28,0.13a2.1,2.1,0,0,1-.16.5,0.89,0.89,0,0,1-.46.32,1.73,1.73,0,0,1-.44,0,8.73,8.73,0,0,1-3.69-1.17c-1.6.24-3.48,0.8-5,1.19C65.7,19.45,64.83,20.19,63.95,20.19Zm1.4-2.38a5.22,5.22,0,0,0-1.52,1.62,4.08,4.08,0,0,0,1.66-1.74ZM74,15.61a6.44,6.44,0,0,0,2.09.55,0.68,0.68,0,0,0,.27,0A0.76,0.76,0,0,0,76.5,16h0a1.39,1.39,0,0,0-.54-0.27,4.12,4.12,0,0,0-1.16-.12Zm-4.85-2.77a21.32,21.32,0,0,1-1,2.26l-0.56,1a8.38,8.38,0,0,1,3.54-1L70.88,15A7.7,7.7,0,0,1,69.15,12.84Z"/><path class="cls-6" d="M64.09,20a1.08,1.08,0,0,1-.49-0.12l-0.34-.17A0.58,0.58,0,0,1,63,19.12c0.14-.67.8-1.16,2-1.9l0.79-.43L66,17c0.4-.67.85-1.48,1.37-2.48l0.07-.13c0.4-.78.85-1.66,1.21-2.54l0.13-.3C68.24,9.58,68,8.08,68.23,7.07a0.87,0.87,0,0,1,.88-0.56h0.2a0.84,0.84,0,0,1,.71.94,5,5,0,0,1-.1,1.13l-0.24-.15a2.2,2.2,0,0,0-.13-0.9,2,2,0,0,0-.28-0.48,0.59,0.59,0,0,0,0,.12,5.07,5.07,0,0,0-.07.82,8.33,8.33,0,0,0,.2,1.69l0.31-1.21,0.24,0.06a16.59,16.59,0,0,1-.05,2.33l-0.07.28A7.52,7.52,0,0,0,71.67,14a5.51,5.51,0,0,0,1,.71,3.34,3.34,0,0,0,2.11.09h0.12a8.42,8.42,0,0,1,1.88.2,0.56,0.56,0,0,1,.25.56,1.51,1.51,0,0,1,0,.32l-0.28-.07L77,16a2.11,2.11,0,0,1-.16.5,0.89,0.89,0,0,1-.46.32,1.74,1.74,0,0,1-.44,0,8.74,8.74,0,0,1-3.69-1.17c-1.6.24-3.48,0.8-5,1.19C65.84,19.3,65,20,64.09,20Zm1.4-2.39A5.23,5.23,0,0,0,64,19.28a4.08,4.08,0,0,0,1.66-1.74Zm8.65-2.2a6.43,6.43,0,0,0,2.09.55,0.68,0.68,0,0,0,.27,0,0.75,0.75,0,0,0,.15-0.15h0a1.38,1.38,0,0,0-.54-0.27,4.09,4.09,0,0,0-1.16-.12ZM69.29,12.7a21.33,21.33,0,0,1-1,2.26l-0.56,1a8.37,8.37,0,0,1,3.54-1L71,14.82A7.69,7.69,0,0,1,69.29,12.7Z"/></svg>