<svg id="Office_PowerPoint" data-name="Office PowerPoint" xmlns="http://www.w3.org/2000/svg" width="82" height="24" viewBox="0 0 82 24"><defs><style>.cls-1{fill:#0089d9;}.cls-1,.cls-3,.cls-5{fill-rule:evenodd;}.cls-2{fill:#f28d00;}.cls-3,.cls-4{fill:#d7d7d7;}.cls-5{fill:#39a6e6;}</style></defs><title>24</title><path class="cls-1" d="M17,0.28V0H3V24H23V6.25ZM20.59,6H17V2.49ZM5,22V2H15V8h6V22H5Z"/><path class="cls-2" d="M13,9.91h0A5,5,0,1,0,18,15H13V9.91Z"/><path class="cls-2" d="M14,14h5a4.88,4.88,0,0,0-5-5v5Z"/><path class="cls-3" d="M46,0.28V0H32V24H52V6.25ZM49.59,6H46V2.49ZM34,22V2H44V8h6V22H34Z"/><path class="cls-4" d="M42,9.91h0A5,5,0,1,0,47,15H42V9.91Z"/><path class="cls-4" d="M43,14h5a4.88,4.88,0,0,0-5-5v5Z"/><path class="cls-5" d="M75,0.28V0H61V24H81V6.25ZM78.59,6H75V2.49ZM63,22V2H73V8h6V22H63Z"/><path class="cls-2" d="M71,9.91h0A5,5,0,1,0,76,15H71V9.91Z"/><path class="cls-2" d="M72,14h5a4.88,4.88,0,0,0-5-5v5Z"/></svg>