<svg id="Report" xmlns="http://www.w3.org/2000/svg" width="82" height="24" viewBox="0 0 82 24"><defs><style>.cls-1{fill:#0089d9;}.cls-1,.cls-2,.cls-3,.cls-4,.cls-5,.cls-6{fill-rule:evenodd;}.cls-2{fill:#ffa526;}.cls-3{fill:#8ec928;}.cls-4{fill:#d7d7d7;}.cls-5{fill:#ff8b00;}.cls-6{fill:#68a611;}</style></defs><title>24</title><path class="cls-1" d="M80,21H61V2a1,1,0,0,0-2,0V22a1,1,0,0,0,1,1H80A1,1,0,0,0,80,21Z"/><path class="cls-2" d="M65,11a1,1,0,0,1,1,1v6a1,1,0,0,1-2,0V12A1,1,0,0,1,65,11Z"/><path class="cls-2" d="M73,9a1,1,0,0,1,1,1v8a1,1,0,0,1-2,0V10A1,1,0,0,1,73,9Z"/><path class="cls-3" d="M69,7a1,1,0,0,1,1,1V18a1,1,0,0,1-2,0V8A1,1,0,0,1,69,7Z"/><path class="cls-3" d="M77,3a1,1,0,0,1,1,1V18a1,1,0,0,1-2,0V4A1,1,0,0,1,77,3Z"/><path class="cls-1" d="M22,21H3V2A1,1,0,0,0,1,2V22a1,1,0,0,0,1,1H22A1,1,0,0,0,22,21Z"/><path class="cls-4" d="M36,19a1,1,0,0,0,1-1V12a1,1,0,1,0-2,0v6A1,1,0,0,0,36,19Zm8,0a1,1,0,0,0,1-1V10a1,1,0,0,0-2,0v8A1,1,0,0,0,44,19Zm-4,0a1,1,0,0,0,1-1V8a1,1,0,1,0-2,0V18A1,1,0,0,0,40,19Zm8,0a1,1,0,0,0,1-1V4a1,1,0,1,0-2,0V18A1,1,0,0,0,48,19Zm3,2H32V2a1,1,0,0,0-2,0V22a1,1,0,0,0,1,1H51A1,1,0,0,0,51,21Z"/><path class="cls-5" d="M7,11a1,1,0,0,1,1,1v6a1,1,0,0,1-2,0V12A1,1,0,0,1,7,11Z"/><path class="cls-5" d="M15,9a1,1,0,0,1,1,1v8a1,1,0,0,1-2,0V10A1,1,0,0,1,15,9Z"/><path class="cls-6" d="M11,7a1,1,0,0,1,1,1V18a1,1,0,0,1-2,0V8A1,1,0,0,1,11,7Z"/><path class="cls-6" d="M19,3a1,1,0,0,1,1,1V18a1,1,0,0,1-2,0V4A1,1,0,0,1,19,3Z"/></svg>