<svg id="Share_with_me" data-name="Share with me" xmlns="http://www.w3.org/2000/svg" width="82" height="24" viewBox="0 0 82 24"><defs><style>.cls-1{fill:#0089d9;}.cls-1,.cls-2,.cls-3{fill-rule:evenodd;}.cls-2{fill:#d7d7d7;}.cls-3{fill:#39a6e6;}</style></defs><title>24</title><path class="cls-1" d="M2.22,12C2.1,11,2,10.16,2,10A1,1,0,0,1,3,9H21a1.08,1.08,0,0,1,1,1c0,0.22-.2,2.05-0.42,4h1.94C23.78,11.62,24,9.24,24,9a1.08,1.08,0,0,0-1-1V6a2.15,2.15,0,0,0-2-2h-8.5S11,1,9,1H4A3.23,3.23,0,0,0,1,4V8A1,1,0,0,0,0,9c0,0.2.12,1.45,0.27,3H2.22ZM3,4A1.08,1.08,0,0,1,4,3H9c1,0,2.5,3,2.5,3H20a1.08,1.08,0,0,1,1,1V8H3V4ZM21.63,16a26.56,26.56,0,0,1-4.73,2.78c-1.24,0-3.9.26-5.84-.78a20,20,0,0,0,5,0c3.52-1.56,1.79-3.2-.62-3a7.8,7.8,0,0,1-4.24.05C5.86,13.19,4.64,14.56,3,15a1,1,0,0,0-1-1H1a1,1,0,0,0-1,1v5a1,1,0,0,0,1,1H2a1,1,0,0,0,1-.84c0,0.36,0,.63,0,0.77a1.35,1.35,0,0,1,1,0c0-.09-0.09-0.43-0.17-0.91,2.4,0.34,4.42,2.11,9.23,2.9,2.43-.35,3.43-0.5,5.84-1a55.48,55.48,0,0,1,4.64-4.2C24.27,16.58,23.46,15.16,21.63,16Z"/><path class="cls-2" d="M31.2,12c-0.11-1-.2-1.85-0.2-2a1,1,0,0,1,1-1H50a1.08,1.08,0,0,1,1,1c0,0.22-.2,2.05-0.42,4h1.94C52.76,11.62,53,9.24,53,9a1.08,1.08,0,0,0-1-1V6a2.15,2.15,0,0,0-2-2H41.5S40,1,38,1H33a3.23,3.23,0,0,0-3,3V8a1,1,0,0,0-1,1c0,0.2.12,1.45,0.27,3H31.2ZM32,4a1.08,1.08,0,0,1,1-1h5c1,0,2.5,3,2.5,3H49a1.08,1.08,0,0,1,1,1V8H32V4ZM50.61,16a26.56,26.56,0,0,1-4.73,2.78C44.64,18.72,42,19,40,18a20,20,0,0,0,5,0c3.52-1.56,1.79-3.2-.62-3a7.8,7.8,0,0,1-4.24.05c-5.34-1.88-6.56-.5-8.18-0.06a1,1,0,0,0-1-1H30a1,1,0,0,0-1,1v5a1,1,0,0,0,1,1h1a1,1,0,0,0,1-.84c0,0.36,0,.63,0,0.77a1.35,1.35,0,0,1,1,0c0-.09-0.09-0.43-0.17-0.91,2.4,0.34,4.42,2.11,9.23,2.9,2.43-.35,3.43-0.5,5.84-1a55.48,55.48,0,0,1,4.64-4.2C53.25,16.58,52.44,15.16,50.61,16Z"/><path class="cls-3" d="M79.61,16a26.56,26.56,0,0,1-4.73,2.78C73.64,18.72,71,19,69,18a20,20,0,0,0,5,0c3.52-1.56,1.79-3.2-.62-3a7.8,7.8,0,0,1-4.24.05c-5.34-1.88-6.56-.5-8.18-0.06a1,1,0,0,0-1-1H59a1,1,0,0,0-1,1v5a1,1,0,0,0,1,1h1a1,1,0,0,0,1-.84c0,0.36,0,.63,0,0.78a1.35,1.35,0,0,1,1,0c0-.09-0.09-0.43-0.17-0.91,2.4,0.34,4.42,2.11,9.23,2.9,2.43-.35,3.43-0.5,5.84-1a55.48,55.48,0,0,1,4.64-4.2C82.26,16.58,81.45,15.16,79.61,16ZM60.2,12c-0.11-1-.2-1.85-0.2-2a1,1,0,0,1,1-1H79a1.08,1.08,0,0,1,1,1c0,0.22-.2,2.05-0.42,4h1.94C81.77,11.62,82,9.24,82,9a1.08,1.08,0,0,0-1-1V6a2.15,2.15,0,0,0-2-2h-8.5S69,1,67,1H62a3.23,3.23,0,0,0-3,3V8a1,1,0,0,0-1,1c0,0.2.12,1.45,0.27,3H60.2ZM61,4a1.08,1.08,0,0,1,1-1h5c1,0,2.5,3,2.5,3H78a1.08,1.08,0,0,1,1,1V8H61V4Z"/></svg>