<svg id="Sending_Failed" data-name="Sending Failed" xmlns="http://www.w3.org/2000/svg" width="82" height="24" viewBox="0 0 82 24"><defs><style>.cls-1{fill:#d6565a;}.cls-1,.cls-2,.cls-3{fill-rule:evenodd;}.cls-2{fill:#d7d7d7;}.cls-3{fill:#e57377;}</style></defs><title>24</title><path class="cls-1" d="M1,21c0-7,9-11,16-11V6l6,6-6,6V14C10,14,3,16,1,21Z"/><path class="cls-2" d="M30,21c0-7,9-11,16-11V6l6,6-6,6V14C39,14,32,16,30,21Z"/><path class="cls-3" d="M59,21c0-7,9-11,16-11V6l6,6-6,6V14C68,14,61,16,59,21Z"/></svg>