<svg id="Web" xmlns="http://www.w3.org/2000/svg" width="82" height="24" viewBox="0 0 82 24"><defs><style>.cls-1{fill:#0089d9;}.cls-2{fill:#d7d7d7;}.cls-3{fill:#39a6e6;}</style></defs><title>24</title><path class="cls-1" d="M12,0a12,12,0,1,0,12,12A12,12,0,0,0,12,0Zm0,22a10,10,0,0,1-9.38-6.54c1,1,3.06,2.78,3.27,2.11,0.14-.45-0.84-2.66-1-3.06-0.44-.88.65-0.86,0.58-2.1a4.55,4.55,0,0,0-.91-0.89C4.24,11.31,3,11.17,3.31,11a11.7,11.7,0,0,0,1.56-.45c0.46-.34.41-1,0.75-1.1A2.36,2.36,0,0,0,6.69,7.54a2,2,0,0,1,.61-1.6C7.53,5.61,6.23,4.62,5.42,4.5a10,10,0,0,1,5-2.36,1.11,1.11,0,0,0,.15,1.08c0.57,0.11.11,0.51,0.52,0.72,0.22,0.11.16-.86,0.62-0.42,0.08,0.07.46-.64,0.55,0.07V3.66c0,0.35-1.16.93-1.31,1.5-0.19.74-.05,0.33-0.59,0.6a1.37,1.37,0,0,0-.26,1,0.53,0.53,0,0,0-.33.49,1.28,1.28,0,0,0,.78,1.11c0.43-.14.34-1,0.78-1,0.05,0,.77.61,0.78,0.61,0.16-.05-0.23-0.66,0-0.8a2.54,2.54,0,0,1,1.28.42c0.25,0.16.27,0.82-.92,1.09a1.92,1.92,0,0,0-1.7.24c-0.6.46-.52,1.62-0.44,2.31a1.5,1.5,0,0,0,1.28,1c0.27,0.08.58,0,.87,0.07,0.35,0.26,1.06.1,1.14,2.07-0.07.79,0.77,1,.75,1.81s1.49,0.29,1.78-.14c0.56-.84.23-1.78,0.35-2.73,0.06-.48.45-0.44,0.32-1.21a5.6,5.6,0,0,1,.1-2.35C17,9.33,16.34,9,16.06,9.22c-0.91.58-.55,0.36-1.48-0.06C14.4,9.08,14.18,8.93,14,8.85l1.24,0.28a2,2,0,0,0,1.16-.45c-1.84-1.18-1.21-1.41-1.19-1.4,0.19,0,.09.8,0.83,0.39,1-.57,1.22-0.46,1.55.63,0.16,0.54,1,.43,1.32.76a3.58,3.58,0,0,0,1,.73c0.23,0-.23-1.09,0-1.44a7.57,7.57,0,0,0,.22-1.14,3.37,3.37,0,0,1,.27-0.72A10,10,0,0,1,12,22Zm5.32-4c-0.51-.64-1.74.14-2.27,0.5-0.36.25-1.58,0.27-1.6,0.72,0,1.1-1.19.61-.7,1.6,0,0.2,0,.2,0,0.2a12.67,12.67,0,0,0,1.35.13,5,5,0,0,0,2.31-1c0.51-.39,2.33-1.31,2.3-2S17.73,18.45,17.34,18Z"/><path class="cls-2" d="M41,0A12,12,0,1,0,53,12,12,12,0,0,0,41,0Zm0,22a10,10,0,0,1-9.38-6.54c1,1,3.06,2.78,3.27,2.11,0.14-.45-0.84-2.66-1-3.06-0.44-.88.65-0.86,0.58-2.1a4.55,4.55,0,0,0-.91-0.89c-0.28-.22-1.53-0.36-1.21-0.57a11.69,11.69,0,0,0,1.56-.45c0.46-.34.41-1,0.75-1.1a2.36,2.36,0,0,0,1.07-1.87,2,2,0,0,1,.61-1.6c0.23-.34-1.07-1.32-1.88-1.44a10,10,0,0,1,5-2.36,1.11,1.11,0,0,0,.15,1.08c0.57,0.11.11,0.51,0.52,0.72,0.22,0.11.16-.86,0.62-0.42,0.08,0.07.46-.64,0.55,0.07V3.66c0,0.35-1.16.93-1.31,1.5-0.19.74-.05,0.33-0.59,0.6a1.37,1.37,0,0,0-.26,1,0.53,0.53,0,0,0-.33.49,1.28,1.28,0,0,0,.78,1.11c0.43-.14.34-1,0.78-1C40.31,7.39,41,8,41,8c0.16-.05-0.23-0.66,0-0.8a2.54,2.54,0,0,1,1.28.42c0.25,0.16.27,0.82-.92,1.09a1.92,1.92,0,0,0-1.7.24c-0.6.46-.52,1.62-0.44,2.31a1.5,1.5,0,0,0,1.28,1c0.27,0.08.58,0,.87,0.07,0.35,0.26,1.06.1,1.14,2.07-0.07.79,0.77,1,.75,1.81S44.8,16.43,45.1,16c0.56-.84.23-1.78,0.35-2.73,0.06-.48.45-0.44,0.32-1.21a5.6,5.6,0,0,1,.1-2.35C46,9.33,45.28,9,45,9.22c-0.91.58-.55,0.36-1.48-0.06-0.18-.08-0.4-0.22-0.61-0.31l1.24,0.28a2,2,0,0,0,1.16-.45c-1.84-1.18-1.21-1.41-1.19-1.4,0.19,0,.09.8,0.83,0.39,1-.57,1.22-0.46,1.55.63,0.16,0.54,1,.43,1.32.76a3.58,3.58,0,0,0,1,.73c0.23,0-.23-1.09,0-1.44A7.57,7.57,0,0,0,49,7.22a3.37,3.37,0,0,1,.27-0.72A10,10,0,0,1,41,22Zm5.32-4c-0.51-.64-1.74.14-2.27,0.5-0.36.25-1.58,0.27-1.6,0.72,0,1.1-1.19.61-.7,1.6,0,0.2,0,.2,0,0.2a12.67,12.67,0,0,0,1.35.13,5,5,0,0,0,2.31-1c0.51-.39,2.33-1.31,2.3-2S46.67,18.45,46.27,18Z"/><path class="cls-3" d="M70,0A12,12,0,1,0,82,12,12,12,0,0,0,70,0Zm0,22a10,10,0,0,1-9.38-6.54c1,1,3.06,2.78,3.27,2.11,0.14-.45-0.84-2.66-1-3.06-0.44-.88.65-0.86,0.58-2.1a4.55,4.55,0,0,0-.91-0.89c-0.28-.22-1.53-0.36-1.21-0.57a11.69,11.69,0,0,0,1.56-.45c0.46-.34.41-1,0.75-1.1a2.36,2.36,0,0,0,1.07-1.87,2,2,0,0,1,.61-1.6c0.23-.34-1.07-1.32-1.88-1.44a10,10,0,0,1,5-2.36,1.11,1.11,0,0,0,.15,1.08c0.57,0.11.11,0.51,0.52,0.72,0.22,0.11.16-.86,0.62-0.42,0.08,0.07.46-.64,0.55,0.07V3.66c0,0.35-1.16.93-1.31,1.5-0.19.74-.05,0.33-0.59,0.6a1.37,1.37,0,0,0-.26,1,0.53,0.53,0,0,0-.33.49,1.28,1.28,0,0,0,.78,1.11c0.43-.14.34-1,0.78-1C69.31,7.39,70,8,70,8c0.16-.05-0.23-0.66,0-0.8a2.54,2.54,0,0,1,1.28.42c0.25,0.16.27,0.82-.92,1.09a1.92,1.92,0,0,0-1.7.24c-0.6.46-.52,1.62-0.44,2.31a1.5,1.5,0,0,0,1.28,1c0.27,0.08.58,0,.87,0.07,0.35,0.26,1.06.1,1.14,2.07-0.07.79,0.77,1,.75,1.81S73.8,16.43,74.1,16c0.56-.84.23-1.78,0.35-2.73,0.06-.48.45-0.44,0.32-1.21a5.6,5.6,0,0,1,.1-2.35C75,9.33,74.28,9,74,9.22c-0.91.58-.55,0.36-1.48-0.06-0.18-.08-0.4-0.22-0.61-0.31l1.24,0.28a2,2,0,0,0,1.16-.45c-1.84-1.18-1.21-1.41-1.19-1.4,0.19,0,.09.8,0.83,0.39,1-.57,1.22-0.46,1.55.63,0.16,0.54,1,.43,1.32.76a3.58,3.58,0,0,0,1,.73c0.23,0-.23-1.09,0-1.44A7.57,7.57,0,0,0,78,7.22a3.37,3.37,0,0,1,.27-0.72A10,10,0,0,1,70,22Zm5.32-4c-0.51-.64-1.74.14-2.27,0.5-0.36.25-1.58,0.27-1.6,0.72,0,1.1-1.19.61-.7,1.6,0,0.2,0,.2,0,0.2a12.67,12.67,0,0,0,1.35.13,5,5,0,0,0,2.31-1c0.51-.39,2.33-1.31,2.3-2S75.67,18.45,75.27,18Z"/></svg>