<svg id="Zoom_In" data-name="Zoom In" xmlns="http://www.w3.org/2000/svg" width="82" height="24" viewBox="0 0 82 24"><defs><style>.cls-1{fill:#0089d9;}.cls-1,.cls-2,.cls-3{fill-rule:evenodd;}.cls-2{fill:#d7d7d7;}.cls-3{fill:#39a6e6;}</style></defs><title>24</title><path class="cls-1" d="M23.74,22.17L20.67,19.1a1,1,0,0,0-1-.18l-0.54-.54a11,11,0,1,0-.71.71L19,19.67a1.06,1.06,0,0,0,.23,1l3.07,3.07a1,1,0,0,0,1.45-.09A1.08,1.08,0,0,0,23.74,22.17ZM11,20a9,9,0,1,1,9-9A9,9,0,0,1,11,20Zm3-10H12V8a1,1,0,0,0-2,0v2H8a1,1,0,1,0,0,2h2v2a1,1,0,0,0,2,0V12h2A1,1,0,1,0,14,10Z"/><path class="cls-2" d="M52.74,22.17L49.67,19.1a1,1,0,0,0-1-.18l-0.54-.54a11,11,0,1,0-.71.71L48,19.67a1.06,1.06,0,0,0,.23,1l3.07,3.07a1,1,0,0,0,1.45-.09A1.08,1.08,0,0,0,52.74,22.17ZM40,20a9,9,0,1,1,9-9A9,9,0,0,1,40,20Zm3-10H41V8a1,1,0,0,0-2,0v2H37a1,1,0,1,0,0,2h2v2a1,1,0,0,0,2,0V12h2A1,1,0,1,0,43,10Z"/><path class="cls-3" d="M81.72,22.17L78.65,19.1a1,1,0,0,0-1-.18l-0.54-.54a11,11,0,1,0-.71.71l0.59,0.59a1.06,1.06,0,0,0,.23,1l3.07,3.07a1,1,0,0,0,1.45-.09A1.08,1.08,0,0,0,81.72,22.17ZM69,20a9,9,0,1,1,9-9A9,9,0,0,1,69,20Zm3-10H70V8a1,1,0,0,0-2,0v2H66a1,1,0,1,0,0,2h2v2a1,1,0,0,0,2,0V12h2A1,1,0,1,0,72,10Z"/></svg>