<svg xmlns="http://www.w3.org/2000/svg" width="270" height="50"><path fill="#0089D9" fill-rule="evenodd" d="M245 0c-13.8 0-25 11.2-25 25s11.2 25 25 25 25-11.2 25-25-11.2-25-25-25zm0 35.7c-.9 0-1.7-.8-1.7-1.7 0-.9.8-1.7 1.7-1.7.9 0 1.7.8 1.7 1.7 0 .9-.8 1.7-1.7 1.7zm3.6-10.5c-1 1.1-2.6 2.4-2.6 4.2 0 .2 0 .4 0 .7 0 .6-.4 1-1 1-.5 0-1-.4-1-1 0-.2 0-.4 0-.5 0-.1 0-.3 0-.4 0 0 0-.1 0-.1.2-1.9 1.5-3.6 2.9-5 .9-.9 1.5-2.8 1.5-4 0-1.9-1.1-3.4-3.6-3.4-3.7 0-3.9 2.8-3.9 2.8s.3 1.6-1 1.6-1-1.6-1-1.6c0-2.5 2.1-5.3 6-5.3 3.6 0 6 2.8 6 5.9.1 1.7-1.1 3.9-2.3 5.1z" clip-rule="evenodd"/><path fill="#0089D9" fill-rule="evenodd" d="M190 0c-13.8 0-25 11.2-25 25s11.2 25 25 25 25-11.2 25-25-11.2-25-25-25zm3 31.7c-.6 1.1-2.3 2.3-4 2.3-2 0-2.2-1.6-1.9-2.9L189 25c.1-.3-.1-.6-.3-.7-1.5 0-2.6.9-2.6.9-.1-.4 0-1.1 0-1.4 1.9-1.9 2.9-2.8 4-2.8 1.3 0 2 1.3 1.7 3.2l-1.8 6.7c-.1.7.2.9.7.9 1 0 2.4-1.9 2.4-1.9s-.1 1.5-.1 1.8zM191 19c-1.1 0-2-.9-2-2s.9-2 2-2 2 .9 2 2-.9 2-2 2z" clip-rule="evenodd"/><path fill="#FF8B00" fill-rule="evenodd" d="M159.2 43.4c-1.2-2.3-20-37.8-22.1-42 0 0-.5-1.4-2.1-1.4s-2.1 1.4-2.1 1.4c-2.1 4.3-20.9 39.7-22.1 42-1.9 3.6.3 4.6 2.3 4.6h44c1.9 0 4.1-.9 2.1-4.6zM135 18c.6 0 1.6.4 1.6 1l-.6 12c0 .6-.4 1-1 1s-1-.4-1-1l-.6-12c0-.6 1-1 1.6-1zm0 21c-1.1 0-2-.9-2-2s.9-2 2-2 2 .9 2 2-.9 2-2 2z" clip-rule="evenodd"/><path fill="#D6565A" fill-rule="evenodd" d="M80 0C66.2 0 55 11.2 55 25s11.2 25 25 25 25-11.2 25-25S93.8 0 80 0zm0 15c.6 0 1.6.4 1.6 1L81 28c0 .6-.4 1-1 1s-1-.4-1-1l-.6-12c0-.5 1-1 1.6-1zm0 21c-1.1 0-2-.9-2-2s.9-2 2-2 2 .9 2 2-.9 2-2 2z" clip-rule="evenodd"/><path fill="#68A611" fill-rule="evenodd" d="M25 0C11.2 0 0 11.2 0 25s11.2 25 25 25 25-11.2 25-25S38.8 0 25 0zm-3.8 34c-3.3-4.2-6.2-7.4-6.2-7.4l1.1-1.2s2.6 2 5.1 4.9c8.1-9.3 15-14.3 15-14.3l.8.9S29.8 23.6 21.2 34z" clip-rule="evenodd"/></svg>