<svg xmlns="http://www.w3.org/2000/svg" width="100" height="16"><path fill="#0089D9" d="M92 0c-4.4 0-8 3.6-8 8s3.6 8 8 8 8-3.6 8-8-3.6-8-8-8zm1 12h-2v-1.2h2V12zm.4-3.5c-.4.3-.6.7-.6 1.5h-1.7c0-1 .6-1.9 1.3-2.5.4-.3.8-.7.8-1.1 0-.6-.5-1-1.1-.9-1.2 0-1.3 1.3-1.3 1.3s-1.3-.1-1.2-1c.3-1 1.2-1.8 2.4-1.8 1.3-.1 2.5 1 2.5 2.4 0 1.1-.5 1.5-1.1 2.1z"/><path fill="#0089D9" fill-rule="evenodd" d="M71 0c-4.4 0-8 3.6-8 8s3.6 8 8 8 8-3.6 8-8-3.6-8-8-8zm1.5 10.9c-.5.7-1 1.1-1.8 1.1-.6 0-1.2-.6-1.1-1.1l1-2.9c0-.1 0-.2-.1-.2-.6.1-1.2.4-1.2.4 0-.1 0-.1 0-.2.5-.7 1.5-1.4 2.2-1.3.5.1.5.6.4 1.1l-.8 3c0 .2.1.3.4.3.3 0 1-.7 1-.7.1.1 0 .4 0 .5zm-1-4.9c-.6 0-1.1-.5-1.1-1 0-.6.5-1 1.1-1 .6 0 1.1.5 1.1 1 0 .6-.5 1-1.1 1z" clip-rule="evenodd"/><path fill="#FF8B00" fill-rule="evenodd" d="M57.7 13.6c-.4-.8-5.7-10.8-6.4-12.2 0 0-.2-.8-1.3-.8s-1.3.8-1.3.8c-.7 1.4-6 11.4-6.4 12.1-.6 1.2-.2 2.4 1.4 2.4h12.6c1.6.1 2-1.2 1.4-2.3zM51 14h-2v-2h2v2zm-.2-4.4c0 .4-.3 1.4-.8 1.4-.6 0-.8-1.1-.8-1.5L49 6c0-.4 0-1 1-1s1 .6 1 1l-.2 3.6z" clip-rule="evenodd"/><path fill="#D6565A" fill-rule="evenodd" d="M29 0c-4.4 0-8 3.6-8 8s3.6 8 8 8 8-3.6 8-8-3.6-8-8-8zm0 4c1 0 1 .6 1 1l-.2 2.6c0 .3-.2 1.4-.8 1.4-.6 0-.8-1.1-.8-1.5L28 5c0-.4 0-1 1-1zm1 8h-2v-2h2v2z" clip-rule="evenodd"/><path fill="#68A611" fill-rule="evenodd" d="M8 0C3.6 0 0 3.6 0 8s3.6 8 8 8 8-3.6 8-8-3.6-8-8-8zM7 11.3C6 9.9 4.6 8.6 4.6 8.6l.6-.6s.9.4 1.9 1.2c2-2.2 4.5-4 4.5-4l.4.4c-.1-.1-2.2 2.3-5 5.7z" clip-rule="evenodd"/></svg>