<svg xmlns="http://www.w3.org/2000/svg" width="58" height="16" viewBox="0 0 58 16"><defs><style>.cls-1{fill:#0089d9;}.cls-1,.cls-2,.cls-3{fill-rule:evenodd;}.cls-2{fill:#c8c8c8;}.cls-3{fill:#39a6e6;}</style></defs><title>16_delete</title><g id="Delete"><path class="cls-1" d="M5,3H1.53A1.4,1.4,0,0,0,0,4.41V5H1V4.5c0-.31.24-.5.66-.5H8V3H6.19A1.81,1.81,0,0,1,8,1.19V0A3.11,3.11,0,0,0,5,3ZM4,14c0-1.08-.84-8-.84-8,0-1-1.25-1-1.25,0l.84,8.69A1.89,1.89,0,0,0,4,16H8V15H5A1.06,1.06,0,0,1,4,14Zm6-2.5v-5a.5.5,0,1,0-1,0v5a.5.5,0,1,0,1,0Zm-3,0v-5a.5.5,0,0,0-1,0v5a.5.5,0,0,0,1,0ZM12.88,6S12,12.92,12,14a1.06,1.06,0,0,1-1,1H8v1h4a1.89,1.89,0,0,0,1.25-1.31L14.13,6C14.13,5,12.88,5,12.88,6Zm1.59-3H11A3.11,3.11,0,0,0,8,0V1.19A1.81,1.81,0,0,1,9.81,3H8V4h6.34c.42,0,.66.19.66.5V5h1V4.41A1.4,1.4,0,0,0,14.47,3Z"/><path class="cls-2" d="M26,3H22.53A1.4,1.4,0,0,0,21,4.41V5h1V4.5c0-.31.24-.5.66-.5H29V3H27.19A1.81,1.81,0,0,1,29,1.19V0A3.11,3.11,0,0,0,26,3ZM25,14c0-1.08-.84-8-.84-8,0-1-1.25-1-1.25,0l.84,8.69A1.89,1.89,0,0,0,25,16h4V15H26A1.06,1.06,0,0,1,25,14Zm6-2.5v-5a.5.5,0,0,0-1,0v5a.5.5,0,1,0,1,0Zm-3,0v-5a.5.5,0,0,0-1,0v5a.5.5,0,1,0,1,0ZM33.88,6S33,12.92,33,14a1.06,1.06,0,0,1-1,1H29v1h4a1.89,1.89,0,0,0,1.25-1.31L35.13,6C35.13,5,33.88,5,33.88,6Zm1.59-3H32a3.11,3.11,0,0,0-3-3V1.19A1.81,1.81,0,0,1,30.81,3H29V4h6.34c.42,0,.66.19.66.5V5h1V4.41A1.4,1.4,0,0,0,35.47,3Z"/><path class="cls-3" d="M47,3H43.53A1.4,1.4,0,0,0,42,4.41V5h1V4.5c0-.31.24-.5.66-.5H50V3H48.19A1.81,1.81,0,0,1,50,1.19V0A3.11,3.11,0,0,0,47,3ZM46,14c0-1.08-.84-8-.84-8,0-1-1.25-1-1.25,0l.84,8.69A1.89,1.89,0,0,0,46,16h4V15H47A1.06,1.06,0,0,1,46,14Zm6-2.5v-5a.5.5,0,0,0-1,0v5a.5.5,0,0,0,1,0Zm-3,0v-5a.5.5,0,0,0-1,0v5a.5.5,0,0,0,1,0ZM54.87,6S54,12.92,54,14a1.06,1.06,0,0,1-1,1H50v1h4a1.89,1.89,0,0,0,1.25-1.31L56.12,6C56.12,5,54.87,5,54.87,6Zm1.59-3H53a3.11,3.11,0,0,0-3-3V1.19A1.81,1.81,0,0,1,51.81,3H50V4h6.34c.42,0,.66.19.66.5V5h1V4.41A1.4,1.4,0,0,0,56.47,3Z"/></g></svg>