<svg id="Attach" xmlns="http://www.w3.org/2000/svg" width="82" height="24" viewBox="0 0 82 24"><defs><style>.cls-1{fill:#39a6e6;}.cls-1,.cls-2,.cls-3{fill-rule:evenodd;}.cls-2{fill:#d7d7d7;}.cls-3{fill:#0089d9;}</style></defs><title>24</title><path class="cls-1" d="M79.47,1.54C77-.85,75.17-0.29,72.74,2.1L61.8,12.85c-3.65,3.58-3.65,6-.65,8.92s5.51,3,9.16-.56L80,11.66l-1.49-1.47S70.25,18.53,69,19.71c-3,2.83-4.14,3.11-6.42.59s-1.82-3.83.61-6.22S72.95,4.59,74.16,3.39,76.28,1.41,78,3c1.49,1.35.39,2.57-.82,3.77L67.77,16c-1.22,1.19-2.12.31-.9-0.89s9.66-9.35,9.66-9.35L75,4.35l-9.73,9.59c-1.22,1.2-1.65,3.09-.43,4.28s3,0.6,4.26-.6l9.73-9.56C81.25,5.68,81.9,3.93,79.47,1.54Z"/><path class="cls-2" d="M50.47,1.54C48-.85,46.17-0.29,43.74,2.1L32.8,12.85c-3.65,3.58-3.65,6-.65,8.92s5.51,3,9.16-.56L51,11.66l-1.49-1.47S41.25,18.53,40,19.71c-3,2.83-4.14,3.11-6.42.59s-1.82-3.83.61-6.22S43.95,4.59,45.16,3.39,47.28,1.41,49,3c1.49,1.35.39,2.57-.82,3.77L38.77,16c-1.22,1.19-2.12.31-.9-0.89s9.66-9.35,9.66-9.35L46,4.35l-9.73,9.59c-1.22,1.2-1.65,3.09-.43,4.28s3,0.6,4.26-.6l9.73-9.56C52.25,5.68,52.9,3.93,50.47,1.54Z"/><path class="cls-3" d="M21.44,1.54C19-.85,17.15-0.29,14.71,2.1L3.77,12.85c-3.65,3.58-3.65,6-.65,8.92s5.51,3,9.16-.56L22,11.66l-1.49-1.47S12.23,18.53,11,19.71c-3,2.83-4.14,3.11-6.42.59s-1.82-3.83.61-6.22S14.92,4.59,16.14,3.39,18.26,1.41,20,3c1.49,1.35.39,2.57-.82,3.77L9.74,16c-1.22,1.19-2.12.31-.9-0.89S18.5,5.75,18.5,5.75L17,4.35,7.24,13.94C6,15.14,5.59,17,6.81,18.23s3,0.6,4.26-.6l9.73-9.56C23.23,5.68,23.87,3.93,21.44,1.54Z"/></svg>