<svg id="Add_User" data-name="Add User" xmlns="http://www.w3.org/2000/svg" width="111" height="24" viewBox="0 0 111 24"><defs><style>.cls-1{fill:#8ec928;}.cls-1,.cls-2{fill-rule:evenodd;}.cls-2{fill:#0089d9;}</style></defs><title>24_add_user</title><path class="cls-1" d="M18,12a6,6,0,1,0,6,6A6,6,0,0,0,18,12Zm3,7H19v2a1,1,0,0,1-2,0V19H15a1,1,0,0,1,0-2h2V15a1,1,0,0,1,2,0v2h2A1,1,0,1,1,21,19Z"/><path class="cls-2" d="M14.9,8.73a1.77,1.77,0,0,0-1.18-1.42,4,4,0,0,0,.64-2.37c0-1.15-.68-3-2.51-3.05A4,4,0,0,0,8.23,0,5.08,5.08,0,0,0,2.95,4.94a4.63,4.63,0,0,0,.61,2.38A1.75,1.75,0,0,0,2.34,8.73c-0.06,1.08.82,3,2,3.29a3.52,3.52,0,0,0,1.09,2.47,2,2,0,0,1,0,1,1,1,0,0,0-.82.25A40.61,40.61,0,0,1,.2,19.24a0.23,0.23,0,0,0-.06.12,1.36,1.36,0,0,0-.14.83c0,1.5,6.79,2.07,12.16,1.75a7,7,0,0,1-.88-1.85A29.41,29.41,0,0,1,3,19.76c1.39-1,2.8-2.28,3.71-3a3.82,3.82,0,0,0,.15-3.14,4.32,4.32,0,0,1-.78-2,1.8,1.8,0,0,0-1.16-1.5A1.54,1.54,0,0,1,4.5,8.86a1.11,1.11,0,0,0,1-1.61C2.87,1.7,9.61.48,10.91,3.82c1.51-.65,2.43,1.86.93,3.15-0.56,1.09,1.09,1.6,1.09,1.6a2.73,2.73,0,0,1-.76,1.94A1.54,1.54,0,0,0,11,12a2.81,2.81,0,0,1-.66,2.23c-1,2.4.67,2.35,0.67,2.35l0.14,0.1a6.93,6.93,0,0,1,.7-1.93,0.51,0.51,0,0,1,0-.16L12,14.39a7,7,0,0,1,.55-0.77A3.63,3.63,0,0,0,13,12C14.14,11.76,15,9.82,14.9,8.73Zm-4.77-4.5C8.55,5.35,7,3.94,6,6.4c1.36-1.52,3.33.3,3.83-1.3C10.14,6,11,5.77,11.6,6.28,11.29,4.68,10.24,5,10.13,4.23Z"/><path class="cls-1" d="M47,12a6,6,0,1,0,6,6A6,6,0,0,0,47,12Zm3,7H48v2a1,1,0,0,1-2,0V19H44a1,1,0,0,1,0-2h2V15a1,1,0,0,1,2,0v2h2A1,1,0,1,1,50,19Z"/><path class="cls-2" d="M43.9,8.73a1.77,1.77,0,0,0-1.18-1.42,4,4,0,0,0,.64-2.37c0-1.15-.68-3-2.51-3.05A4,4,0,0,0,37.23,0a5.08,5.08,0,0,0-5.28,4.94,4.63,4.63,0,0,0,.61,2.38,1.75,1.75,0,0,0-1.21,1.41c-0.06,1.08.82,3,2,3.29a3.52,3.52,0,0,0,1.09,2.47,2,2,0,0,1,0,1,1,1,0,0,0-.82.25,40.61,40.61,0,0,1-4.38,3.51,0.23,0.23,0,0,0-.06.12,1.36,1.36,0,0,0-.14.83c0,1.5,6.79,2.07,12.16,1.75a7,7,0,0,1-.88-1.85A29.41,29.41,0,0,1,32,19.76c1.39-1,2.8-2.28,3.71-3a3.82,3.82,0,0,0,.15-3.14,4.32,4.32,0,0,1-.78-2,1.8,1.8,0,0,0-1.16-1.5,1.54,1.54,0,0,1-.41-1.31,1.11,1.11,0,0,0,1-1.61C31.87,1.7,38.61.48,39.91,3.82c1.51-.65,2.43,1.86.93,3.15-0.56,1.09,1.09,1.6,1.09,1.6a2.73,2.73,0,0,1-.76,1.94A1.54,1.54,0,0,0,40,12a2.81,2.81,0,0,1-.66,2.23c-1,2.4.67,2.35,0.67,2.35l0.14,0.1a6.93,6.93,0,0,1,.7-1.93,0.51,0.51,0,0,1,0-.16L41,14.39a7,7,0,0,1,.55-0.77A3.63,3.63,0,0,0,42,12C43.14,11.76,44,9.82,43.9,8.73Zm-4.77-4.5C37.55,5.35,36,3.94,35,6.4c1.36-1.52,3.33.3,3.83-1.3C39.14,6,40,5.77,40.6,6.28,40.29,4.68,39.24,5,39.13,4.23Z"/><path class="cls-1" d="M76,12a6,6,0,1,0,6,6A6,6,0,0,0,76,12Zm3,7H77v2a1,1,0,0,1-2,0V19H73a1,1,0,0,1,0-2h2V15a1,1,0,0,1,2,0v2h2A1,1,0,1,1,79,19Z"/><path class="cls-2" d="M72.9,8.73a1.77,1.77,0,0,0-1.18-1.42,4,4,0,0,0,.64-2.37c0-1.15-.68-3-2.51-3.05A4,4,0,0,0,66.23,0a5.08,5.08,0,0,0-5.28,4.94,4.63,4.63,0,0,0,.61,2.38,1.75,1.75,0,0,0-1.21,1.41c-0.06,1.08.82,3,2,3.29a3.52,3.52,0,0,0,1.09,2.47,2,2,0,0,1,0,1,1,1,0,0,0-.82.25,40.61,40.61,0,0,1-4.38,3.51,0.23,0.23,0,0,0-.06.12,1.36,1.36,0,0,0-.14.83c0,1.5,6.79,2.07,12.16,1.75a7,7,0,0,1-.88-1.85A29.41,29.41,0,0,1,61,19.76c1.39-1,2.8-2.28,3.71-3a3.82,3.82,0,0,0,.15-3.14,4.32,4.32,0,0,1-.78-2,1.8,1.8,0,0,0-1.16-1.5,1.54,1.54,0,0,1-.41-1.31,1.11,1.11,0,0,0,1-1.61C60.87,1.7,67.61.48,68.91,3.82c1.51-.65,2.43,1.86.93,3.15-0.56,1.09,1.09,1.6,1.09,1.6a2.73,2.73,0,0,1-.76,1.94A1.54,1.54,0,0,0,69,12a2.81,2.81,0,0,1-.66,2.23c-1,2.4.67,2.35,0.67,2.35l0.14,0.1a6.93,6.93,0,0,1,.7-1.93,0.51,0.51,0,0,1,0-.16L70,14.39a7,7,0,0,1,.55-0.77A3.63,3.63,0,0,0,71,12C72.14,11.76,73,9.82,72.9,8.73Zm-4.77-4.5C66.55,5.35,65,3.94,64,6.4c1.36-1.52,3.33.3,3.83-1.3C68.14,6,69,5.77,69.6,6.28,69.29,4.68,68.24,5,68.13,4.23Z"/><path class="cls-1" d="M105,12a6,6,0,1,0,6,6A6,6,0,0,0,105,12Zm3,7h-2v2a1,1,0,0,1-2,0V19h-2a1,1,0,0,1,0-2h2V15a1,1,0,0,1,2,0v2h2A1,1,0,1,1,108,19Z"/><path class="cls-2" d="M98,18a7,7,0,0,1,.86-3.36,0.48,0.48,0,0,1,0-.12c0.07-.07.11-0.14,0.17-0.21a7,7,0,0,1,.52-0.74A3.63,3.63,0,0,0,100,12c1.15-.27,2-2.21,1.91-3.29a1.77,1.77,0,0,0-1.18-1.42,4,4,0,0,0,.64-2.37c0-1.15-.68-3-2.51-3.05A4,4,0,0,0,95.23,0a5.08,5.08,0,0,0-5.28,4.94,4.62,4.62,0,0,0,.61,2.38,1.75,1.75,0,0,0-1.21,1.41c-0.06,1.08.82,3,2,3.29a3.52,3.52,0,0,0,1.09,2.47,2,2,0,0,1,0,1,1,1,0,0,0-.82.25,40.61,40.61,0,0,1-4.38,3.51,0.19,0.19,0,0,0,0,.06,1.21,1.21,0,0,0-.18.88c0,1.5,6.79,2.07,12.16,1.75A7,7,0,0,1,98,18ZM96.78,4.41c-0.63,2-3.13-.28-4.85,1.64,1.22-3.11,3.18-1.33,5.18-2.74,0.14,1,1.46.57,1.86,2.59C98.23,5.25,97.13,5.52,96.78,4.41Z"/></svg>