<svg id="Changelog" xmlns="http://www.w3.org/2000/svg" width="82" height="24" viewBox="0 0 82 24"><defs><style>.cls-1{fill:#0089d9;}.cls-1,.cls-2,.cls-3{fill-rule:evenodd;}.cls-2{fill:#d7d7d7;}.cls-3{fill:#39a6e6;}</style></defs><title>24</title><path class="cls-1" d="M20.48,3.51A12,12,0,0,0,0,12H2A10,10,0,1,1,4.9,19.11c-0.16-.16-0.32-0.33-0.47-0.51L7,16H1v6L3.05,20c0.15,0.17.3,0.34,0.46,0.5A12,12,0,0,0,20.48,3.51Zm-7.89,9.94L17.88,13V12l-5.06-.5L12,3H11L10,13a2.48,2.48,0,0,0,1.5,1A1.81,1.81,0,0,0,12.59,13.45Z"/><path class="cls-2" d="M41.59,13.45L46.88,13V12l-5.06-.5L41,3H40L39,13a2.48,2.48,0,0,0,1.5,1A1.81,1.81,0,0,0,41.59,13.45Zm7.89-9.94A12,12,0,0,0,29,12h2a10,10,0,1,1,2.93,7.11c-0.16-.16-0.32-0.33-0.47-0.51L36,16H30v6L32.05,20c0.15,0.17.3,0.34,0.46,0.5A12,12,0,0,0,49.48,3.51Z"/><path class="cls-3" d="M70.59,13.45L75.88,13V12l-5.06-.5L70,3H69L68,13a2.48,2.48,0,0,0,1.5,1A1.81,1.81,0,0,0,70.59,13.45Zm7.89-9.94A12,12,0,0,0,58,12h2a10,10,0,1,1,2.93,7.11c-0.16-.16-0.32-0.33-0.47-0.51L65,16H59v6L61.05,20c0.15,0.17.3,0.34,0.46,0.5A12,12,0,0,0,78.48,3.51Z"/></svg>