<svg id="Document_Info" data-name="Document Info" xmlns="http://www.w3.org/2000/svg" width="82" height="24" viewBox="0 0 82 24"><defs><style>.cls-1{fill:#0089d9;}.cls-1,.cls-2,.cls-3{fill-rule:evenodd;}.cls-2{fill:#d7d7d7;}.cls-3{fill:#39a6e6;}</style></defs><title>24</title><path class="cls-1" d="M9.3,22H2V8H8V2H18V7.25A9,9,0,0,1,20,8V0H6V0.28l-6,6V24H11.91A9,9,0,0,1,9.3,22ZM6,2.49V6H2.41Zm10,9.26A1.24,1.24,0,1,0,17.23,13,1.24,1.24,0,0,0,16,11.75ZM16,8a8,8,0,1,0,8,8A8,8,0,0,0,16,8Zm0,14a6,6,0,1,1,6-6A6,6,0,0,1,16,22Zm0-7a1,1,0,0,0-1,1v3a1,1,0,1,0,2,0V16A1,1,0,0,0,16,15Z"/><path class="cls-2" d="M45,8a8,8,0,1,0,8,8A8,8,0,0,0,45,8Zm0,14a6,6,0,1,1,6-6A6,6,0,0,1,45,22Zm-6.68,0H31V8h6V2H47V7.25A9,9,0,0,1,49,8V0H35V0.28l-6,6V24H40.91A9,9,0,0,1,38.31,22ZM35,2.49V6H31.42Zm10,9.26A1.24,1.24,0,1,0,46.24,13,1.24,1.24,0,0,0,45,11.75ZM45,15a1,1,0,0,0-1,1v3a1,1,0,1,0,2,0V16A1,1,0,0,0,45,15Z"/><path class="cls-3" d="M67.3,22H60V8h6V2H76V7.25A9,9,0,0,1,78,8V0H64V0.28l-6,6V24H69.91A9,9,0,0,1,67.3,22ZM64,2.49V6H60.41ZM74,8a8,8,0,1,0,8,8A8,8,0,0,0,74,8Zm0,14a6,6,0,1,1,6-6A6,6,0,0,1,74,22Zm0-10.26A1.24,1.24,0,1,0,75.23,13,1.24,1.24,0,0,0,74,11.75ZM74,15a1,1,0,0,0-1,1v3a1,1,0,1,0,2,0V16A1,1,0,0,0,74,15Z"/></svg>