<svg id="Download" xmlns="http://www.w3.org/2000/svg" width="82" height="24" viewBox="0 0 82 24"><defs><style>.cls-1{fill:#0089d9;}.cls-1,.cls-2,.cls-3{fill-rule:evenodd;}.cls-2{fill:#d7d7d7;}.cls-3{fill:#39a6e6;}</style></defs><title>24</title><path class="cls-1" d="M24,22V17a1,1,0,1,0-2,0v4H2V17a1,1,0,1,0-2,0v5H0a1,1,0,0,0,1,1H23a1,1,0,0,0,1-1h0ZM11.15,17.86a1,1,0,0,0,.85.32,1,1,0,0,0,.85-0.32l4.42-4.42a0.88,0.88,0,1,0-1.23-1.23L13,15.27V2a1,1,0,0,0-2,0V15.26l-3-3a0.88,0.88,0,1,0-1.23,1.23Z"/><path class="cls-2" d="M53,22V17a1,1,0,1,0-2,0v4H31V17a1,1,0,1,0-2,0v5h0a1,1,0,0,0,1,1H52a1,1,0,0,0,1-1h0ZM40.16,17.86a1.31,1.31,0,0,0,1.71,0l4.42-4.42a0.88,0.88,0,1,0-1.23-1.23L42,15.27V2a1,1,0,0,0-2,0V15.26l-3-3a0.88,0.88,0,1,0-1.23,1.23Z"/><path class="cls-3" d="M82,22V17a1,1,0,1,0-2,0v4H60V17a1,1,0,1,0-2,0v5h0a1,1,0,0,0,1,1H81a1,1,0,0,0,1-1h0ZM69.15,17.86a1.31,1.31,0,0,0,1.71,0l4.42-4.42a0.88,0.88,0,1,0-1.23-1.23L71,15.27V2a1,1,0,0,0-2,0V15.26l-3-3a0.88,0.88,0,1,0-1.23,1.23Z"/></svg>