<svg id="Dislike" xmlns="http://www.w3.org/2000/svg" width="82" height="24" viewBox="0 0 82 24"><defs><style>.cls-1{fill:#0089d9;}.cls-1,.cls-2,.cls-3{fill-rule:evenodd;}.cls-2{fill:#d7d7d7;}.cls-3{fill:#39a6e6;}</style></defs><title>24</title><path class="cls-1" d="M4.43,1c-1.69.41-1.19,1.7-1.62,2.41s-1.13.53-1.41,1.54S1.86,6,1.86,6.66c0,0.86-1,1-1,2.16s0.9,1.15,1,1.81c0.1,0.82-.78,1.26-0.5,2.43A1.86,1.86,0,0,0,3,14.13c0.89,0.16,4.51-.19,5.41.69,1.23,1.2-.5,2.44-0.5,5.13,0,3.13,2.09,5.19,4.91,3.37-0.62-1.53-.33-3,0.66-4.81,1.35-4.52,4.28-6.06,6.41-7.37v-10c-3.69,0-6.11-.76-8.63-0.91A23.08,23.08,0,0,0,4.43,1Zm13.41,9.31c-2,.86-5.53,3.26-6,7.48a3.73,3.73,0,0,0-.66,3.62c-1.59.58-1.64-1.59-.92-3.22,0.84-1.89,1.59-4,.59-4.88C10,12.53,5.7,12.41,5,12.39A2,2,0,0,1,3.61,12c-0.24-.63.24-1.24,0.13-1.73S2.8,9.51,2.8,8.86s1-.8,1.09-1.53-0.45-1.1-.28-1.67,0.76-.53,1.07-1.19S4.62,2.85,6,2.53a17.14,17.14,0,0,1,5-.47c2,0.11,3.9,1,6.83,1v7.22Zm5-10.16h-2v12h2C24.33,11.13,23.83,1.13,22.83.13Z"/><path class="cls-2" d="M52.05,0.13h-2v12h2C53.55,11.13,53.05,1.13,52.05.13ZM33.65,1C32,1.38,32.46,2.68,32,3.38s-1.13.53-1.41,1.54,0.47,1.09.47,1.74c0,0.86-1,1-1,2.16s0.9,1.15,1,1.81c0.1,0.82-.78,1.26-0.5,2.43a1.86,1.86,0,0,0,1.59,1.07c0.89,0.16,4.51-.19,5.41.69,1.23,1.2-.5,2.44-0.5,5.13,0,3.13,2.09,5.19,4.91,3.37-0.62-1.53-.33-3,0.66-4.81C44,14,46.93,12.45,49.05,11.13v-10c-3.69,0-6.11-.76-8.63-0.91A23.09,23.09,0,0,0,33.65,1Zm13.41,9.31c-2,.86-5.53,3.26-6,7.48a3.73,3.73,0,0,0-.66,3.62c-1.59.58-1.64-1.59-.92-3.22,0.84-1.89,1.59-4,.59-4.88-0.81-.75-5.1-0.87-5.82-0.9A2,2,0,0,1,32.83,12c-0.24-.63.24-1.24,0.13-1.73S32,9.51,32,8.86s1-.8,1.09-1.53-0.45-1.1-.28-1.67,0.76-.53,1.07-1.19-0.07-1.62,1.27-1.94a17.14,17.14,0,0,1,5-.47c2,0.11,3.9,1,6.83,1v7.22Z"/><path class="cls-3" d="M62.65,1C61,1.38,61.46,2.68,61,3.38s-1.13.53-1.41,1.54,0.47,1.09.47,1.74c0,0.86-1,1-1,2.16s0.9,1.15,1,1.81c0.1,0.82-.78,1.26-0.5,2.43a1.86,1.86,0,0,0,1.59,1.07c0.89,0.16,4.51-.19,5.41.69,1.23,1.2-.5,2.44-0.5,5.13,0,3.13,2.09,5.19,4.91,3.37-0.62-1.53-.33-3,0.66-4.81C73,14,75.93,12.45,78.05,11.13v-10c-3.69,0-6.11-.76-8.63-0.91A23.09,23.09,0,0,0,62.65,1Zm13.41,9.31c-2,.86-5.53,3.26-6,7.48a3.73,3.73,0,0,0-.66,3.62c-1.59.58-1.64-1.59-.92-3.22,0.84-1.89,1.59-4,.59-4.88-0.81-.75-5.1-0.87-5.82-0.9A2,2,0,0,1,61.83,12c-0.24-.63.24-1.24,0.13-1.73S61,9.51,61,8.86s1-.8,1.09-1.53-0.45-1.1-.28-1.67,0.76-.53,1.07-1.19-0.07-1.62,1.27-1.94a17.14,17.14,0,0,1,5-.47c2,0.11,3.9,1,6.83,1v7.22Zm5-10.16h-2v12h2C82.55,11.13,82.05,1.13,81.05.13Z"/></svg>