<svg id="Enter_Full_Screen" data-name="Enter Full Screen" xmlns="http://www.w3.org/2000/svg" width="82" height="24" viewBox="0 0 82 24"><defs><style>.cls-1{fill:#0089d9;}.cls-1,.cls-2,.cls-3{fill-rule:evenodd;}.cls-2{fill:#d7d7d7;}.cls-3{fill:#39a6e6;}</style></defs><title>24</title><path class="cls-1" d="M16,2L18.29,4.3l-3.5,3.5,1.41,1.41,3.5-3.5L22,8V2H16Zm0.21,12.79-1.41,1.41,3.5,3.5L16,22h6V16l-2.29,2.29Zm-8.44,0-3.5,3.5L2,16v6H8L5.68,19.71l3.5-3.5ZM8,2H2V8L4.26,5.71l3.5,3.5L9.18,7.8,5.68,4.3Z"/><path class="cls-2" d="M45,2L47.32,4.3l-3.5,3.5,1.41,1.41,3.5-3.5L51,8V2H45Zm0.21,12.79-1.41,1.41,3.5,3.5L45,22h6V16l-2.29,2.29Zm-8.44,0-3.5,3.5L31,16v6h6l-2.29-2.29,3.5-3.5ZM37,2H31V8l2.29-2.29,3.5,3.5L38.21,7.8l-3.5-3.5Z"/><path class="cls-3" d="M74,2L76.32,4.3l-3.5,3.5,1.41,1.41,3.5-3.5L80,8V2H74Zm0.21,12.79-1.41,1.41,3.5,3.5L74,22h6V16l-2.29,2.29Zm-8.44,0-3.5,3.5L60,16v6h6l-2.29-2.29,3.5-3.5ZM66,2H60V8l2.29-2.29,3.5,3.5L67.21,7.8l-3.5-3.5Z"/></svg>