<svg id="Exclude" xmlns="http://www.w3.org/2000/svg" width="82" height="24" viewBox="0 0 82 24"><defs><style>.cls-1{fill:#0089d9;}.cls-1,.cls-2,.cls-3{fill-rule:evenodd;}.cls-2{fill:#d7d7d7;}.cls-3{fill:#39a6e6;}</style></defs><title>24</title><path class="cls-1" d="M12,0A12,12,0,1,0,24,12,12,12,0,0,0,12,0Zm0,22A10,10,0,1,1,22,12,10,10,0,0,1,12,22ZM12,9a3,3,0,1,0,3,3A3,3,0,0,0,12,9Z"/><path class="cls-2" d="M41,0A12,12,0,1,0,53,12,12,12,0,0,0,41,0Zm0,22A10,10,0,1,1,51,12,10,10,0,0,1,41,22ZM41,9a3,3,0,1,0,3,3A3,3,0,0,0,41,9Z"/><path class="cls-3" d="M70,0A12,12,0,1,0,82,12,12,12,0,0,0,70,0Zm0,22A10,10,0,1,1,80,12,10,10,0,0,1,70,22ZM70,9a3,3,0,1,0,3,3A3,3,0,0,0,70,9Z"/></svg>