<svg id="Office_Excel" data-name="Office Excel" xmlns="http://www.w3.org/2000/svg" width="82" height="24" viewBox="0 0 82 24"><defs><style>.cls-1{fill:#0089d9;}.cls-1,.cls-2,.cls-3,.cls-4,.cls-5{fill-rule:evenodd;}.cls-2{fill:#68a611;}.cls-3{fill:#d7d7d7;}.cls-4{fill:#39a6e6;}.cls-5{fill:#8ec928;}</style></defs><title>24</title><path class="cls-1" d="M16,0.28V0H2V24H22V6.25ZM19.59,6H16V2.49ZM4,22V2H14V8h6V22H4Z"/><path class="cls-2" d="M7,11h3l8,9H14L6,11H7Z"/><path class="cls-2" d="M14,11L6,19H8.44L16,11.47V11H14Z"/><path class="cls-3" d="M45,0.28V0H31V24H51V6.25ZM48.59,6H45V2.49ZM33,22V2H43V8h6V22H33Z"/><path class="cls-3" d="M36,11h3l8,9H43l-8-9h1Z"/><path class="cls-3" d="M43,11l-8,8h2.44L45,11.47V11H43Z"/><path class="cls-4" d="M74,0.28V0H60V24H80V6.25ZM77.59,6H74V2.49ZM62,22V2H72V8h6V22H62Z"/><path class="cls-5" d="M65,11h3l8,9H72l-8-9h1Z"/><path class="cls-5" d="M72,11l-8,8h2.44L74,11.47V11H72Z"/></svg>