<svg id="Favorite" xmlns="http://www.w3.org/2000/svg" width="111" height="24" viewBox="0 0 111 24"><defs><style>.cls-1{fill:#39a6e6;}.cls-1,.cls-2,.cls-3{fill-rule:evenodd;}.cls-2{fill:#d7d7d7;}.cls-3{fill:#0089d9;}</style></defs><title>24</title><path class="cls-1" d="M81.58,10.91a1.25,1.25,0,0,0-.71-2.17c-0.12,0-6.86-.58-7-0.65S71.2,1.85,71.15,1.74a1.27,1.27,0,0,0-2.3,0c0,0.11-2.67,6.29-2.77,6.36s-6.83.64-7,.65a1.25,1.25,0,0,0-.71,2.17c0.09,0.07,5.2,4.47,5.24,4.58s-1.5,6.64-1.52,6.76A1.26,1.26,0,0,0,64,23.59c0.1-.06,5.89-3.53,6-3.53s5.9,3.46,6,3.53a1.26,1.26,0,0,0,1.86-1.34c0-.11-1.56-6.64-1.52-6.76S81.5,11,81.58,10.91Zm-5.5,10.81c-5.49-3.33-5.68-3.33-6.09-3.33s-0.6,0-6.09,3.33c1.47-6.26,1.47-6.28,1.31-6.78s-0.18-.55-5-4.69c6.36-.5,6.56-0.64,6.87-0.86s0.49-.51,3-6.52V3.15c2.49,5.91,2.58,6,3,6.25s0.5,0.35,6.86.85C75,14.4,74.91,14.54,74.78,15S74.62,15.44,76.09,21.72Zm-13-11.09A25.87,25.87,0,0,0,66.18,14c0.53,0.36,1.25-.67.81-1.18A34.8,34.8,0,0,0,63.13,10.63Z"/><path class="cls-2" d="M52.58,10.91a1.25,1.25,0,0,0-.71-2.17c-0.12,0-6.86-.58-7-0.65S42.2,1.85,42.15,1.74a1.27,1.27,0,0,0-2.3,0c0,0.11-2.67,6.29-2.77,6.36s-6.83.64-7,.65a1.25,1.25,0,0,0-.71,2.17c0.09,0.07,5.2,4.47,5.24,4.58s-1.5,6.64-1.52,6.76A1.26,1.26,0,0,0,35,23.59c0.1-.06,5.89-3.53,6-3.53s5.9,3.46,6,3.53a1.26,1.26,0,0,0,1.86-1.34c0-.11-1.56-6.64-1.52-6.76S52.5,11,52.58,10.91Zm-5.5,10.81c-5.49-3.33-5.68-3.33-6.09-3.33s-0.6,0-6.09,3.33c1.47-6.26,1.47-6.28,1.31-6.78s-0.18-.55-5-4.69c6.36-.5,6.56-0.64,6.87-0.86s0.49-.51,3-6.52V3.15c2.49,5.91,2.58,6,3,6.25s0.5,0.35,6.86.85C46,14.4,45.91,14.54,45.78,15S45.62,15.44,47.09,21.72Zm-13-11.09A25.87,25.87,0,0,0,37.11,14c0.53,0.36,1.25-.67.81-1.18A34.8,34.8,0,0,0,34.06,10.63Z"/><path class="cls-3" d="M23.58,10.91a1.25,1.25,0,0,0-.71-2.17c-0.12,0-6.86-.58-7-0.65S13.2,1.85,13.15,1.74a1.27,1.27,0,0,0-2.3,0C10.8,1.85,8.18,8,8.08,8.09s-6.83.64-7,.65a1.25,1.25,0,0,0-.71,2.17C0.5,11,5.62,15.38,5.66,15.49s-1.5,6.64-1.52,6.76A1.26,1.26,0,0,0,6,23.59c0.1-.06,5.89-3.53,6-3.53s5.9,3.46,6,3.53a1.26,1.26,0,0,0,1.86-1.34c0-.11-1.56-6.64-1.52-6.76S23.5,11,23.58,10.91Zm-5.5,10.81c-5.49-3.33-5.68-3.33-6.09-3.33s-0.6,0-6.09,3.33c1.47-6.26,1.47-6.28,1.31-6.78s-0.18-.55-5-4.69C8.54,9.76,8.73,9.62,9,9.4s0.49-.51,3-6.52V3.15c2.49,5.91,2.58,6,3,6.25s0.5,0.35,6.86.85C17,14.4,16.91,14.54,16.78,15S16.62,15.44,18.09,21.72ZM5,10.53a25.86,25.86,0,0,0,3.05,3.39c0.53,0.36,1.25-.67.81-1.18A34.79,34.79,0,0,0,5,10.53Z"/><path class="cls-3" d="M110.58,10.91a1.25,1.25,0,0,0-.71-2.17c-0.12,0-6.86-.58-7-0.65s-2.73-6.25-2.77-6.36a1.27,1.27,0,0,0-2.3,0c0,0.11-2.67,6.29-2.77,6.36s-6.83.64-7,.65a1.25,1.25,0,0,0-.71,2.17c0.09,0.07,5.2,4.47,5.24,4.58s-1.5,6.64-1.52,6.76A1.26,1.26,0,0,0,93,23.59c0.1-.06,5.89-3.53,6-3.53s5.9,3.46,6,3.53a1.26,1.26,0,0,0,1.86-1.34c0-.11-1.56-6.64-1.52-6.76S110.5,11,110.58,10.91ZM94.18,14a25.86,25.86,0,0,1-3.05-3.39A34.8,34.8,0,0,1,95,12.84C95.42,13.35,94.71,14.38,94.18,14Z"/></svg>