<svg id="Folder_Building" data-name="Folder Building" xmlns="http://www.w3.org/2000/svg" width="82" height="24" viewBox="0 0 82 24"><defs><style>.cls-1{fill:#0089d9;}.cls-2{fill:#d7d7d7;}.cls-3{fill:#39a6e6;}</style></defs><title>24</title><path class="cls-1" d="M21,3H11.5S10,0,8,0H3A3.23,3.23,0,0,0,0,3V17a3.23,3.23,0,0,0,3,3H8V18H3a1.08,1.08,0,0,1-1-1V5H21a1.08,1.08,0,0,1,1,1V17a1.08,1.08,0,0,1-1,1v2a3.23,3.23,0,0,0,3-3V6A3.23,3.23,0,0,0,21,3ZM2,4V3A1.08,1.08,0,0,1,3,2H8c1,0,2,2,2,2H2Zm16,8V10H15V8H14v2H11v2H9V24H20V12S18,12,18,12Zm-3,2h1v1H15V14Zm0,2h1v1H15V16Zm0,2h1v1H15V18Zm-2-4h1v1H13V14Zm0,2h1v1H13V16Zm0,2h1v1H13V18Zm-2-4h1v1H11V14Zm0,2h1v1H11V16Zm0,2h1v1H11V18Zm7,4H11V21h7v1Zm0-3H17V18h1v1Zm0-2H17V16h1v1Zm0-2H17V14h1v1Z"/><path class="cls-2" d="M50,3H40.5S39,0,37,0H32a3.23,3.23,0,0,0-3,3V17a3.23,3.23,0,0,0,3,3h5V18H32a1.08,1.08,0,0,1-1-1V5H50a1.08,1.08,0,0,1,1,1V17a1.08,1.08,0,0,1-1,1v2a3.23,3.23,0,0,0,3-3V6A3.23,3.23,0,0,0,50,3ZM31,4V3a1.08,1.08,0,0,1,1-1h5c1,0,2,2,2,2H31Zm16,8V10H44V8H43v2H40v2H38V24H49V12S47,12,47,12Zm-3,2h1v1H44V14Zm0,2h1v1H44V16Zm0,2h1v1H44V18Zm-2-4h1v1H42V14Zm0,2h1v1H42V16Zm0,2h1v1H42V18Zm-2-4h1v1H40V14Zm0,2h1v1H40V16Zm0,2h1v1H40V18Zm7,4H40V21h7v1Zm0-3H46V18h1v1Zm0-2H46V16h1v1Zm0-2H46V14h1v1Z"/><path class="cls-3" d="M79,3H69.5S68,0,66,0H61a3.23,3.23,0,0,0-3,3V17a3.23,3.23,0,0,0,3,3h5V18H61a1.08,1.08,0,0,1-1-1V5H79a1.08,1.08,0,0,1,1,1V17a1.08,1.08,0,0,1-1,1v2a3.23,3.23,0,0,0,3-3V6A3.23,3.23,0,0,0,79,3ZM60,4V3a1.08,1.08,0,0,1,1-1h5c1,0,2,2,2,2H60Zm16,8V10H73V8H72v2H69v2H67V24H78V12S76,12,76,12Zm-3,2h1v1H73V14Zm0,2h1v1H73V16Zm0,2h1v1H73V18Zm-2-4h1v1H71V14Zm0,2h1v1H71V16Zm0,2h1v1H71V18Zm-2-4h1v1H69V14Zm0,2h1v1H69V16Zm0,2h1v1H69V18Zm7,4H69V21h7v1Zm0-3H75V18h1v1Zm0-2H75V16h1v1Zm0-2H75V14h1v1Z"/></svg>