<svg id="Hourglass" xmlns="http://www.w3.org/2000/svg" width="82" height="24" viewBox="0 0 82 24"><defs><style>.cls-1{fill:#0089d9;}.cls-2{fill:#d7d7d7;}.cls-3{fill:#39a6e6;}</style></defs><title>24</title><path class="cls-1" d="M11.47,12a3.66,3.66,0,0,0-1.25-2.12C7.3,6.74,6.55,5.16,7.1,2h9.8c0.55,3.16-.2,4.74-3.12,7.87A3.66,3.66,0,0,0,12.53,12c1,0,1.62,0,2,0a3.11,3.11,0,0,1,.69-1.08A8.9,8.9,0,0,0,18.91,2h1.15A1,1,0,0,0,21,1a1,1,0,0,0-.94-1H3.94a1,1,0,0,0,0,2H5.09a8.9,8.9,0,0,0,3.66,8.92A3.1,3.1,0,0,1,9.44,12C9.85,12,10.47,12,11.47,12Zm8.47,10h-1a8.9,8.9,0,0,0-3.66-8.92A3.11,3.11,0,0,1,14.56,12c-0.41,0-1,0-2,0a3.66,3.66,0,0,0,1.25,2.13c2.92,3.14,3.67,4.71,3.12,7.88H7.1c-0.55-3.17.2-4.74,3.12-7.88A3.66,3.66,0,0,0,11.47,12c-1,0-1.62,0-2,0a3.1,3.1,0,0,1-.69,1.08A8.9,8.9,0,0,0,5.09,22H3.94a1,1,0,1,0,0,2h16A1,1,0,1,0,19.94,22ZM8.32,3C7.48,3,8.25,5.74,9.74,7.26,9.23,5.76,9.68,3,8.32,3Zm0,18c1.35,0,.91-2.76,1.41-4.26C8.25,18.26,7.48,21,8.32,21Z"/><path class="cls-2" d="M40.47,12a3.66,3.66,0,0,0-1.25-2.12C36.31,6.74,35.55,5.16,36.11,2h9.8c0.55,3.16-.2,4.74-3.12,7.87A3.66,3.66,0,0,0,41.54,12c1,0,1.62,0,2,0a3.11,3.11,0,0,1,.69-1.08A8.9,8.9,0,0,0,47.91,2h1.15A1,1,0,0,0,50,1a1,1,0,0,0-.94-1H32.94a1,1,0,0,0,0,2H34.1a8.9,8.9,0,0,0,3.66,8.92A3.1,3.1,0,0,1,38.44,12C38.85,12,39.47,12,40.47,12Zm8.47,10h-1a8.9,8.9,0,0,0-3.66-8.92A3.11,3.11,0,0,1,43.57,12c-0.41,0-1,0-2,0a3.66,3.66,0,0,0,1.25,2.13c2.92,3.14,3.67,4.71,3.12,7.88h-9.8c-0.55-3.17.2-4.74,3.12-7.88A3.66,3.66,0,0,0,40.47,12c-1,0-1.62,0-2,0a3.1,3.1,0,0,1-.69,1.08A8.9,8.9,0,0,0,34.1,22H32.94a1,1,0,1,0,0,2h16A1,1,0,1,0,48.94,22ZM37.33,3c-0.84,0-.07,2.75,1.41,4.26C38.23,5.76,38.68,3,37.33,3Zm0,18c1.35,0,.91-2.76,1.41-4.26C37.25,18.26,36.48,21,37.33,21Z"/><path class="cls-3" d="M69.53,12a3.66,3.66,0,0,0-1.25-2.12C65.37,6.74,64.61,5.16,65.16,2H75c0.55,3.16-.2,4.74-3.12,7.87A3.66,3.66,0,0,0,70.59,12c1,0,1.62,0,2,0a3.11,3.11,0,0,1,.69-1.08A8.9,8.9,0,0,0,77,2h1.15a1,1,0,0,0,.94-1,1,1,0,0,0-.94-1H62a1,1,0,0,0,0,2h1.15a8.9,8.9,0,0,0,3.66,8.92A3.1,3.1,0,0,1,67.5,12C67.91,12,68.53,12,69.53,12ZM78,22H77a8.9,8.9,0,0,0-3.66-8.92A3.11,3.11,0,0,1,72.63,12c-0.41,0-1,0-2,0a3.66,3.66,0,0,0,1.25,2.13C74.76,17.26,75.51,18.83,75,22h-9.8c-0.55-3.17.2-4.74,3.12-7.88A3.66,3.66,0,0,0,69.53,12c-1,0-1.62,0-2,0a3.1,3.1,0,0,1-.69,1.08A8.9,8.9,0,0,0,63.15,22H62a1,1,0,1,0,0,2H78A1,1,0,1,0,78,22ZM66.38,3c-0.84,0-.07,2.75,1.41,4.26C67.29,5.76,67.74,3,66.38,3Zm0,18c1.35,0,.91-2.76,1.41-4.26C66.31,18.26,65.54,21,66.38,21Z"/></svg>