<svg id="Home" xmlns="http://www.w3.org/2000/svg" width="82" height="24" viewBox="0 0 82 24"><defs><style>.cls-1{fill:#0089d9;}.cls-1,.cls-2,.cls-3{fill-rule:evenodd;}.cls-2{fill:#d7d7d7;}.cls-3{fill:#39a6e6;}</style></defs><title>24</title><path class="cls-1" d="M16,3h0l2,1V3h1V6h2V1H16V2h0V3h0Zm4,10a1,1,0,0,0-1,1v8H16V16h0a1,1,0,0,0-1-1H9a1,1,0,0,0-1,1v6H5V14a1,1,0,0,0-2,0v9a1,1,0,0,0,1,1H9a1,1,0,0,0,1-1V17h4v6a1,1,0,0,0,1,1h5a1,1,0,0,0,1-1V14A1,1,0,0,0,20,13Zm3.71-.69-11-11a1,1,0,0,0-1.43,0l-11,11a1,1,0,0,0,1.41,1.41L12,3.4,22.29,13.72A1,1,0,0,0,23.71,12.31Z"/><path class="cls-2" d="M45,3h0l2,1V3h1V6h2V1H45V2h0V3h0Zm4,10a1,1,0,0,0-1,1v8H45V16h0a1,1,0,0,0-1-1H38a1,1,0,0,0-1,1v6H34V14a1,1,0,0,0-2,0v9a1,1,0,0,0,1,1h5a1,1,0,0,0,1-1V17h4v6a1,1,0,0,0,1,1h5a1,1,0,0,0,1-1V14A1,1,0,0,0,49,13Zm3.71-.69-11-11a1,1,0,0,0-1.43,0l-11,11a1,1,0,0,0,1.41,1.41L41,3.4,51.29,13.72A1,1,0,0,0,52.71,12.31Z"/><path class="cls-3" d="M74,3h0l2,1V3h1V6h2V1H74V2h0V3h0Zm4,10a1,1,0,0,0-1,1v8H74V16h0a1,1,0,0,0-1-1H67a1,1,0,0,0-1,1v6H63V14a1,1,0,0,0-2,0v9a1,1,0,0,0,1,1h5a1,1,0,0,0,1-1V17h4v6a1,1,0,0,0,1,1h5a1,1,0,0,0,1-1V14A1,1,0,0,0,78,13Zm3.71-.69-11-11a1,1,0,0,0-1.43,0l-11,11a1,1,0,0,0,1.41,1.41L70,3.4,80.29,13.72A1,1,0,0,0,81.71,12.31Z"/></svg>