<svg id="Image_Document" data-name="Image Document" xmlns="http://www.w3.org/2000/svg" width="82" height="24" viewBox="0 0 82 24"><defs><style>.cls-1{fill:#0089d9;}.cls-2{fill:#d7d7d7;}.cls-3{fill:#39a6e6;}</style></defs><title>24</title><path class="cls-1" d="M22,5.92L16,0H2V24H22ZM20,22H4V2H14V8h6V22ZM16,6V2l4,4H16Zm0.48,7a1.5,1.5,0,1,0-1.5-1.5A1.5,1.5,0,0,0,16.5,13Zm-4,2a7.74,7.74,0,0,1,1.64,3.9c-0.92-1.58-4.15-5.85-6.23-5.85-0.78,0-1.42,1-1.93,2.17V20H18C18,15.67,14.66,13.58,12.52,15Z"/><path class="cls-2" d="M51,5.92L45,0H31V24H51ZM49,22H33V2H43V8h6V22ZM45,6V2l4,4H45Zm0.48,7a1.5,1.5,0,1,0-1.5-1.5A1.5,1.5,0,0,0,45.5,13Zm-4,2a7.74,7.74,0,0,1,1.64,3.9c-0.92-1.58-4.15-5.85-6.23-5.85-0.78,0-1.42,1-1.93,2.17V20H47C47,15.67,43.66,13.58,41.52,15Z"/><path class="cls-3" d="M80,5.92L74,0H60V24H80ZM78,22H62V2H72V8h6V22ZM74,6V2l4,4H74Zm0.48,7a1.5,1.5,0,1,0-1.5-1.5A1.5,1.5,0,0,0,74.5,13Zm-4,2a7.74,7.74,0,0,1,1.64,3.9c-0.92-1.58-4.15-5.85-6.23-5.85-0.78,0-1.42,1-1.93,2.17V20H76C76,15.67,72.66,13.58,70.52,15Z"/></svg>