<svg id="Locked" xmlns="http://www.w3.org/2000/svg" width="82" height="24" viewBox="0 0 82 24"><defs><style>.cls-1{fill:#0089d9;}.cls-1,.cls-2,.cls-3{fill-rule:evenodd;}.cls-2{fill:#d7d7d7;}.cls-3{fill:#39a6e6;}</style></defs><title>24</title><path class="cls-1" d="M18,9V7A6,6,0,1,0,6,7V9a2,2,0,0,0-2,2V21a2,2,0,0,0,2,2H18a2,2,0,0,0,2-2V11A2,2,0,0,0,18,9ZM8,7a4,4,0,1,1,8,0V9H8V7ZM18,20a1,1,0,0,1-1,1H7a1,1,0,0,1-1-1V12a1,1,0,0,1,1-1H17a1,1,0,0,1,1,1v8Zm-6-8a1,1,0,0,0-1,1v2a1,1,0,0,0,2,0V13A1,1,0,0,0,12,12Z"/><path class="cls-2" d="M47,9V7A6,6,0,1,0,35,7V9a2,2,0,0,0-2,2V21a2,2,0,0,0,2,2H47a2,2,0,0,0,2-2V11A2,2,0,0,0,47,9ZM37,7a4,4,0,1,1,8,0V9H37V7ZM47,20a1,1,0,0,1-1,1H36a1,1,0,0,1-1-1V12a1,1,0,0,1,1-1H46a1,1,0,0,1,1,1v8Zm-6-8a1,1,0,0,0-1,1v2a1,1,0,0,0,2,0V13A1,1,0,0,0,41,12Z"/><path class="cls-3" d="M76,9V7A6,6,0,1,0,64,7V9a2,2,0,0,0-2,2V21a2,2,0,0,0,2,2H76a2,2,0,0,0,2-2V11A2,2,0,0,0,76,9ZM66,7a4,4,0,1,1,8,0V9H66V7ZM76,20a1,1,0,0,1-1,1H65a1,1,0,0,1-1-1V12a1,1,0,0,1,1-1H75a1,1,0,0,1,1,1v8Zm-6-8a1,1,0,0,0-1,1v2a1,1,0,0,0,2,0V13A1,1,0,0,0,70,12Z"/></svg>