<svg id="Paste" xmlns="http://www.w3.org/2000/svg" width="82" height="24" viewBox="0 0 82 24"><defs><style>.cls-1{fill:#0089d9;}.cls-1,.cls-2,.cls-3{fill-rule:evenodd;}.cls-2{fill:#d7d7d7;}.cls-3{fill:#39a6e6;}</style></defs><title>24</title><path class="cls-1" d="M5,15.5a0.5,0.5,0,0,0,.5.5H10V15H5.5A0.5,0.5,0,0,0,5,15.5Zm0-2a0.5,0.5,0,0,0,.5.5H10V13H5.5A0.5,0.5,0,0,0,5,13.5ZM19,7H11V24H24V12Zm1,3,1,1H20V10Zm2,12H13V9h5v4h4v9ZM2,5H3V3H4V6h9V3h1V5h1V6h2V3H13V2H10.95a2.5,2.5,0,0,0-4.9,0H4V3H0V22H10V20H2V5ZM8.47,1A1.43,1.43,0,0,1,10,2H7A1.38,1.38,0,0,1,8.47,1ZM5,11.5a0.5,0.5,0,0,0,.5.5H10V11H5.5A0.5,0.5,0,0,0,5,11.5Zm0-2a0.5,0.5,0,0,0,.5.5H10V9H5.5A0.5,0.5,0,0,0,5,9.5Z"/><path class="cls-2" d="M34,15.5a0.5,0.5,0,0,0,.5.5H39V15H34.5A0.5,0.5,0,0,0,34,15.5ZM31,5h1V3h1V6h9V3h1V5h1V6h2V3H42V2H39.95a2.5,2.5,0,0,0-4.9,0H33V3H29V22H39V20H31V5Zm6.47-4A1.43,1.43,0,0,1,39,2H36A1.38,1.38,0,0,1,37.47,1ZM34,13.5a0.5,0.5,0,0,0,.5.5H39V13H34.5A0.5,0.5,0,0,0,34,13.5Zm0-2a0.5,0.5,0,0,0,.5.5H39V11H34.5A0.5,0.5,0,0,0,34,11.5ZM48,7H40V24H53V12Zm1,3,1,1H49V10Zm2,12H42V9h5v4h4v9ZM34,9.5a0.5,0.5,0,0,0,.5.5H39V9H34.5A0.5,0.5,0,0,0,34,9.5Z"/><path class="cls-3" d="M63,13.5a0.5,0.5,0,0,0,.5.5H68V13H63.5A0.5,0.5,0,0,0,63,13.5Zm0,2a0.5,0.5,0,0,0,.5.5H68V15H63.5A0.5,0.5,0,0,0,63,15.5ZM60,5h1V3h1V6h9V3h1V5h1V6h2V3H71V2H68.95a2.5,2.5,0,0,0-4.9,0H62V3H58V22H68V20H60V5Zm6.47-4A1.43,1.43,0,0,1,68,2H65A1.38,1.38,0,0,1,66.47,1ZM63,9.5a0.5,0.5,0,0,0,.5.5H68V9H63.5A0.5,0.5,0,0,0,63,9.5ZM77,7H69V24H82V12Zm1,3,1,1H78V10Zm2,12H71V9h5v4h4v9ZM63,11.5a0.5,0.5,0,0,0,.5.5H68V11H63.5A0.5,0.5,0,0,0,63,11.5Z"/></svg>