<svg id="Replace" xmlns="http://www.w3.org/2000/svg" width="82" height="24" viewBox="0 0 82 24"><defs><style>.cls-1{fill:#0089d9;}.cls-1,.cls-2,.cls-3{fill-rule:evenodd;}.cls-2{fill:#d7d7d7;}.cls-3{fill:#39a6e6;}</style></defs><title>24</title><path class="cls-1" d="M14,18C7,18,3,15,1,11c0,6,6,9,13,9v4l5-5-5-5v4ZM10,4V0L5,5l5,5V6c7,0,11,3,13,7C23,7,17,4,10,4Z"/><path class="cls-2" d="M43,18c-7,0-11-3-13-7,0,6,6,9,13,9v4l5-5-5-5v4ZM39,4V0L34,5l5,5V6c7,0,11,3,13,7C52,7,46,4,39,4Z"/><path class="cls-3" d="M72,18c-7,0-11-3-13-7,0,6,6,9,13,9v4l5-5-5-5v4ZM68,4V0L63,5l5,5V6c7,0,11,3,13,7C81,7,75,4,68,4Z"/></svg>