<svg xmlns="http://www.w3.org/2000/svg" width="82" height="24"><g><path fill="#0089D9" fill-rule="evenodd" d="M16 8l-3.2 3.2c-.3-.1-.5-.2-.8-.2-1.1 0-2 .9-2 2s.9 2 2 2 2-.9 2-2c0-.3-.1-.6-.2-.8L17 9c.7-.7-.3-1.7-1-1zm-4-6C5.9 2 1 6.9 1 13s4.9 11 11 11 11-4.9 11-11S18 2 12 2zm0 20c-5 0-9-4-9-9s4-9 9-9 9 4 9 9-4.1 9-9 9zM23 2c-1.8-1.8-4-1-5 0l5 5c.8-1.1 1.8-3.2 0-5zM1 2C-.8 3.8.3 6 1 7l5-5C5 1 2.8.2 1 2z" clip-rule="evenodd"/><path fill="#C8C8C8" fill-rule="evenodd" d="M45 8l-3.2 3.2c-.3-.1-.5-.2-.8-.2-1.1 0-2 .9-2 2s.9 2 2 2 2-.9 2-2c0-.3-.1-.6-.2-.8L46 9c.7-.7-.3-1.7-1-1zm7-6c-1.8-1.8-4-1-5 0l5 5c.8-1.1 1.8-3.2 0-5zM41 2c-6.1 0-11 4.9-11 11s4.9 11 11 11 11-4.9 11-11S47 2 41 2zm0 20c-5 0-9-4-9-9s4-9 9-9 9 4 9 9-4.1 9-9 9zM30 2c-1.8 1.8-.7 4 0 5l5-5c-1-1-3.2-1.8-5 0z" clip-rule="evenodd"/><path fill="#39A6E6" fill-rule="evenodd" d="M74 8l-3.2 3.2c-.2-.1-.5-.2-.8-.2-1.1 0-2 .9-2 2s.9 2 2 2 2-.9 2-2c0-.3-.1-.6-.2-.8L75 9c.7-.7-.3-1.7-1-1zm7-6c-1.8-1.8-4-1-5 0l5 5c.8-1.1 1.8-3.2 0-5zM70 2c-6.1 0-11 4.9-11 11s4.9 11 11 11 11-4.9 11-11S76.1 2 70 2zm0 20c-5 0-9-4-9-9s4-9 9-9 9 4 9 9-4 9-9 9zM59 2c-1.8 1.8-.7 4 0 5l5-5c-1-1-3.2-1.8-5 0z" clip-rule="evenodd"/></g></svg>