<svg id="Time" xmlns="http://www.w3.org/2000/svg" width="82" height="24" viewBox="0 0 82 24"><defs><style>.cls-1{fill:#0089d9;}.cls-1,.cls-2,.cls-3{fill-rule:evenodd;}.cls-2{fill:#d7d7d7;}.cls-3{fill:#39a6e6;}</style></defs><title>24</title><path class="cls-1" d="M12,3H11L10,13a2.48,2.48,0,0,0,1.5,1,1.81,1.81,0,0,0,1.11-.58L17.91,13V12l-5.06-.5Zm8.49,0.51a12,12,0,1,0,0,17A12,12,0,0,0,20.49,3.51Zm-1.4,15.57a10,10,0,1,1,0-14.16A10,10,0,0,1,19.08,19.08Z"/><path class="cls-2" d="M49.49,3.51a12,12,0,1,0,0,17A12,12,0,0,0,49.49,3.51Zm-1.4,15.57a10,10,0,1,1,0-14.16A10,10,0,0,1,48.08,19.08ZM41,3H40L39,13a2.48,2.48,0,0,0,1.5,1,1.81,1.81,0,0,0,1.11-.58L46.91,13V12l-5.06-.5Z"/><path class="cls-3" d="M70,3H69L68,13a2.48,2.48,0,0,0,1.5,1,1.81,1.81,0,0,0,1.11-.58L75.91,13V12l-5.06-.5Zm8.49,0.51a12,12,0,1,0,0,17A12,12,0,0,0,78.49,3.51Zm-1.4,15.57a10,10,0,1,1,0-14.16A10,10,0,0,1,77.08,19.08Z"/></svg>