<svg id="Unlocked" xmlns="http://www.w3.org/2000/svg" width="82" height="24" viewBox="0 0 82 24"><defs><style>.cls-1{fill:#0089d9;}.cls-1,.cls-2,.cls-3{fill-rule:evenodd;}.cls-2{fill:#d7d7d7;}.cls-3{fill:#39a6e6;}</style></defs><title>24</title><path class="cls-1" d="M12,13a1,1,0,0,0-1,1v2a1,1,0,1,0,2,0V14A1,1,0,0,0,12,13Zm6-3H8V6a4,4,0,1,1,8,0V7h2V6A6,6,0,1,0,6,6v4a2,2,0,0,0-2,2V22a2,2,0,0,0,2,2H18a2,2,0,0,0,2-2V12A2,2,0,0,0,18,10Zm0,11a1,1,0,0,1-1,1H7a1,1,0,0,1-1-1V13a1,1,0,0,1,1-1H17a1,1,0,0,1,1,1v8Z"/><path class="cls-2" d="M41,13a1,1,0,0,0-1,1v2a1,1,0,1,0,2,0V14A1,1,0,0,0,41,13Zm6-3H37V6a4,4,0,1,1,8,0V7h2V6A6,6,0,1,0,35,6v4a2,2,0,0,0-2,2V22a2,2,0,0,0,2,2H47a2,2,0,0,0,2-2V12A2,2,0,0,0,47,10Zm0,11a1,1,0,0,1-1,1H36a1,1,0,0,1-1-1V13a1,1,0,0,1,1-1H46a1,1,0,0,1,1,1v8Z"/><path class="cls-3" d="M76,10H66V6a4,4,0,1,1,8,0V7h2V6A6,6,0,1,0,64,6v4a2,2,0,0,0-2,2V22a2,2,0,0,0,2,2H76a2,2,0,0,0,2-2V12A2,2,0,0,0,76,10Zm0,11a1,1,0,0,1-1,1H65a1,1,0,0,1-1-1V13a1,1,0,0,1,1-1H75a1,1,0,0,1,1,1v8Zm-6-8a1,1,0,0,0-1,1v2a1,1,0,1,0,2,0V14A1,1,0,0,0,70,13Z"/></svg>