<svg id="Undo" xmlns="http://www.w3.org/2000/svg" width="82" height="24" viewBox="0 0 82 24"><defs><style>.cls-1{fill:#0089d9;}.cls-1,.cls-2,.cls-3{fill-rule:evenodd;}.cls-2{fill:#d7d7d7;}.cls-3{fill:#39a6e6;}</style></defs><title>24</title><path class="cls-1" d="M9,8V2L0,11.53,9,21V15c8,0,11.2.82,15,7C23,10,17.65,8,9,8ZM7,13v2L3.22,11.44,7,8v2c8.65,0,10.63,1.28,13.34,5.31C17.13,13.2,15,13,7,13Z"/><path class="cls-2" d="M38,8V2l-9,9.53L38,21V15c8,0,11.2.82,15,7C51.94,10,46.61,8,38,8Zm-2,5v2l-3.78-3.56L36,8v2c8.65,0,10.63,1.28,13.34,5.31C46.09,13.2,44,13,36,13Z"/><path class="cls-3" d="M67,8V2l-9,9.53L67,21V15c8,0,11.2.82,15,7C80.94,10,75.61,8,67,8Zm-2,5v2l-3.78-3.56L65,8v2c8.65,0,10.63,1.28,13.34,5.31C75.09,13.2,73,13,65,13Z"/></svg>