<svg id="Video" xmlns="http://www.w3.org/2000/svg" width="82" height="24" viewBox="0 0 82 24"><defs><style>.cls-1{fill:#0089d9;}.cls-1,.cls-2,.cls-3{fill-rule:evenodd;}.cls-2{fill:#d7d7d7;}.cls-3{fill:#39a6e6;}</style></defs><title>24</title><path class="cls-1" d="M9,8v7l6-3ZM0,1V22H23V1H0ZM12,3h4V5H12V3ZM7,3h4V5H7V3ZM2,3H6V5H2V3ZM6,20H2V18H6v2Zm5,0H7V18h4v2Zm5,0H12V18h4v2Zm5,0H17V18h4v2Zm0-3H2V6H21V17ZM21,5H17V3h4V5Z"/><path class="cls-2" d="M38,8v7l6-3ZM29,1V22H52V1H29ZM41,3h4V5H41V3ZM36,3h4V5H36V3ZM31,3h4V5H31V3Zm4,17H31V18h4v2Zm5,0H36V18h4v2Zm5,0H41V18h4v2Zm5,0H46V18h4v2Zm0-3H31V6H50V17ZM50,5H46V3h4V5Z"/><path class="cls-3" d="M67,8v7l6-3ZM58,1V22H81V1H58ZM70,3h4V5H70V3ZM65,3h4V5H65V3ZM60,3h4V5H60V3Zm4,17H60V18h4v2Zm5,0H65V18h4v2Zm5,0H70V18h4v2Zm5,0H75V18h4v2Zm0-3H60V6H79V17ZM79,5H75V3h4V5Z"/></svg>