<svg id="Add_Comment" data-name="Add Comment" xmlns="http://www.w3.org/2000/svg" width="58" height="16" viewBox="0 0 58 16"><defs><style>.cls-1{fill:#0089d9;}.cls-1,.cls-2,.cls-3,.cls-4,.cls-5{fill-rule:evenodd;}.cls-2{fill:#68a611;}.cls-3{fill:#c8c8c8;}.cls-4{fill:#39a6e6;}.cls-5{fill:#8ec928;}</style></defs><title>16</title><path class="cls-1" d="M6,7V6H6V5H4V5.89A0.92,0.92,0,0,0,4,6a0.92,0.92,0,0,0,0,.11V7H6Zm6-2H10V5.89A0.91,0.91,0,0,0,10,6a0.91,0.91,0,0,0,0,.11V7h2V6h0V5Zm0-5H4A4,4,0,0,0,0,4V8a4,4,0,0,0,4,4c0.67,0,1,2.67,1,4H6c0-1.85,2.05-3.68,3.07-3.94A4,4,0,0,1,9.49,11H9a3.14,3.14,0,0,0-3,2,1.85,1.85,0,0,0-2-2A3,3,0,0,1,1,8V4A3,3,0,0,1,4,1h8a3,3,0,0,1,3,3V8a3,3,0,0,1-.34,1.35,4,4,0,0,1,.85.54A4,4,0,0,0,16,8V4A4,4,0,0,0,12,0ZM9,7V6H9V5H7V5.89A0.91,0.91,0,0,0,7,6a0.91,0.91,0,0,0,0,.11V7H9Z"/><path class="cls-2" d="M12,10h2v6H12V10Z"/><path class="cls-2" d="M10,12h6v2H10V12Z"/><path class="cls-3" d="M33,5H31V5.89A0.92,0.92,0,0,0,31,6a0.91,0.91,0,0,0,0,.11V7h2V6h0V5Zm0-5H25a4,4,0,0,0-4,4V8a4,4,0,0,0,4,4c0.67,0,1,2.67,1,4h1c0-1.85,2.05-3.68,3.07-3.94A4,4,0,0,1,30.49,11H30a3.14,3.14,0,0,0-3,2,1.85,1.85,0,0,0-2-2,3,3,0,0,1-3-3V4a3,3,0,0,1,3-3h8a3,3,0,0,1,3,3V8a3,3,0,0,1-.34,1.35,4,4,0,0,1,.85.54A4,4,0,0,0,37,8V4A4,4,0,0,0,33,0ZM27,7V6h0V5H25V5.89A0.92,0.92,0,0,0,25,6a0.92,0.92,0,0,0,0,.11V7h2Zm3,0V6h0V5H28V5.89A0.91,0.91,0,0,0,28,6a0.91,0.91,0,0,0,0,.11V7h2Z"/><path class="cls-3" d="M33,10h2v6H33V10Z"/><path class="cls-3" d="M31,12h6v2H31V12Z"/><path class="cls-4" d="M54,5H52V5.89A0.91,0.91,0,0,0,52,6a0.91,0.91,0,0,0,0,.11V7h2V6h0V5Zm0-5H46a4,4,0,0,0-4,4V8a4,4,0,0,0,4,4c0.67,0,1,2.67,1,4h1c0-1.85,2.05-3.68,3.07-3.94A4,4,0,0,1,51.49,11H51a3.14,3.14,0,0,0-3,2,1.85,1.85,0,0,0-2-2,3,3,0,0,1-3-3V4a3,3,0,0,1,3-3h8a3,3,0,0,1,3,3V8a3,3,0,0,1-.34,1.35,4,4,0,0,1,.85.54A4,4,0,0,0,58,8V4A4,4,0,0,0,54,0ZM51,7V6h0V5H49V5.89A0.91,0.91,0,0,0,49,6a0.91,0.91,0,0,0,0,.11V7h2ZM48,7V6h0V5H46V5.89A0.92,0.92,0,0,0,46,6a0.92,0.92,0,0,0,0,.11V7h2Z"/><path class="cls-5" d="M54,10h2v6H54V10Z"/><path class="cls-5" d="M52,12h6v2H52V12Z"/></svg>