<svg id="Comment" xmlns="http://www.w3.org/2000/svg" width="79" height="16" viewBox="0 0 79 16"><defs><style>.cls-1{fill:#0089d9;}.cls-1,.cls-2,.cls-3{fill-rule:evenodd;}.cls-2{fill:#39a6e6;}.cls-3{fill:#c8c8c8;}</style></defs><title>16</title><path class="cls-1" d="M75,0H67a4,4,0,0,0-4,4V8a4,4,0,0,0,4,4c0.67,0,1,2.67,1,4h1c0-2,2.41-4,3.3-4H75a4,4,0,0,0,4-4V4A4,4,0,0,0,75,0ZM69,7H67V5h2V7Zm3,0H70V5h2V7Zm3,0H73V5h2V7Z"/><path class="cls-2" d="M51,5H49V5.89A0.91,0.91,0,0,0,49,6a0.91,0.91,0,0,0,0,.11V7h2V6h0V5ZM48,5H46V5.89A0.92,0.92,0,0,0,46,6a0.92,0.92,0,0,0,0,.11V7h2V6h0V5Zm6-5H46a4,4,0,0,0-4,4V8a4,4,0,0,0,4,4c0.67,0,1,2.67,1,4h1c0-2,2.41-4,3.3-4H54a4,4,0,0,0,4-4V4A4,4,0,0,0,54,0Zm3,8a3,3,0,0,1-3,3H51a3.14,3.14,0,0,0-3,2,1.85,1.85,0,0,0-2-2,3,3,0,0,1-3-3V4a3,3,0,0,1,3-3h8a3,3,0,0,1,3,3V8ZM54,5H52V5.89A0.92,0.92,0,0,0,52,6a0.91,0.91,0,0,0,0,.11V7h2V6h0V5Z"/><path class="cls-3" d="M30,5H28V5.89A0.91,0.91,0,0,0,28,6a0.91,0.91,0,0,0,0,.11V7h2V6h0V5ZM27,5H25V5.89A0.92,0.92,0,0,0,25,6a0.92,0.92,0,0,0,0,.11V7h2V6h0V5Zm6,0H31V5.89A0.92,0.92,0,0,0,31,6a0.91,0.91,0,0,0,0,.11V7h2V6h0V5Zm0-5H25a4,4,0,0,0-4,4V8a4,4,0,0,0,4,4c0.67,0,1,2.67,1,4h1c0-2,2.41-4,3.3-4H33a4,4,0,0,0,4-4V4A4,4,0,0,0,33,0Zm3,8a3,3,0,0,1-3,3H30a3.14,3.14,0,0,0-3,2,1.85,1.85,0,0,0-2-2,3,3,0,0,1-3-3V4a3,3,0,0,1,3-3h8a3,3,0,0,1,3,3V8Z"/><path class="cls-1" d="M9,5H7V5.89A0.91,0.91,0,0,0,7,6a0.91,0.91,0,0,0,0,.11V7H9V6H9V5ZM6,5H4V5.89A0.91,0.91,0,0,0,4,6a0.91,0.91,0,0,0,0,.11V7H6V6H6V5Zm6,0H10V5.89A0.91,0.91,0,0,0,10,6a0.91,0.91,0,0,0,0,.11V7h2V6h0V5Zm0-5H4A4,4,0,0,0,0,4V8a4,4,0,0,0,4,4c0.67,0,1,2.67,1,4H6c0-2,2.41-4,3.3-4H12a4,4,0,0,0,4-4V4A4,4,0,0,0,12,0Zm3,8a3,3,0,0,1-3,3H9a3.14,3.14,0,0,0-3,2,1.85,1.85,0,0,0-2-2A3,3,0,0,1,1,8V4A3,3,0,0,1,4,1h8a3,3,0,0,1,3,3V8Z"/></svg>