<svg id="Unread_Comment" data-name="Unread Comment" xmlns="http://www.w3.org/2000/svg" width="79" height="16" viewBox="0 0 79 16"><defs><style>.cls-1{fill:#0089d9;}.cls-1,.cls-2,.cls-3,.cls-4,.cls-5{fill-rule:evenodd;}.cls-2{fill:#d6565a;}.cls-3{fill:#39a6e6;}.cls-4{fill:#e57377;}.cls-5{fill:#c8c8c8;}</style></defs><title>16</title><path class="cls-1" d="M77,5a3,3,0,0,1-2.22-5H67a4,4,0,0,0-4,4V8a4,4,0,0,0,4,4c0.67,0,1,2.67,1,4h1c0-2,2.41-4,3.3-4H75a4,4,0,0,0,4-4V4.22A3,3,0,0,1,77,5ZM69,7H67V5h2V7Zm3,0H70V5h2V7Zm3,0H73V5h2V7Z"/><path class="cls-2" d="M77,0a2,2,0,1,1-2,2A2,2,0,0,1,77,0Z"/><path class="cls-3" d="M58,3.95V5H57V8a3,3,0,0,1-3,3H51a3.14,3.14,0,0,0-3,2,1.85,1.85,0,0,0-2-2,3,3,0,0,1-3-3V4a3,3,0,0,1,3-3h7V0H46a4,4,0,0,0-4,4V8a4,4,0,0,0,4,4c0.67,0,1,2.67,1,4h1c0-2,2.41-4,3.3-4H54a4,4,0,0,0,4-4V4S58,4,58,3.95ZM54,7V6h0V5H52V5.89A0.91,0.91,0,0,0,52,6a0.92,0.92,0,0,0,0,.11V7h2ZM48,7V6h0V5H46V5.89A0.92,0.92,0,0,0,46,6a0.92,0.92,0,0,0,0,.11V7h2Zm3,0V6h0V5H49V5.89A0.91,0.91,0,0,0,49,6a0.91,0.91,0,0,0,0,.11V7h2Z"/><path class="cls-4" d="M56,0a2,2,0,1,1-2,2A2,2,0,0,1,56,0Z"/><path class="cls-5" d="M37,3.95V5H36V8a3,3,0,0,1-3,3H30a3.14,3.14,0,0,0-3,2,1.85,1.85,0,0,0-2-2,3,3,0,0,1-3-3V4a3,3,0,0,1,3-3h7V0H25a4,4,0,0,0-4,4V8a4,4,0,0,0,4,4c0.67,0,1,2.67,1,4h1c0-2,2.41-4,3.3-4H33a4,4,0,0,0,4-4V4S37,4,37,3.95ZM33,7V6h0V5H31V5.89A0.91,0.91,0,0,0,31,6a0.92,0.92,0,0,0,0,.11V7h2ZM30,7V6h0V5H28V5.89A0.91,0.91,0,0,0,28,6a0.91,0.91,0,0,0,0,.11V7h2ZM27,7V6h0V5H25V5.89A0.92,0.92,0,0,0,25,6a0.92,0.92,0,0,0,0,.11V7h2Z"/><path class="cls-5" d="M35,0a2,2,0,1,1-2,2A2,2,0,0,1,35,0Z"/><path class="cls-1" d="M16,3.95V5H15V8a3,3,0,0,1-3,3H9a3.14,3.14,0,0,0-3,2,1.85,1.85,0,0,0-2-2A3,3,0,0,1,1,8V4A3,3,0,0,1,4,1h7V0H4A4,4,0,0,0,0,4V8a4,4,0,0,0,4,4c0.67,0,1,2.67,1,4H6c0-2,2.41-4,3.3-4H12a4,4,0,0,0,4-4V4S16,4,16,3.95ZM12,7V6h0V5H10V5.89A0.91,0.91,0,0,0,10,6a0.91,0.91,0,0,0,0,.11V7h2ZM6,7V6H6V5H4V5.89A0.92,0.92,0,0,0,4,6a0.92,0.92,0,0,0,0,.11V7H6ZM9,7V6H9V5H7V5.89A0.91,0.91,0,0,0,7,6a0.91,0.91,0,0,0,0,.11V7H9Z"/><path class="cls-2" d="M14,0a2,2,0,1,1-2,2A2,2,0,0,1,14,0Z"/></svg>