<svg id="Announcement" xmlns="http://www.w3.org/2000/svg" width="82" height="24" viewBox="0 0 82 24"><defs><style>.cls-1{fill:#0089d9;}.cls-1,.cls-2,.cls-3{fill-rule:evenodd;}.cls-2{fill:#d7d7d7;}.cls-3{fill:#39a6e6;}</style></defs><title>24</title><path class="cls-1" d="M22.6,8.9l0.87-.5a1,1,0,0,0-1-1.73l-0.87.5A1,1,0,0,0,22.6,8.9ZM18,1.7c-2.7,2.07-5.55,5.36-9,5.36H4c-5.41,0-5.34,9,0,9H5.08a4.47,4.47,0,0,0,8.28,1.83c1.67,1.3,3.21,3.05,4.7,4.35,1.64,1.68,2,0,2,0V1.59S19.49,0.38,18,1.7ZM9.53,18.06a2.5,2.5,0,0,1-2.45-2H9a5.71,5.71,0,0,1,2.67.73A2.49,2.49,0,0,1,9.53,18.06ZM18,19.69s-4-5.62-9-5.62H4c-2.81,0-2.69-5,0-5H9c5,0,9-4.75,9-4.75V19.69Zm4-6.62h1a1,1,0,0,0,0-2H22A1,1,0,0,0,22,13.06Zm1.43,2.66-0.87-.5a1,1,0,0,0-1,1.73l0.87,0.5A1,1,0,0,0,23.46,15.73Z"/><path class="cls-2" d="M51,13.06h1a1,1,0,0,0,0-2H51A1,1,0,0,0,51,13.06ZM51.6,8.9l0.87-.5a1,1,0,0,0-1-1.73l-0.87.5A1,1,0,0,0,51.6,8.9ZM47,1.7c-2.7,2.07-5.55,5.36-9,5.36H33c-5.41,0-5.34,9,0,9h1.05a4.47,4.47,0,0,0,8.28,1.83c1.67,1.3,3.21,3.05,4.7,4.35,1.64,1.68,2,0,2,0V1.59S48.49,0.38,47,1.7ZM38.53,18.06a2.5,2.5,0,0,1-2.45-2H38a5.71,5.71,0,0,1,2.67.73A2.49,2.49,0,0,1,38.53,18.06ZM47,19.69s-4-5.63-9-5.63H33c-2.81,0-2.69-5,0-5h5c5,0,9-4.75,9-4.75V19.69Zm5.43-4-0.87-.5a1,1,0,0,0-1,1.73l0.87,0.5A1,1,0,0,0,52.46,15.73Z"/><path class="cls-3" d="M80.57,8.9l0.87-.5a1,1,0,0,0-1-1.73l-0.87.5A1,1,0,0,0,80.57,8.9ZM76,1.7c-2.7,2.07-5.55,5.36-9,5.36H62c-5.41,0-5.34,9,0,9h1.05a4.47,4.47,0,0,0,8.28,1.83c1.67,1.3,3.21,3.05,4.7,4.35,1.64,1.68,2,0,2,0V1.59S77.46,0.38,76,1.7ZM67.5,18.06a2.5,2.5,0,0,1-2.45-2H67a5.71,5.71,0,0,1,2.67.73A2.49,2.49,0,0,1,67.5,18.06ZM76,19.69s-4-5.63-9-5.63H62c-2.81,0-2.69-5,0-5h5c5,0,9-4.75,9-4.75V19.69Zm4-6.62h1a1,1,0,0,0,0-2H80A1,1,0,0,0,80,13.06Zm1.43,2.66-0.87-.5a1,1,0,0,0-1,1.73l0.87,0.5A1,1,0,0,0,81.43,15.73Z"/></svg>