<svg id="Alarm" xmlns="http://www.w3.org/2000/svg" width="111" height="24" viewBox="0 0 111 24"><defs><style>.cls-1{fill:#0089d9;}.cls-1,.cls-2,.cls-3{fill-rule:evenodd;}.cls-2{fill:#d7d7d7;}.cls-3{fill:#39a6e6;}</style></defs><title>24</title><path class="cls-1" d="M16,8L12.8,11.2a2,2,0,1,0,1,1L17,9A0.71,0.71,0,1,0,16,8ZM12,2A11,11,0,1,0,23,13,11,11,0,0,0,12,2Zm0,20a9,9,0,1,1,9-9A9,9,0,0,1,12,22ZM23,2a3.49,3.49,0,0,0-5,0l5,5C23.79,5.92,24.76,3.8,23,2ZM1,2C-0.8,3.8.26,6,1,7L6,2A3.49,3.49,0,0,0,1,2Z"/><path class="cls-2" d="M45,8L41.8,11.2a2,2,0,1,0,1,1L46,9A0.71,0.71,0,1,0,45,8Zm7-6a3.49,3.49,0,0,0-5,0l5,5C52.79,5.92,53.76,3.8,52,2ZM41,2A11,11,0,1,0,52,13,11,11,0,0,0,41,2Zm0,20a9,9,0,1,1,9-9A9,9,0,0,1,41,22ZM30,2c-1.78,1.78-.72,4,0,5l5-5A3.49,3.49,0,0,0,30,2Z"/><path class="cls-3" d="M74,8L70.82,11.2a2,2,0,1,0,1,1L75,9A0.71,0.71,0,1,0,74,8Zm7-6a3.49,3.49,0,0,0-5,0l5,5C81.81,5.92,82.78,3.8,81,2ZM70,2A11,11,0,1,0,81,13,11,11,0,0,0,70,2Zm0,20a9,9,0,1,1,9-9A9,9,0,0,1,70,22ZM59,2c-1.78,1.78-.72,4,0,5l5-5A3.49,3.49,0,0,0,59,2Z"/><path class="cls-1" d="M99,2a11,11,0,1,0,11,11A11,11,0,0,0,99,2Zm5,7-3.19,3.19a2,2,0,1,1-1-1L103,8A0.71,0.71,0,1,1,104,9Zm6-7a3.49,3.49,0,0,0-5,0l5,5C110.79,5.92,111.76,3.8,110,2ZM88,2c-1.78,1.78-.72,4,0,5l5-5A3.49,3.49,0,0,0,88,2Z"/></svg>