<svg id="Copy" xmlns="http://www.w3.org/2000/svg" width="82" height="24" viewBox="0 0 82 24"><defs><style>.cls-1{fill:#0089d9;}.cls-1,.cls-2,.cls-3{fill-rule:evenodd;}.cls-2{fill:#d7d7d7;}.cls-3{fill:#39a6e6;}</style></defs><title>24</title><path class="cls-1" d="M16,3H13L10,0H0V21H6v3H23V10Zm1,3.34L19.68,9H17V6.34ZM10,2l1,1H10V2ZM6,19H2V2H9V3H6V19Zm15,3H8V5h7v6h6V22Z"/><path class="cls-2" d="M45,3H42L39,0H29V21h6v3H52V10Zm1,3.34L48.68,9H46V6.34ZM39,2l1,1H39V2ZM35,19H31V2h7V3H35V19Zm15,3H37V5h7v6h6V22Z"/><path class="cls-3" d="M74,3H71L68,0H58V21h6v3H81V10Zm1,3.34L77.68,9H75V6.34ZM68,2l1,1H68V2ZM64,19H60V2h7V3H64V19Zm15,3H66V5h7v6h6V22Z"/></svg>