<svg id="Detach" xmlns="http://www.w3.org/2000/svg" width="82" height="24" viewBox="0 0 82 24"><defs><style>.cls-1{fill:#0089d9;}.cls-2{fill:#d7d7d7;}.cls-3{fill:#39a6e6;}</style></defs><title>24</title><path class="cls-1" d="M22,0H6A2.15,2.15,0,0,0,4,2V12H2a2.15,2.15,0,0,0-2,2v8a2.15,2.15,0,0,0,2,2h8c0.43,0,2-1,2-2V20H22a2.15,2.15,0,0,0,2-2V2A2.15,2.15,0,0,0,22,0ZM10,22H2V14H4v4a2.15,2.15,0,0,0,2,2h4v2Zm12-4H6V2H22V18ZM10.68,14.76l6-6L19,11V5H13l2.31,2.31-6,6Z"/><path class="cls-2" d="M51,0H35a2.15,2.15,0,0,0-2,2V12H31a2.15,2.15,0,0,0-2,2v8a2.15,2.15,0,0,0,2,2h8c0.43,0,2-1,2-2V20H51a2.15,2.15,0,0,0,2-2V2A2.15,2.15,0,0,0,51,0ZM39,22H31V14h2v4a2.15,2.15,0,0,0,2,2h4v2Zm12-4H35V2H51V18ZM39.68,14.76l6-6L48,11V5H42l2.31,2.31-6,6Z"/><path class="cls-3" d="M80,0H64a2.15,2.15,0,0,0-2,2V12H60a2.15,2.15,0,0,0-2,2v8a2.15,2.15,0,0,0,2,2h8c0.43,0,2-1,2-2V20H80a2.15,2.15,0,0,0,2-2V2A2.15,2.15,0,0,0,80,0ZM68,22H60V14h2v4a2.15,2.15,0,0,0,2,2h4v2Zm12-4H64V2H80V18ZM68.68,14.76l6-6L77,11V5H71l2.31,2.31-6,6Z"/></svg>