<svg id="Delete" xmlns="http://www.w3.org/2000/svg" width="82" height="24" viewBox="0 0 82 24"><defs><style>.cls-1{fill:#39a6e6;}.cls-1,.cls-2,.cls-3{fill-rule:evenodd;}.cls-2{fill:#d7d7d7;}.cls-3{fill:#0089d9;}</style></defs><title>24</title><path class="cls-1" d="M68,17V9a1,1,0,1,0-2,0v8A1,1,0,1,0,68,17Zm3,0V9a1,1,0,1,0-2,0v8A1,1,0,1,0,71,17Zm3,0V9a1,1,0,1,0-2,0v8A1,1,0,1,0,74,17ZM80,4H74c0-2-1-4-3-4H69c-2,0-3,2-3,4H60a2.15,2.15,0,0,0-2,2V7a1,1,0,1,0,2,0,1,1,0,0,1,1-1H79a1,1,0,0,1,1,1,1,1,0,1,0,2,0V6A2.15,2.15,0,0,0,80,4ZM72,4H68V3a1.22,1.22,0,0,1,1-1h2a1.22,1.22,0,0,1,1,1V4Zm6.09,3A1,1,0,0,0,77,7.91S76.53,16,76.25,20.47A1.58,1.58,0,0,1,74.41,22H65.59a1.57,1.57,0,0,1-1.85-1.53C63.53,16,63,7.91,63,7.91a1,1,0,1,0-2,.18L61.85,22A2.6,2.6,0,0,0,64,24H76a2.6,2.6,0,0,0,2.15-2L79,8.09A1,1,0,0,0,78.09,7Z"/><path class="cls-2" d="M39,17V9a1,1,0,1,0-2,0v8A1,1,0,1,0,39,17Zm3,0V9a1,1,0,1,0-2,0v8A1,1,0,1,0,42,17Zm3,0V9a1,1,0,1,0-2,0v8A1,1,0,1,0,45,17ZM51,4H45c0-2-1-4-3-4H40c-2,0-3,2-3,4H31a2.15,2.15,0,0,0-2,2V7a1,1,0,1,0,2,0,1,1,0,0,1,1-1H50a1,1,0,0,1,1,1,1,1,0,1,0,2,0V6A2.15,2.15,0,0,0,51,4ZM43,4H39V3a1.22,1.22,0,0,1,1-1h2a1.22,1.22,0,0,1,1,1V4Zm6.09,3A1,1,0,0,0,48,7.91S47.53,16,47.25,20.47A1.58,1.58,0,0,1,45.41,22H36.59a1.57,1.57,0,0,1-1.85-1.53C34.53,16,34,7.91,34,7.91a1,1,0,1,0-2,.18L32.85,22A2.6,2.6,0,0,0,35,24H47a2.6,2.6,0,0,0,2.15-2L50,8.09A1,1,0,0,0,49.09,7Z"/><path class="cls-3" d="M10,17V9A1,1,0,1,0,8,9v8A1,1,0,1,0,10,17Zm3,0V9a1,1,0,1,0-2,0v8A1,1,0,1,0,13,17Zm3,0V9a1,1,0,1,0-2,0v8A1,1,0,1,0,16,17ZM22,4H16c0-2-1-4-3-4H11C9,0,8,2,8,4H2A2.15,2.15,0,0,0,0,6V7A1,1,0,1,0,2,7,1,1,0,0,1,3,6H21a1,1,0,0,1,1,1,1,1,0,1,0,2,0V6A2.15,2.15,0,0,0,22,4ZM14,4H10V3a1.22,1.22,0,0,1,1-1h2a1.22,1.22,0,0,1,1,1V4Zm6.09,3A1,1,0,0,0,19,7.91S18.53,16,18.25,20.47A1.58,1.58,0,0,1,16.41,22H7.59a1.57,1.57,0,0,1-1.85-1.53C5.53,16,5,7.91,5,7.91a1,1,0,1,0-2,.18L3.85,22A2.6,2.6,0,0,0,6,24H18a2.6,2.6,0,0,0,2.15-2L21,8.09A1,1,0,0,0,20.09,7Z"/></svg>