<svg id="Export" xmlns="http://www.w3.org/2000/svg" width="111" height="24" viewBox="0 0 111 24"><defs><style>.cls-1{fill:#0089d9;}.cls-1,.cls-2,.cls-3{fill-rule:evenodd;}.cls-2{fill:#d7d7d7;}.cls-3{fill:#39a6e6;}</style></defs><title>24</title><path class="cls-1" d="M18,21a1,1,0,0,1-1,1H3a1,1,0,0,1-1-1V7A1,1,0,0,1,3,6H13l2-2H2A2,2,0,0,0,0,6V22a2,2,0,0,0,2,2H18a2,2,0,0,0,2-2V9l-2,2V21ZM23,0H16a1,1,0,1,0,0,2h4.5L9.41,13.09a1,1,0,1,0,1.41,1.41L22,3.33V8a1,1,0,1,0,2,0V1A1,1,0,0,0,23,0Z"/><path class="cls-2" d="M47,21a1,1,0,0,1-1,1H32a1,1,0,0,1-1-1V7a1,1,0,0,1,1-1H42l2-2H31a2,2,0,0,0-2,2V22a2,2,0,0,0,2,2H47a2,2,0,0,0,2-2V9l-2,2V21ZM52,0H45a1,1,0,1,0,0,2h4.5L38.41,13.09a1,1,0,1,0,1.41,1.41L51,3.33V8a1,1,0,1,0,2,0V1A1,1,0,0,0,52,0Z"/><path class="cls-3" d="M76,21a1,1,0,0,1-1,1H61a1,1,0,0,1-1-1V7a1,1,0,0,1,1-1H71l2-2H60a2,2,0,0,0-2,2V22a2,2,0,0,0,2,2H76a2,2,0,0,0,2-2V9l-2,2V21ZM81,0H74a1,1,0,1,0,0,2h4.5L67.41,13.09a1,1,0,1,0,1.41,1.41L80,3.33V8a1,1,0,1,0,2,0V1A1,1,0,0,0,81,0Z"/><path class="cls-1" d="M110,0h-7a1,1,0,1,0,0,2h4.5L96.41,13.09a1,1,0,1,0,1.41,1.41L109,3.33V8a1,1,0,1,0,2,0V1A1,1,0,0,0,110,0ZM95.56,15.56C94,14,96,12,96,12l8-8H89a2,2,0,0,0-2,2V22a2,2,0,0,0,2,2h16a2,2,0,0,0,2-2V7l-8,8S97,17,95.56,15.56Z"/></svg>