<svg id="Flag" xmlns="http://www.w3.org/2000/svg" width="82" height="24" viewBox="0 0 82 24"><defs><style>.cls-1{fill:#0089d9;}.cls-1,.cls-2,.cls-3{fill-rule:evenodd;}.cls-2{fill:#d7d7d7;}.cls-3{fill:#39a6e6;}</style></defs><title>24</title><path class="cls-1" d="M2,0A1,1,0,0,0,1,1V23a1,1,0,1,0,2,0V1A1,1,0,0,0,2,0ZM13.49,1.41C11-.72,6-0.37,4,2V17c2.78-2.09,6-2.87,9-.75,3.39,2.4,6.6,2.41,9-.25V1C18.77,3,16.54,4,13.49,1.41ZM20,14.82C17.65,17,16.42,16,13.55,14.25A9.05,9.05,0,0,0,6,13.57c0-2,0-8.62,0-10.62,2.29-1.5,4.81-1,7,.56a6.78,6.78,0,0,0,7,1V14.82Z"/><path class="cls-2" d="M31.13,0a1,1,0,0,0-1,1V23a1,1,0,1,0,2,0V1A1,1,0,0,0,31.13,0ZM42.62,1.41C40.09-.72,35.08-0.37,33.13,2V17c2.78-2.09,6-2.87,9-.75,3.39,2.4,6.6,2.41,9-.25V1C47.9,3,45.67,4,42.62,1.41Zm6.51,13.41C46.77,17,45.55,16,42.67,14.25a9.05,9.05,0,0,0-7.55-.68c0-2,0-8.62,0-10.62,2.29-1.5,4.81-1,7,.56a6.78,6.78,0,0,0,7,1V14.82Z"/><path class="cls-3" d="M71.62,1.41C69.09-.72,64.08-0.37,62.13,2V17c2.78-2.09,6-2.87,9-.75,3.39,2.4,6.6,2.41,9-.25V1C76.9,3,74.67,4,71.62,1.41Zm6.51,13.41C75.77,17,74.55,16,71.67,14.25a9.05,9.05,0,0,0-7.55-.68c0-2,0-8.62,0-10.62,2.29-1.5,4.81-1,7,.56a6.78,6.78,0,0,0,7,1V14.82ZM60.13,0a1,1,0,0,0-1,1V23a1,1,0,1,0,2,0V1A1,1,0,0,0,60.13,0Z"/></svg>