<svg id="Graphs" xmlns="http://www.w3.org/2000/svg" width="82" height="24" viewBox="0 0 82 24"><defs><style>.cls-1{fill:#ffa526;}.cls-1,.cls-2,.cls-3,.cls-4,.cls-5,.cls-6{fill-rule:evenodd;}.cls-2{fill:#0089d9;}.cls-3{fill:#8ec928;}.cls-4{fill:#ff8b00;}.cls-5{fill:#d7d7d7;}.cls-6{fill:#68a611;}</style></defs><title>24</title><path class="cls-1" d="M58,13a11,11,0,1,0,22,0H58Zm11,9c-6,0-8.56-5.31-8.56-7H77.63C77.63,16.67,75,22,69,22Z"/><path class="cls-2" d="M71,0c0,2,0,11,0,11H82A11.07,11.07,0,0,0,71,0Zm2,2.43C76,2.42,79.67,6,79.67,9H73V2.42Z"/><path class="cls-3" d="M58,12H69s0-9,0-11A11.06,11.06,0,0,0,58,12Zm9-2H60.31C60.31,7,64,3.33,67,3.33V10Z"/><path class="cls-4" d="M0,13a11,11,0,1,0,22,0H0Zm11,9c-6,0-8.56-5.31-8.56-7H19.63C19.63,16.67,17,22,11,22Z"/><path class="cls-5" d="M40,24A11,11,0,0,0,51,13H29A11,11,0,0,0,40,24Zm0-2c-6,0-8.56-5.31-8.56-7H48.63C48.63,16.67,46,22,40,22ZM53,11A11,11,0,0,0,42,0c0,2,0,11,0,11H53ZM50.66,9H44V2.42C47,2.42,50.66,6,50.66,9ZM40,1A11,11,0,0,0,29,12H40S40,3,40,1Zm-2,9H31.32C31.32,7,35,3.33,38,3.33V10Z"/><path class="cls-2" d="M13,0c0,2,0,11,0,11H24A11.07,11.07,0,0,0,13,0Zm2,2.43C18,2.42,21.66,6,21.66,9H15V2.42Z"/><path class="cls-6" d="M0,12H11s0-9,0-11A11.06,11.06,0,0,0,0,12Zm9-2H2.31C2.31,7,6,3.33,9,3.33V10Z"/></svg>