<svg id="Office_Building" data-name="Office Building" xmlns="http://www.w3.org/2000/svg" width="82" height="24" viewBox="0 0 82 24"><defs><style>.cls-1{fill:#0089d9;}.cls-2{fill:#d7d7d7;}.cls-3{fill:#39a6e6;}</style></defs><title>24</title><path class="cls-1" d="M8,10h2V8H8v2Zm3,6h2V14H11v2ZM8,16h2V14H8v2Zm0-3h2V11H8v2Zm3-3h2V8H11v2Zm8-4V3H13V0H11V3H5V6H3V24H21V6H19ZM14,22H10V20h4v2Zm5,0H16V18H8v4H5V8H7V5H17V8h2V22ZM14,10h2V8H14v2Zm-3,3h2V11H11v2Zm3,3h2V14H14v2Zm0-3h2V11H14v2Z"/><path class="cls-2" d="M37,13h2V11H37v2Zm0-3h2V8H37v2Zm0,6h2V14H37v2Zm3,0h2V14H40v2Zm3-6h2V8H43v2Zm-3,3h2V11H40v2Zm8-7V3H42V0H40V3H34V6H32V24H50V6H48ZM43,22H39V20h4v2Zm5,0H45V18H37v4H34V8h2V5H46V8h2V22Zm-5-9h2V11H43v2Zm0,3h2V14H43v2Zm-3-6h2V8H40v2Z"/><path class="cls-3" d="M66,10h2V8H66v2Zm3,6h2V14H69v2Zm-3,0h2V14H66v2Zm0-3h2V11H66v2Zm6,3h2V14H72v2ZM77,6V3H71V0H69V3H63V6H61V24H79V6H77ZM72,22H68V20h4v2Zm5,0H74V18H66v4H63V8h2V5H75V8h2V22ZM72,10h2V8H72v2Zm-3,3h2V11H69v2Zm0-3h2V8H69v2Zm3,3h2V11H72v2Z"/></svg>