<svg id="Phone" xmlns="http://www.w3.org/2000/svg" width="82" height="24" viewBox="0 0 82 24"><defs><style>.cls-1{fill:#0089d9;}.cls-1,.cls-2,.cls-3{fill-rule:evenodd;}.cls-2{fill:#d7d7d7;}.cls-3{fill:#39a6e6;}</style></defs><title>24</title><path class="cls-1" d="M23.52,22.33a5.88,5.88,0,0,1-1.07.13A2,2,0,0,0,23.08,21a2.08,2.08,0,0,0-4.15,0,1.93,1.93,0,0,0,.39,1.15,1.5,1.5,0,0,1-1.7.11,7.7,7.7,0,0,0,.78-0.68c-0.36-2.44-2.9-5.3-5.31-6.5a8.24,8.24,0,0,0-2.78,2.77C8.8,17.35,8,15.71,7,14H7C6,12.37,5,10.6,5.27,9A8.24,8.24,0,0,0,9.06,7.85C9.23,5.16,8,1.53,6,0c-4.5,1.21-9,6.9-3.68,16.39h0c4.53,7.66,10.07,8.51,13.77,6.8a2.56,2.56,0,0,0,4-.26,2.47,2.47,0,0,0,3.76.28C24.13,23.14,23.88,22.54,23.52,22.33ZM4,15.44v0C1.07,10.32,1,4.36,5.27,2.16A7.11,7.11,0,0,1,7.21,6.4c-0.67.71-2.75,0.85-4,.74a10.77,10.77,0,0,0,1.95,7.72s0,0,0,0a10.75,10.75,0,0,0,5.69,5.63c0.54-1.17,1.71-2.9,2.66-3.12a7.11,7.11,0,0,1,2.7,3.8C12.08,23.8,7,20.62,4,15.44Zm17,6.17A0.62,0.62,0,1,1,21.62,21,0.62,0.62,0,0,1,21,21.62Z"/><path class="cls-2" d="M52.59,22.33a5.88,5.88,0,0,1-1.07.13A2,2,0,0,0,52.15,21,2.08,2.08,0,0,0,48,21a1.93,1.93,0,0,0,.39,1.15,1.5,1.5,0,0,1-1.7.11,7.7,7.7,0,0,0,.78-0.68c-0.36-2.44-2.9-5.3-5.31-6.5a8.32,8.32,0,0,0-2.81,2.77C37.84,17.35,37,15.71,36,14h0c-1-1.64-2-3.41-1.69-5a8.32,8.32,0,0,0,3.81-1.16C38.28,5.16,37,1.53,35.11,0c-4.5,1.21-8.95,6.9-3.68,16.39h0C36,24.06,41.5,24.91,45.2,23.2a2.56,2.56,0,0,0,4-.26,2.47,2.47,0,0,0,3.76.28C53.2,23.14,53,22.54,52.59,22.33ZM33.08,15.44v0c-2.93-5.11-3-11.06,1.27-13.27A7.11,7.11,0,0,1,36.28,6.4c-0.67.71-2.75,0.85-4,.74a10.77,10.77,0,0,0,1.95,7.72s0,0,0,0a10.75,10.75,0,0,0,5.69,5.63c0.54-1.17,1.71-2.9,2.66-3.12a7.11,7.11,0,0,1,2.7,3.8C41.15,23.8,36,20.62,33.08,15.44Zm17,6.17A0.62,0.62,0,1,1,50.69,21,0.62,0.62,0,0,1,50.07,21.62Z"/><path class="cls-3" d="M81.54,22.33a5.88,5.88,0,0,1-1.07.13A2,2,0,0,0,81.11,21,2.08,2.08,0,0,0,77,21a1.93,1.93,0,0,0,.39,1.15,1.5,1.5,0,0,1-1.7.11,7.7,7.7,0,0,0,.78-0.68c-0.36-2.44-2.9-5.3-5.31-6.5a8.27,8.27,0,0,0-2.79,2.77C66.81,17.35,66,15.71,65,14h0c-1-1.64-2-3.41-1.71-5a8.27,8.27,0,0,0,3.79-1.16C67.24,5.16,66,1.53,64.06,0c-4.5,1.21-8.95,6.9-3.68,16.39h0c4.53,7.66,10.07,8.51,13.77,6.8a2.56,2.56,0,0,0,4-.26,2.47,2.47,0,0,0,3.76.28C82.15,23.14,81.91,22.54,81.54,22.33ZM62,15.44v0C59.1,10.32,59,4.36,63.29,2.16A7.11,7.11,0,0,1,65.23,6.4c-0.67.71-2.75,0.85-4,.74a10.77,10.77,0,0,0,1.95,7.72s0,0,0,0a10.75,10.75,0,0,0,5.69,5.63c0.54-1.17,1.71-2.9,2.66-3.12a7.11,7.11,0,0,1,2.7,3.8C70.11,23.8,65,20.62,62,15.44Zm17,6.17A0.62,0.62,0,1,1,79.64,21,0.62,0.62,0,0,1,79,21.62Z"/></svg>