<svg id="Print" xmlns="http://www.w3.org/2000/svg" width="82" height="24" viewBox="0 0 82 24"><defs><style>.cls-1{fill:#39a6e6;}.cls-1,.cls-2,.cls-3{fill-rule:evenodd;}.cls-2{fill:#d7d7d7;}.cls-3{fill:#0089d9;}</style></defs><title>24</title><path class="cls-1" d="M78,8a1,1,0,1,0,1,1A1,1,0,0,0,78,8Zm2-3H78V0H62V5H60a2,2,0,0,0-2,2v8a2,2,0,0,0,2,2h2v7H74l4-4V17h2a2,2,0,0,0,2-2V7A2,2,0,0,0,80,5ZM64,2H76V5H64V2ZM76,19H73v3H64V12H76v7Zm4-5a1,1,0,0,1-1,1H78V11H62v4H61a1,1,0,0,1-1-1V8a1,1,0,0,1,1-1H79a1,1,0,0,1,1,1v6Z"/><path class="cls-2" d="M51,5H49V0H33V5H31a2,2,0,0,0-2,2v8a2,2,0,0,0,2,2h2v7H45l4-4V17h2a2,2,0,0,0,2-2V7A2,2,0,0,0,51,5ZM35,2H47V5H35V2ZM47,19H44v3H35V12H47v7Zm4-5a1,1,0,0,1-1,1H49V11H33v4H32a1,1,0,0,1-1-1V8a1,1,0,0,1,1-1H50a1,1,0,0,1,1,1v6ZM49,8a1,1,0,1,0,1,1A1,1,0,0,0,49,8Z"/><path class="cls-3" d="M20,8a1,1,0,1,0,1,1A1,1,0,0,0,20,8Zm2-3H20V0H4V5H2A2,2,0,0,0,0,7v8a2,2,0,0,0,2,2H4v7H16l4-4V17h2a2,2,0,0,0,2-2V7A2,2,0,0,0,22,5ZM6,2H18V5H6V2ZM18,19H15v3H6V12H18v7Zm4-5a1,1,0,0,1-1,1H20V11H4v4H3a1,1,0,0,1-1-1V8A1,1,0,0,1,3,7H21a1,1,0,0,1,1,1v6Z"/></svg>