<svg id="Price" xmlns="http://www.w3.org/2000/svg" width="82" height="24" viewBox="0 0 82 24"><defs><style>.cls-1{fill:#0089d9;}.cls-2{fill:#d7d7d7;}.cls-3{fill:#39a6e6;}</style></defs><title>24</title><path class="cls-1" d="M3,19.13V17.28c0.26,0.07.55,0.14,0.86,0.21a11.71,11.71,0,0,0,2.82.43,9.51,9.51,0,0,1-.17-1.41C4.4,16.23,3,15.7,3,15.12V13.51a25.89,25.89,0,0,0,3.71.43,9.4,9.4,0,0,1,.39-1.28c-3-.19-5.1-0.82-5.1-1.53V8.92l0.06,0C2.52,9.87,5.88,10,8.62,10A9.61,9.61,0,0,1,9.89,8.72C6,8.7,3,8,3,7.13V4.72C3,5.9,7,6,10,6c4.3,0,7,0,7-1.34V6.52A9.46,9.46,0,0,1,19,7c0-1.56,0-4,0-4.36C19,1,16,0,10,0S1,1,1,2.59C1,2.81,1,4,1,5.23A1.65,1.65,0,0,0,0,6.59C0,7,0,11,0,12a1.37,1.37,0,0,0,1,.92c0,0.6,0,1.23,0,1.78,0,0.75,0,4.36,0,5.3,0,0.76,2.25,1.82,7.62,2a9.54,9.54,0,0,1-.92-1.35C4.94,20.41,3,19.81,3,19.13ZM3,2.88c0-1.19,4-1.69,7-1.69s7,0.41,7,1.69V3.09c0,1.25-3.51,1.69-7,1.69-3,0-7-.37-7-1.69V2.88ZM16,8a8,8,0,1,0,8,8A8,8,0,0,0,16,8Zm0,14a6,6,0,1,1,6-6A6,6,0,0,1,16,22Zm1-5V12H16L13,13.7,13.1,14C14.5,13.3,15,13.95,15,15v2c0,1.52.21,2.76-1.25,2.76V20h4.51V19.73C17.26,19.73,17,18.37,17,17Z"/><path class="cls-2" d="M32,19.13V17.28q0.39,0.11.86,0.21a11.71,11.71,0,0,0,2.82.43,9.5,9.5,0,0,1-.17-1.41C33.41,16.23,32,15.7,32,15.13V13.51a25.89,25.89,0,0,0,3.71.43,9.39,9.39,0,0,1,.39-1.28c-3-.19-5.1-0.82-5.1-1.53V8.92l0.06,0c0.46,0.93,3.82,1,6.56,1.06a9.61,9.61,0,0,1,1.26-1.28C35,8.7,32,8,32,7.13V4.72C32,5.9,36,6,39,6c4.3,0,7,0,7-1.34V6.52A9.47,9.47,0,0,1,48,7c0-1.56,0-4,0-4.36C48,1,45,0,39,0s-9,1-9,2.59c0,0.21,0,1.4,0,2.63a1.65,1.65,0,0,0-1,1.37C29,7,29,11,29,12a1.37,1.37,0,0,0,1,.92c0,0.6,0,1.23,0,1.78,0,0.75,0,4.36,0,5.3,0,0.76,2.25,1.82,7.62,2a9.54,9.54,0,0,1-.92-1.35C33.95,20.41,32,19.81,32,19.13ZM32,2.88c0-1.19,4-1.69,7-1.69s7,0.41,7,1.69V3.09c0,1.25-3.51,1.69-7,1.69-3,0-7-.37-7-1.69V2.88ZM45,8a8,8,0,1,0,8,8A8,8,0,0,0,45,8Zm0,14a6,6,0,1,1,6-6A6,6,0,0,1,45,22Zm1-5V12H45L42,13.7,42.1,14C43.5,13.3,44,13.95,44,15v2c0,1.52.21,2.76-1.25,2.76V20h4.51V19.73C46.26,19.73,46,18.37,46,17Z"/><path class="cls-3" d="M61,19.13V17.28c0.26,0.07.55,0.14,0.86,0.21a11.71,11.71,0,0,0,2.82.43,9.51,9.51,0,0,1-.17-1.41C62.4,16.23,61,15.7,61,15.13V13.51a25.89,25.89,0,0,0,3.71.43,9.4,9.4,0,0,1,.39-1.28c-3-.19-5.1-0.82-5.1-1.53V8.92l0.06,0c0.46,0.93,3.82,1,6.56,1.06a9.61,9.61,0,0,1,1.26-1.28C64,8.7,61,8,61,7.13V4.72C61,5.9,65,6,68,6c4.3,0,7,0,7-1.34V6.52A9.46,9.46,0,0,1,77,7c0-1.56,0-4,0-4.36C77,1,74,0,68,0s-9,1-9,2.59c0,0.21,0,1.4,0,2.63a1.65,1.65,0,0,0-1,1.37C58,7,58,11,58,12a1.37,1.37,0,0,0,1,.92c0,0.6,0,1.23,0,1.78,0,0.75,0,4.36,0,5.3,0,0.76,2.25,1.82,7.62,2a9.54,9.54,0,0,1-.92-1.35C62.94,20.41,61,19.81,61,19.13ZM61,2.88c0-1.19,4-1.69,7-1.69s7,0.41,7,1.69V3.09c0,1.25-3.51,1.69-7,1.69-3,0-7-.37-7-1.69V2.88ZM74,8a8,8,0,1,0,8,8A8,8,0,0,0,74,8Zm0,14a6,6,0,1,1,6-6A6,6,0,0,1,74,22Zm1-5V12H74L71,13.7,71.1,14C72.5,13.3,73,13.95,73,15v2c0,1.52.21,2.76-1.25,2.76V20h4.51V19.73C75.26,19.73,75,18.37,75,17Z"/></svg>