<svg id="Refresh" xmlns="http://www.w3.org/2000/svg" width="82" height="24" viewBox="0 0 82 24"><defs><style>.cls-1{fill:#0089d9;}.cls-1,.cls-2,.cls-3{fill-rule:evenodd;}.cls-2{fill:#d7d7d7;}.cls-3{fill:#39a6e6;}</style></defs><title>24</title><path class="cls-1" d="M23.36,9.06l0.59-6L21.69,4.94c-0.13-.18-0.27-0.37-0.41-0.55A12,12,0,1,0,23,16.85l-1.81-.8A10,10,0,1,1,19.77,5.63c0.15,0.18.28,0.36,0.41,0.55L17.39,8.47Z"/><path class="cls-2" d="M52.36,9.06l0.59-6L50.69,4.94c-0.13-.18-0.27-0.37-0.41-0.55A12,12,0,1,0,52,16.85l-1.81-.8A10,10,0,1,1,48.77,5.63c0.15,0.18.28,0.36,0.41,0.55L46.39,8.47Z"/><path class="cls-3" d="M81.36,9.06l0.59-6L79.69,4.94c-0.13-.18-0.27-0.37-0.41-0.55A12,12,0,1,0,81,16.85l-1.81-.8A10,10,0,1,1,77.77,5.63c0.15,0.18.28,0.36,0.41,0.55L75.39,8.47Z"/></svg>