<svg id="Redo" xmlns="http://www.w3.org/2000/svg" width="82" height="24" viewBox="0 0 82 24"><defs><style>.cls-1{fill:#39a6e6;}.cls-1,.cls-2,.cls-3{fill-rule:evenodd;}.cls-2{fill:#d7d7d7;}.cls-3{fill:#0089d9;}</style></defs><title>24</title><path class="cls-1" d="M82,11.54L73,2V8c-8.65,0-14,2-15,14,3.84-6.17,7-7,15-7v6ZM61.66,15.32C64.37,11.29,66.35,10,75,10V8l3.78,3.44L75,15V13C67,13,64.87,13.21,61.66,15.32Z"/><path class="cls-2" d="M53,11.54L44,2V8c-8.65,0-14,2-15,14,3.84-6.17,7-7,15-7v6ZM32.69,15.32C35.41,11.29,37.39,10,46,10V8l3.78,3.44L46,15V13C38,13,35.91,13.21,32.69,15.32Z"/><path class="cls-3" d="M0,22c3.84-6.17,7-7,15-7v6l9-9.47L15,2V8C6.39,8,1.06,10,0,22Zm3.69-6.68C6.41,11.29,8.39,10,17,10V8l3.78,3.44L17,15V13C9,13,6.91,13.21,3.69,15.32Z"/></svg>