<svg id="Text_Files" data-name="Text Files" xmlns="http://www.w3.org/2000/svg" width="82" height="24" viewBox="0 0 82 24"><defs><style>.cls-1{fill:#0089d9;}.cls-1,.cls-2,.cls-3{fill-rule:evenodd;}.cls-2{fill:#d7d7d7;}.cls-3{fill:#39a6e6;}</style></defs><title>24</title><path class="cls-1" d="M16.5,14h-9a0.5,0.5,0,1,0,0,1h9A0.5,0.5,0,1,0,16.5,14ZM16,0.28V0H2V24H22V6.25Zm0,2.21L19.59,6H16V2.49ZM20,22H4V2H14V8h6V22ZM7,11.5a0.5,0.5,0,0,0,.5.5h9a0.5,0.5,0,1,0,0-1h-9A0.5,0.5,0,0,0,7,11.5ZM13.5,17h-6a0.5,0.5,0,1,0,0,1h6A0.5,0.5,0,1,0,13.5,17Z"/><path class="cls-2" d="M45.5,14h-9a0.5,0.5,0,1,0,0,1h9A0.5,0.5,0,1,0,45.5,14ZM36,11.5a0.5,0.5,0,0,0,.5.5h9a0.5,0.5,0,1,0,0-1h-9A0.5,0.5,0,0,0,36,11.5ZM45,0.28V0H31V24H51V6.25Zm0,2.21L48.59,6H45V2.49ZM49,22H33V2H43V8h6V22Zm-6.5-5h-6a0.5,0.5,0,1,0,0,1h6A0.5,0.5,0,1,0,42.5,17Z"/><path class="cls-3" d="M74.5,14h-9a0.5,0.5,0,1,0,0,1h9A0.5,0.5,0,1,0,74.5,14ZM65,11.5a0.5,0.5,0,0,0,.5.5h9a0.5,0.5,0,1,0,0-1h-9A0.5,0.5,0,0,0,65,11.5ZM74,0.28V0H60V24H80V6.25Zm0,2.21L77.59,6H74V2.49ZM78,22H62V2H72V8h6V22Zm-6.5-5h-6a0.5,0.5,0,1,0,0,1h6A0.5,0.5,0,1,0,71.5,17Z"/></svg>