<svg id="XML_Document" data-name="XML Document" xmlns="http://www.w3.org/2000/svg" width="82" height="24" viewBox="0 0 82 24"><defs><style>.cls-1{fill:#0089d9;}.cls-1,.cls-2,.cls-3{fill-rule:evenodd;}.cls-2{fill:#d7d7d7;}.cls-3{fill:#39a6e6;}</style></defs><title>24</title><path class="cls-1" d="M22,5.92L16,0H2V24H22ZM20,22H4V2H14V8h6V22ZM16,6V2l4,4H16ZM9.43,21H11L14.81,9H13.3ZM9,19V17L7,15l2-2V11L5,15Zm6-8v2l2,2-2,2v2l4-4Z"/><path class="cls-2" d="M51,5.92L45,0H31V24H51ZM49,22H33V2H43V8h6V22ZM45,6V2l4,4H45ZM38.4,21H40L43.78,9H42.27ZM38,19V17l-2-2,2-2V11l-4,4Zm6-8v2l2,2-2,2v2l4-4Z"/><path class="cls-3" d="M80,5.92L74,0H60V24H80ZM78,22H62V2H72V8h6V22ZM74,6V2l4,4H74ZM67.43,21H69L72.81,9H71.3ZM67,19V17l-2-2,2-2V11l-4,4Zm6-8v2l2,2-2,2v2l4-4Z"/></svg>