<svg xmlns="http://www.w3.org/2000/svg" width="82" height="24"><g><path fill="#0089D9" fill-rule="evenodd" d="M12.9 8.5c0-.1-.1-.2-.2-.2-.2-.2-.4-.3-.7-.3-.3 0-.5.1-.7.3-.1.1-.1.2-.2.2l-4 4c-.4.4-.4 1 0 1.4.4.4 1 .4 1.4 0l3.5-3.5 3.6 3.6c.4.4 1 .4 1.4 0 .4-.4.4-1 0-1.4l-4.1-4.1zM12 0C5.4 0 0 5.4 0 12s5.4 12 12 12 12-5.4 12-12S18.6 0 12 0zm0 22C6.5 22 2 17.5 2 12S6.5 2 12 2s10 4.5 10 10-4.5 10-10 10z" clip-rule="evenodd"/><path fill="#C8C8C8" fill-rule="evenodd" d="M41 0c-6.6 0-12 5.4-12 12s5.4 12 12 12 12-5.4 12-12S47.6 0 41 0zm0 22c-5.5 0-10-4.5-10-10S35.5 2 41 2s10 4.5 10 10-4.5 10-10 10zm.9-13.5c0-.1-.1-.2-.2-.2-.2-.2-.4-.3-.7-.3-.3 0-.5.1-.7.3-.1.1-.1.2-.2.2l-4 4c-.4.4-.4 1 0 1.4.4.4 1 .4 1.4 0l3.5-3.5 3.6 3.6c.4.4 1 .4 1.4 0 .4-.4.4-1 0-1.4l-4.1-4.1z" clip-rule="evenodd"/><path fill="#39A6E6" fill-rule="evenodd" d="M70.9 8.5c0-.1-.1-.2-.2-.2-.2-.2-.4-.3-.7-.3-.3 0-.5.1-.7.3-.1.1-.1.2-.2.2l-4 4c-.4.4-.4 1 0 1.4.4.4 1 .4 1.4 0l3.5-3.5 3.6 3.6c.4.4 1 .4 1.4 0 .4-.4.4-1 0-1.4l-4.1-4.1zM70 0c-6.6 0-12 5.4-12 12s5.4 12 12 12 12-5.4 12-12S76.6 0 70 0zm0 22c-5.5 0-10-4.5-10-10S64.5 2 70 2s10 4.5 10 10-4.5 10-10 10z" clip-rule="evenodd"/></g></svg>