<svg xmlns="http://www.w3.org/2000/svg" width="82" height="24"><g><path fill="#0089D9" fill-rule="evenodd" d="M16.9 13.4c.4-.4.4-1 0-1.4-.4-.4-1-.4-1.4 0L13 14.5V7c0-.6-.4-1-1-1s-1 .4-1 1v7.5L8.4 12c-.4-.4-1-.4-1.4 0-.4.4-.4 1 0 1.4l4 4c0 .1.1.3.2.4.3.3.7.4 1.1.2.2 0 .3-.1.4-.2.1-.1.1-.2.2-.2l4-4.2zM24 12c0-6.6-5.4-12-12-12S0 5.4 0 12s5.4 12 12 12 12-5.4 12-12zm-2 0c0 5.5-4.5 10-10 10S2 17.5 2 12 6.5 2 12 2s10 4.5 10 10z" clip-rule="evenodd"/><path fill="#C8C8C8" fill-rule="evenodd" d="M41 0c-6.6 0-12 5.4-12 12s5.4 12 12 12 12-5.4 12-12S47.6 0 41 0zm0 22c-5.5 0-10-4.5-10-10S35.5 2 41 2s10 4.5 10 10-4.5 10-10 10zm3.5-10L42 14.5V7c0-.6-.4-1-1-1s-1 .4-1 1v7.5L37.4 12c-.4-.4-1-.4-1.4 0-.4.4-.4 1 0 1.4l4 4c0 .1.1.3.2.4.3.3.7.4 1.1.2.2 0 .3-.1.4-.2.1-.1.1-.2.2-.2l4-4c.4-.4.4-1 0-1.4-.4-.6-1-.6-1.4-.2z" clip-rule="evenodd"/><path fill="#39A6E6" fill-rule="evenodd" d="M70 0c-6.6 0-12 5.4-12 12s5.4 12 12 12 12-5.4 12-12S76.6 0 70 0zm0 22c-5.5 0-10-4.5-10-10S64.5 2 70 2s10 4.5 10 10-4.5 10-10 10zm3.5-10L71 14.5V7c0-.6-.4-1-1-1s-1 .4-1 1v7.5L66.4 12c-.4-.4-1-.4-1.4 0-.4.4-.4 1 0 1.4l4 4c0 .1.1.3.2.4.3.3.7.4 1.1.2.2 0 .3-.1.4-.2.1-.1.1-.2.2-.2l4-4c.4-.4.4-1 0-1.4-.4-.6-1-.6-1.4-.2z" clip-rule="evenodd"/></g></svg>