<svg xmlns="http://www.w3.org/2000/svg" width="82" height="24"><g><path fill="#0089D9" fill-rule="evenodd" d="M16 7c-.4-.4-1-.4-1.4 0l-4.1 4.1c-.1 0-.2.1-.2.2-.2.2-.3.4-.3.7 0 .3.1.5.3.7.1.1.2.1.2.2l4 4c.4.4 1 .4 1.4 0 .4-.4.4-1 0-1.4L12.5 12 16 8.4c.4-.4.4-1 0-1.4zm-4-7C5.4 0 0 5.4 0 12s5.4 12 12 12 12-5.4 12-12S18.6 0 12 0zm0 22C6.5 22 2 17.5 2 12S6.5 2 12 2s10 4.5 10 10-4.5 10-10 10zM8 7c-.6 0-1 .5-1 1v8c0 .6.4 1 1 1s1-.4 1-1V8c0-.5-.4-1-1-1z" clip-rule="evenodd"/><path fill="#C8C8C8" fill-rule="evenodd" d="M45 7c-.4-.4-1-.4-1.4 0l-4.1 4.1c-.1 0-.2.1-.2.2-.2.2-.3.4-.3.7 0 .3.1.5.3.7.1.1.2.1.2.2l4 4c.4.4 1 .4 1.4 0 .4-.4.4-1 0-1.4L41.5 12 45 8.4c.4-.4.4-1 0-1.4zm-4-7c-6.6 0-12 5.4-12 12s5.4 12 12 12 12-5.4 12-12S47.6 0 41 0zm0 22c-5.5 0-10-4.5-10-10S35.5 2 41 2s10 4.5 10 10-4.5 10-10 10zM37 7c-.6 0-1 .4-1 1v8c0 .6.4 1 1 1s1-.4 1-1V8c0-.5-.4-1-1-1z" clip-rule="evenodd"/><path fill="#39A6E6" fill-rule="evenodd" d="M70 0c-6.6 0-12 5.4-12 12s5.4 12 12 12 12-5.4 12-12S76.6 0 70 0zm0 22c-5.5 0-10-4.5-10-10S64.5 2 70 2s10 4.5 10 10-4.5 10-10 10zm4-15c-.4-.4-1-.4-1.4 0l-4.1 4.1c-.1 0-.2.1-.2.2-.2.2-.3.4-.3.7 0 .3.1.5.3.7.1.1.2.1.2.2l4 4c.4.4 1 .4 1.4 0 .4-.4.4-1 0-1.4L70.5 12 74 8.4c.4-.4.4-1 0-1.4zm-8 0c-.6 0-1 .4-1 1v8c0 .6.4 1 1 1s1-.4 1-1V8c0-.5-.4-1-1-1z" clip-rule="evenodd"/></g></svg>