<svg xmlns="http://www.w3.org/2000/svg" width="82" height="24"><g><path fill="#0089D9" fill-rule="evenodd" d="M12 0C5.4 0 0 5.4 0 12s5.4 12 12 12 12-5.4 12-12S18.6 0 12 0zm0 22C6.5 22 2 17.5 2 12S6.5 2 12 2s10 4.5 10 10-4.5 10-10 10zm5-11H9.5L12 8.5c.4-.4.4-1 0-1.4-.4-.4-1-.4-1.4 0l-4 4c-.1 0-.2.1-.2.2-.1.1-.2.3-.2.4-.2.3-.2.7.1 1 .1.1.2.2.4.2l4 4c.4.4 1 .4 1.4 0 .4-.4.4-1 0-1.4L9.5 13H17c.6 0 1-.4 1-1s-.4-1-1-1z" clip-rule="evenodd"/><path fill="#C8C8C8" fill-rule="evenodd" d="M41 0c-6.6 0-12 5.4-12 12s5.4 12 12 12 12-5.4 12-12S47.6 0 41 0zm0 22c-5.5 0-10-4.5-10-10S35.5 2 41 2s10 4.5 10 10-4.5 10-10 10zm5-11h-7.5L41 8.5c.4-.4.4-1 0-1.4-.4-.4-1-.4-1.4 0l-4 4c-.1 0-.2.1-.2.2-.1.1-.2.3-.2.4-.2.3-.2.7.1 1 .1.1.2.2.4.2l4 4c.4.4 1 .4 1.4 0 .4-.4.4-1 0-1.4L38.5 13H46c.6 0 1-.4 1-1s-.4-1-1-1z" clip-rule="evenodd"/><path fill="#39A6E6" fill-rule="evenodd" d="M70 0c-6.6 0-12 5.4-12 12s5.4 12 12 12 12-5.4 12-12S76.6 0 70 0zm0 22c-5.5 0-10-4.5-10-10S64.5 2 70 2s10 4.5 10 10-4.5 10-10 10zm5-11h-7.5L70 8.5c.4-.4.4-1 0-1.4-.4-.4-1-.4-1.4 0l-4 4c-.1 0-.2.1-.2.2-.1.1-.2.3-.2.4-.2.3-.2.7.1 1 .1.1.2.2.4.2l4 4c.4.4 1 .4 1.4 0 .4-.4.4-1 0-1.4L67.5 13H75c.6 0 1-.4 1-1s-.4-1-1-1z" clip-rule="evenodd"/></g></svg>