<svg xmlns="http://www.w3.org/2000/svg" width="82" height="24"><g><path fill="#0089D9" fill-rule="evenodd" d="M16 11H8c-.6 0-1 .4-1 1s.4 1 1 1h8c.6 0 1-.4 1-1 0-.5-.4-1-1-1zM12 0C5.4 0 0 5.4 0 12s5.4 12 12 12 12-5.4 12-12S18.6 0 12 0zm0 22C6.5 22 2 17.5 2 12S6.5 2 12 2s10 4.5 10 10-4.5 10-10 10zm4-15H8c-.6 0-1 .5-1 1 0 .6.4 1 1 1h8c.6 0 1-.4 1-1 0-.5-.4-1-1-1zm0 8H8c-.6 0-1 .4-1 1s.4 1 1 1h8c.6 0 1-.4 1-1 0-.5-.4-1-1-1z" clip-rule="evenodd"/><path fill="#C8C8C8" fill-rule="evenodd" d="M45 11h-8c-.6 0-1 .4-1 1s.4 1 1 1h8c.6 0 1-.4 1-1 0-.5-.4-1-1-1zm0-4h-8c-.6 0-1 .4-1 1s.4 1 1 1h8c.6 0 1-.4 1-1 0-.5-.4-1-1-1zm-4-7c-6.6 0-12 5.4-12 12s5.4 12 12 12 12-5.4 12-12S47.6 0 41 0zm0 22c-5.5 0-10-4.5-10-10S35.5 2 41 2s10 4.5 10 10-4.5 10-10 10zm4-7h-8c-.6 0-1 .4-1 1s.4 1 1 1h8c.6 0 1-.4 1-1 0-.5-.4-1-1-1z" clip-rule="evenodd"/><path fill="#39A6E6" fill-rule="evenodd" d="M74 11h-8c-.6 0-1 .4-1 1s.4 1 1 1h8c.6 0 1-.4 1-1 0-.5-.4-1-1-1zM70 0c-6.6 0-12 5.4-12 12s5.4 12 12 12 12-5.4 12-12S76.6 0 70 0zm0 22c-5.5 0-10-4.5-10-10S64.5 2 70 2s10 4.5 10 10-4.5 10-10 10zm4-15h-8c-.6 0-1 .4-1 1s.4 1 1 1h8c.6 0 1-.4 1-1 0-.5-.4-1-1-1zm0 8h-8c-.6 0-1 .4-1 1s.4 1 1 1h8c.6 0 1-.4 1-1 0-.5-.4-1-1-1z" clip-rule="evenodd"/></g></svg>