<svg xmlns="http://www.w3.org/2000/svg" width="82" height="24"><g><path fill="#39A6E6" fill-rule="evenodd" d="M64 8c-.6 0-1 .4-1 1v6c0 .6.4 1 1 1s1-.4 1-1V9c0-.5-.4-1-1-1zm4.5 4L71 9.4c.4-.4.4-1 0-1.4-.4-.4-1-.4-1.4 0l-3.1 3.1c-.1 0-.2.1-.2.2-.2.2-.3.4-.3.7 0 .3.1.5.3.7.1.1.2.1.2.2l3 3c.4.4 1 .4 1.4 0 .4-.4.4-1 0-1.4L68.5 12zM76 8c-.4-.4-1-.4-1.4 0l-3.1 3.1c-.1 0-.2.1-.2.2-.2.2-.3.4-.3.7 0 .3.1.5.3.7.1.1.2.1.2.2l3 3c.4.4 1 .4 1.4 0 .4-.4.4-1 0-1.4L73.5 12 76 9.4c.4-.4.4-1 0-1.4zm-6-8c-6.6 0-12 5.4-12 12s5.4 12 12 12 12-5.4 12-12S76.6 0 70 0zm0 22c-5.5 0-10-4.5-10-10S64.5 2 70 2s10 4.5 10 10-4.5 10-10 10z" clip-rule="evenodd"/><path fill="#C8C8C8" fill-rule="evenodd" d="M35 8c-.6 0-1 .4-1 1v6c0 .6.4 1 1 1s1-.4 1-1V9c0-.5-.4-1-1-1zm4.5 4L42 9.4c.4-.4.4-1 0-1.4-.4-.4-1-.4-1.4 0l-3.1 3.1c-.1 0-.2.1-.2.2-.2.2-.3.4-.3.7 0 .3.1.5.3.7.1.1.2.1.2.2l3 3c.4.4 1 .4 1.4 0 .4-.4.4-1 0-1.4L39.5 12zM47 8c-.4-.4-1-.4-1.4 0l-3.1 3.1c-.1 0-.2.1-.2.2-.2.2-.3.4-.3.7 0 .3.1.5.3.7.1.1.2.1.2.2l3 3c.4.4 1 .4 1.4 0 .4-.4.4-1 0-1.4L44.5 12 47 9.4c.4-.4.4-1 0-1.4zm-6-8c-6.6 0-12 5.4-12 12s5.4 12 12 12 12-5.4 12-12S47.6 0 41 0zm0 22c-5.5 0-10-4.5-10-10S35.5 2 41 2s10 4.5 10 10-4.5 10-10 10z" clip-rule="evenodd"/><path fill="#0089D9" fill-rule="evenodd" d="M13 12c0 .3.1.5.3.7.1.1.2.1.2.2l3 3c.4.4 1 .4 1.4 0 .4-.4.4-1 0-1.4L15.5 12 18 9.4c.4-.4.4-1 0-1.4-.4-.4-1-.4-1.4 0l-3.1 3.1c-.1 0-.2.1-.2.2-.2.2-.3.4-.3.7zm-4.7-.7c-.2.2-.3.4-.3.7 0 .3.1.5.3.7.1.1.2.1.2.2l3 3c.4.4 1 .4 1.4 0 .4-.4.4-1 0-1.4L10.5 12 13 9.4c.4-.4.4-1 0-1.4-.4-.4-1-.4-1.4 0l-3.1 3.1s-.1.1-.2.2zM0 12c0 6.6 5.4 12 12 12s12-5.4 12-12S18.6 0 12 0 0 5.4 0 12zm2 0C2 6.5 6.5 2 12 2s10 4.5 10 10-4.5 10-10 10S2 17.5 2 12zm3-3v6c0 .6.4 1 1 1s1-.4 1-1V9c0-.6-.4-1-1-1s-1 .5-1 1z" clip-rule="evenodd"/></g></svg>