<svg xmlns="http://www.w3.org/2000/svg" width="82" height="24"><g><path fill="#0089D9" fill-rule="evenodd" d="M12.9 6.6c0-.1-.1-.2-.2-.2-.1-.1-.3-.2-.4-.2-.3-.2-.7-.2-1 .1-.1.1-.2.2-.2.4l-4 4c-.4.4-.4 1 0 1.4.4.4 1 .4 1.4 0L11 9.5V17c0 .6.4 1 1 1s1-.4 1-1V9.5l2.5 2.5c.4.4 1 .4 1.4 0 .4-.4.4-1 0-1.4l-4-4zM12 0C5.4 0 0 5.4 0 12s5.4 12 12 12 12-5.4 12-12S18.6 0 12 0zm0 22C6.5 22 2 17.5 2 12S6.5 2 12 2s10 4.5 10 10-4.5 10-10 10z" clip-rule="evenodd"/><path fill="#C8C8C8" fill-rule="evenodd" d="M41 0c-6.6 0-12 5.4-12 12s5.4 12 12 12 12-5.4 12-12S47.6 0 41 0zm0 22c-5.5 0-10-4.5-10-10S35.5 2 41 2s10 4.5 10 10-4.5 10-10 10zm.9-15.4c0-.1-.1-.2-.2-.2-.1-.1-.3-.2-.4-.2-.3-.2-.7-.2-1 .1-.1.1-.2.2-.2.4l-4 4c-.4.4-.4 1 0 1.4.4.4 1 .4 1.4 0L40 9.5V17c0 .6.4 1 1 1s1-.4 1-1V9.5l2.5 2.5c.4.4 1 .4 1.4 0 .4-.4.4-1 0-1.4l-4-4z" clip-rule="evenodd"/><path fill="#39A6E6" fill-rule="evenodd" d="M70.9 6.6c0-.1-.1-.2-.2-.2-.1-.1-.3-.2-.4-.2-.3-.2-.7-.2-1 .1-.1.1-.2.2-.2.4l-4 4c-.4.4-.4 1 0 1.4.4.4 1 .4 1.4 0L69 9.5V17c0 .6.4 1 1 1s1-.4 1-1V9.5l2.5 2.5c.4.4 1 .4 1.4 0 .4-.4.4-1 0-1.4l-4-4zM70 0c-6.6 0-12 5.4-12 12s5.4 12 12 12 12-5.4 12-12S76.6 0 70 0zm0 22c-5.5 0-10-4.5-10-10S64.5 2 70 2s10 4.5 10 10-4.5 10-10 10z" clip-rule="evenodd"/></g></svg>